<?xml version="1.0" encoding="UTF-8" standalone="no"?>
<!DOCTYPE svg PUBLIC "-//W3C//DTD SVG 1.1//EN"
 "http://www.w3.org/Graphics/SVG/1.1/DTD/svg11.dtd">
<!-- Generated by graphviz version 2.40.1 (20161225.0304)
 -->
<!-- Title: test_graph Pages: 1 -->
<svg width="6006pt" height="4656pt"
 viewBox="0.00 0.00 6006.37 4656.36" xmlns="http://www.w3.org/2000/svg" xmlns:xlink="http://www.w3.org/1999/xlink">
<g id="graph0" class="graph" transform="scale(1 1) rotate(0) translate(4 4652.3552)">
<title>test_graph</title>
<polygon fill="#ffffff" stroke="transparent" points="-4,4 -4,-4652.3552 6002.3689,-4652.3552 6002.3689,4 -4,4"/>
<!-- N23 -->
<g id="node1" class="node">
<title>N23</title>
<ellipse fill="none" stroke="#000000" cx="27.6648" cy="-2006.7922" rx="27.8306" ry="18"/>
<text text-anchor="middle" x="27.6648" y="-2002.5922" font-family="Times,serif" font-size="14.00" fill="#000000">N23</text>
</g>
<!-- N9 -->
<g id="node2" class="node">
<title>N9</title>
<ellipse fill="none" stroke="#000000" cx="3844.467" cy="-3378.1454" rx="27" ry="18"/>
<text text-anchor="middle" x="3844.467" y="-3373.9454" font-family="Times,serif" font-size="14.00" fill="#000000">N9</text>
</g>
<!-- N10 -->
<g id="node3" class="node">
<title>N10</title>
<ellipse fill="none" stroke="#000000" cx="3842.6843" cy="-3859.8842" rx="27.8306" ry="18"/>
<text text-anchor="middle" x="3842.6843" y="-3855.6842" font-family="Times,serif" font-size="14.00" fill="#000000">N10</text>
</g>
<!-- N43 -->
<g id="node4" class="node">
<title>N43</title>
<ellipse fill="none" stroke="#000000" cx="1889.726" cy="-3645.842" rx="27.8306" ry="18"/>
<text text-anchor="middle" x="1889.726" y="-3641.642" font-family="Times,serif" font-size="14.00" fill="#000000">N43</text>
</g>
<!-- N4 -->
<g id="node5" class="node">
<title>N4</title>
<ellipse fill="none" stroke="#000000" cx="3620.0375" cy="-4287.0888" rx="27" ry="18"/>
<text text-anchor="middle" x="3620.0375" y="-4282.8888" font-family="Times,serif" font-size="14.00" fill="#000000">N4</text>
</g>
<!-- N16 -->
<g id="node6" class="node">
<title>N16</title>
<ellipse fill="none" stroke="#000000" cx="2594.3494" cy="-3041.6317" rx="27.8306" ry="18"/>
<text text-anchor="middle" x="2594.3494" y="-3037.4317" font-family="Times,serif" font-size="14.00" fill="#000000">N16</text>
</g>
<!-- N28 -->
<g id="node7" class="node">
<title>N28</title>
<ellipse fill="none" stroke="#000000" cx="3062.0566" cy="-2855.3016" rx="27.8306" ry="18"/>
<text text-anchor="middle" x="3062.0566" y="-2851.1016" font-family="Times,serif" font-size="14.00" fill="#000000">N28</text>
</g>
<!-- N35 -->
<g id="node8" class="node">
<title>N35</title>
<ellipse fill="none" stroke="#000000" cx="3185.0078" cy="-2876.4661" rx="27.8306" ry="18"/>
<text text-anchor="middle" x="3185.0078" y="-2872.2661" font-family="Times,serif" font-size="14.00" fill="#000000">N35</text>
</g>
<!-- N39 -->
<g id="node9" class="node">
<title>N39</title>
<ellipse fill="none" stroke="#000000" cx="2739.5044" cy="-2140.2544" rx="27.8306" ry="18"/>
<text text-anchor="middle" x="2739.5044" y="-2136.0544" font-family="Times,serif" font-size="14.00" fill="#000000">N39</text>
</g>
<!-- N20 -->
<g id="node10" class="node">
<title>N20</title>
<ellipse fill="none" stroke="#000000" cx="2536.5937" cy="-2414.2994" rx="27.8306" ry="18"/>
<text text-anchor="middle" x="2536.5937" y="-2410.0994" font-family="Times,serif" font-size="14.00" fill="#000000">N20</text>
</g>
<!-- N41 -->
<g id="node11" class="node">
<title>N41</title>
<ellipse fill="none" stroke="#000000" cx="2889.1728" cy="-2142.475" rx="27.8306" ry="18"/>
<text text-anchor="middle" x="2889.1728" y="-2138.275" font-family="Times,serif" font-size="14.00" fill="#000000">N41</text>
</g>
<!-- N22 -->
<g id="node12" class="node">
<title>N22</title>
<ellipse fill="none" stroke="#000000" cx="2354.9107" cy="-2295.5273" rx="27.8306" ry="18"/>
<text text-anchor="middle" x="2354.9107" y="-2291.3273" font-family="Times,serif" font-size="14.00" fill="#000000">N22</text>
</g>
<!-- N38 -->
<g id="node13" class="node">
<title>N38</title>
<ellipse fill="none" stroke="#000000" cx="2933.311" cy="-2285.5043" rx="27.8306" ry="18"/>
<text text-anchor="middle" x="2933.311" y="-2281.3043" font-family="Times,serif" font-size="14.00" fill="#000000">N38</text>
</g>
<!-- N14 -->
<g id="node14" class="node">
<title>N14</title>
<ellipse fill="none" stroke="#000000" cx="2370.0612" cy="-2793.9174" rx="27.8306" ry="18"/>
<text text-anchor="middle" x="2370.0612" y="-2789.7174" font-family="Times,serif" font-size="14.00" fill="#000000">N14</text>
</g>
<!-- N37 -->
<g id="node15" class="node">
<title>N37</title>
<ellipse fill="none" stroke="#000000" cx="2810.9215" cy="-2371.6808" rx="27.8306" ry="18"/>
<text text-anchor="middle" x="2810.9215" y="-2367.4808" font-family="Times,serif" font-size="14.00" fill="#000000">N37</text>
</g>
<!-- N34 -->
<g id="node16" class="node">
<title>N34</title>
<ellipse fill="none" stroke="#000000" cx="3265.5897" cy="-2971.7105" rx="27.8306" ry="18"/>
<text text-anchor="middle" x="3265.5897" y="-2967.5105" font-family="Times,serif" font-size="14.00" fill="#000000">N34</text>
</g>
<!-- N32 -->
<g id="node17" class="node">
<title>N32</title>
<ellipse fill="none" stroke="#000000" cx="3266.097" cy="-3096.469" rx="27.8306" ry="18"/>
<text text-anchor="middle" x="3266.097" y="-3092.269" font-family="Times,serif" font-size="14.00" fill="#000000">N32</text>
</g>
<!-- N36 -->
<g id="node18" class="node">
<title>N36</title>
<ellipse fill="none" stroke="#000000" cx="3186.2924" cy="-3192.3657" rx="27.8306" ry="18"/>
<text text-anchor="middle" x="3186.2924" y="-3188.1657" font-family="Times,serif" font-size="14.00" fill="#000000">N36</text>
</g>
<!-- N26 -->
<g id="node19" class="node">
<title>N26</title>
<ellipse fill="none" stroke="#000000" cx="2852.3028" cy="-398.2377" rx="27.8306" ry="18"/>
<text text-anchor="middle" x="2852.3028" y="-394.0377" font-family="Times,serif" font-size="14.00" fill="#000000">N26</text>
</g>
<!-- N44 -->
<g id="node20" class="node">
<title>N44</title>
<ellipse fill="none" stroke="#000000" cx="1709.4121" cy="-3520.8668" rx="27.8306" ry="18"/>
<text text-anchor="middle" x="1709.4121" y="-3516.6668" font-family="Times,serif" font-size="14.00" fill="#000000">N44</text>
</g>
<!-- N2 -->
<g id="node21" class="node">
<title>N2</title>
<ellipse fill="none" stroke="#000000" cx="3226.7973" cy="-4564.245" rx="27" ry="18"/>
<text text-anchor="middle" x="3226.7973" y="-4560.045" font-family="Times,serif" font-size="14.00" fill="#000000">N2</text>
</g>
<!-- N25 -->
<g id="node22" class="node">
<title>N25</title>
<ellipse fill="none" stroke="#000000" cx="4549.4399" cy="-18" rx="27.8306" ry="18"/>
<text text-anchor="middle" x="4549.4399" y="-13.8" font-family="Times,serif" font-size="14.00" fill="#000000">N25</text>
</g>
<!-- N21 -->
<g id="node23" class="node">
<title>N21</title>
<ellipse fill="none" stroke="#000000" cx="2330.808" cy="-2079.8085" rx="27.8306" ry="18"/>
<text text-anchor="middle" x="2330.808" y="-2075.6085" font-family="Times,serif" font-size="14.00" fill="#000000">N21</text>
</g>
<!-- N8 -->
<g id="node24" class="node">
<title>N8</title>
<ellipse fill="none" stroke="#000000" cx="2750.2652" cy="-4630.3552" rx="27" ry="18"/>
<text text-anchor="middle" x="2750.2652" y="-4626.1552" font-family="Times,serif" font-size="14.00" fill="#000000">N8</text>
</g>
<!-- N24 -->
<g id="node25" class="node">
<title>N24</title>
<ellipse fill="none" stroke="#000000" cx="5922.1009" cy="-1086.0153" rx="27.8306" ry="18"/>
<text text-anchor="middle" x="5922.1009" y="-1081.8153" font-family="Times,serif" font-size="14.00" fill="#000000">N24</text>
</g>
<!-- N17 -->
<g id="node26" class="node">
<title>N17</title>
<ellipse fill="none" stroke="#000000" cx="2481.7966" cy="-1923.8663" rx="27.8306" ry="18"/>
<text text-anchor="middle" x="2481.7966" y="-1919.6663" font-family="Times,serif" font-size="14.00" fill="#000000">N17</text>
</g>
<!-- N31 -->
<g id="node27" class="node">
<title>N31</title>
<ellipse fill="none" stroke="#000000" cx="3063.5174" cy="-3214.5294" rx="27.8306" ry="18"/>
<text text-anchor="middle" x="3063.5174" y="-3210.3294" font-family="Times,serif" font-size="14.00" fill="#000000">N31</text>
</g>
<!-- N42 -->
<g id="node28" class="node">
<title>N42</title>
<ellipse fill="none" stroke="#000000" cx="1907.8007" cy="-3427.198" rx="27.8306" ry="18"/>
<text text-anchor="middle" x="1907.8007" y="-3422.998" font-family="Times,serif" font-size="14.00" fill="#000000">N42</text>
</g>
<!-- N5 -->
<g id="node29" class="node">
<title>N5</title>
<ellipse fill="none" stroke="#000000" cx="2296.4274" cy="-4470.7159" rx="27" ry="18"/>
<text text-anchor="middle" x="2296.4274" y="-4466.5159" font-family="Times,serif" font-size="14.00" fill="#000000">N5</text>
</g>
<!-- N27 -->
<g id="node30" class="node">
<title>N27</title>
<ellipse fill="none" stroke="#000000" cx="5970.7041" cy="-2824.5471" rx="27.8306" ry="18"/>
<text text-anchor="middle" x="5970.7041" y="-2820.3471" font-family="Times,serif" font-size="14.00" fill="#000000">N27</text>
</g>
<!-- N40 -->
<g id="node31" class="node">
<title>N40</title>
<ellipse fill="none" stroke="#000000" cx="2691.1424" cy="-2281.9114" rx="27.8306" ry="18"/>
<text text-anchor="middle" x="2691.1424" y="-2277.7114" font-family="Times,serif" font-size="14.00" fill="#000000">N40</text>
</g>
<!-- N30 -->
<g id="node32" class="node">
<title>N30</title>
<ellipse fill="none" stroke="#000000" cx="2955.2197" cy="-3152.5895" rx="27.8306" ry="18"/>
<text text-anchor="middle" x="2955.2197" y="-3148.3895" font-family="Times,serif" font-size="14.00" fill="#000000">N30</text>
</g>
<!-- N33 -->
<g id="node33" class="node">
<title>N33</title>
<ellipse fill="none" stroke="#000000" cx="2912.073" cy="-3035.5284" rx="27.8306" ry="18"/>
<text text-anchor="middle" x="2912.073" y="-3031.3284" font-family="Times,serif" font-size="14.00" fill="#000000">N33</text>
</g>
<!-- N7 -->
<g id="node34" class="node">
<title>N7</title>
<ellipse fill="none" stroke="#000000" cx="1966.2228" cy="-4120.8327" rx="27" ry="18"/>
<text text-anchor="middle" x="1966.2228" y="-4116.6327" font-family="Times,serif" font-size="14.00" fill="#000000">N7</text>
</g>
<!-- N29 -->
<g id="node35" class="node">
<title>N29</title>
<ellipse fill="none" stroke="#000000" cx="2954.2662" cy="-2918.1202" rx="27.8306" ry="18"/>
<text text-anchor="middle" x="2954.2662" y="-2913.9202" font-family="Times,serif" font-size="14.00" fill="#000000">N29</text>
</g>
<!-- N19 -->
<g id="node36" class="node">
<title>N19</title>
<ellipse fill="none" stroke="#000000" cx="2698.1808" cy="-1940.9952" rx="27.8306" ry="18"/>
<text text-anchor="middle" x="2698.1808" y="-1936.7952" font-family="Times,serif" font-size="14.00" fill="#000000">N19</text>
</g>
<!-- N45 -->
<g id="node37" class="node">
<title>N45</title>
<ellipse fill="none" stroke="#000000" cx="3134.9156" cy="-2423.0272" rx="27.8306" ry="18"/>
<text text-anchor="middle" x="3134.9156" y="-2418.8272" font-family="Times,serif" font-size="14.00" fill="#000000">N45</text>
</g>
<!-- N46 -->
<g id="node38" class="node">
<title>N46</title>
<ellipse fill="none" stroke="#000000" cx="3178.2501" cy="-2306.0355" rx="27.8306" ry="18"/>
<text text-anchor="middle" x="3178.2501" y="-2301.8355" font-family="Times,serif" font-size="14.00" fill="#000000">N46</text>
</g>
<!-- N47 -->
<g id="node39" class="node">
<title>N47</title>
<ellipse fill="none" stroke="#000000" cx="3286.6471" cy="-2244.2696" rx="27.8306" ry="18"/>
<text text-anchor="middle" x="3286.6471" y="-2240.0696" font-family="Times,serif" font-size="14.00" fill="#000000">N47</text>
</g>
<!-- N48 -->
<g id="node40" class="node">
<title>N48</title>
<ellipse fill="none" stroke="#000000" cx="3409.3864" cy="-2266.6304" rx="27.8306" ry="18"/>
<text text-anchor="middle" x="3409.3864" y="-2262.4304" font-family="Times,serif" font-size="14.00" fill="#000000">N48</text>
</g>
<!-- N49 -->
<g id="node41" class="node">
<title>N49</title>
<ellipse fill="none" stroke="#000000" cx="3489.0369" cy="-2362.6551" rx="27.8306" ry="18"/>
<text text-anchor="middle" x="3489.0369" y="-2358.4551" font-family="Times,serif" font-size="14.00" fill="#000000">N49</text>
</g>
<!-- N50 -->
<g id="node42" class="node">
<title>N50</title>
<ellipse fill="none" stroke="#000000" cx="3488.3293" cy="-2487.4126" rx="27.8306" ry="18"/>
<text text-anchor="middle" x="3488.3293" y="-2483.2126" font-family="Times,serif" font-size="14.00" fill="#000000">N50</text>
</g>
<!-- N51 -->
<g id="node43" class="node">
<title>N51</title>
<ellipse fill="none" stroke="#000000" cx="3407.5946" cy="-2582.5275" rx="27.8306" ry="18"/>
<text text-anchor="middle" x="3407.5946" y="-2578.3275" font-family="Times,serif" font-size="14.00" fill="#000000">N51</text>
</g>
<!-- N52 -->
<g id="node44" class="node">
<title>N52</title>
<ellipse fill="none" stroke="#000000" cx="3284.6096" cy="-2603.4945" rx="27.8306" ry="18"/>
<text text-anchor="middle" x="3284.6096" y="-2599.2945" font-family="Times,serif" font-size="14.00" fill="#000000">N52</text>
</g>
<!-- N53 -->
<g id="node45" class="node">
<title>N53</title>
<ellipse fill="none" stroke="#000000" cx="3176.9202" cy="-2540.503" rx="27.8306" ry="18"/>
<text text-anchor="middle" x="3176.9202" y="-2536.303" font-family="Times,serif" font-size="14.00" fill="#000000">N53</text>
</g>
<!-- Root -->
<g id="node46" class="node">
<title>Root</title>
<ellipse fill="none" stroke="#000000" cx="2852.3028" cy="-3615.3466" rx="29.6358" ry="18"/>
<text text-anchor="middle" x="2852.3028" y="-3611.1466" font-family="Times,serif" font-size="14.00" fill="#000000">Root</text>
</g>
<!-- Root&#45;&#45;N9 -->
<g id="edge8" class="edge">
<title>Root&#45;&#45;N9</title>
<path fill="none" stroke="#000000" d="M2880.1358,-3608.6925C3023.8664,-3574.3301 3680.6953,-3417.2991 3818.8994,-3384.258"/>
</g>
<!-- Root&#45;&#45;N10 -->
<g id="edge9" class="edge">
<title>Root&#45;&#45;N10</title>
<path fill="none" stroke="#000000" d="M2880.0858,-3622.2066C3023.4014,-3657.593 3677.7744,-3819.1659 3816.7085,-3853.4704"/>
</g>
<!-- Root&#45;&#45;N4 -->
<g id="edge3" class="edge">
<title>Root&#45;&#45;N4</title>
<path fill="none" stroke="#000000" d="M2869.4145,-3630.3188C2971.8515,-3719.9477 3502.8457,-4184.5499 3603.5431,-4272.6567"/>
</g>
<!-- Root&#45;&#45;N2 -->
<g id="edge1" class="edge">
<title>Root&#45;&#45;N2</title>
<path fill="none" stroke="#000000" d="M2859.2851,-3633.0384C2906.0457,-3751.5209 3173.2541,-4428.5766 3219.8631,-4546.6751"/>
</g>
<!-- Root&#45;&#45;N8 -->
<g id="edge7" class="edge">
<title>Root&#45;&#45;N8</title>
<path fill="none" stroke="#000000" d="M2850.4885,-3633.3948C2837.9751,-3757.8704 2764.6002,-4487.7597 2752.0813,-4612.2901"/>
</g>
<!-- Root&#45;&#45;N5 -->
<g id="edge4" class="edge">
<title>Root&#45;&#45;N5</title>
<path fill="none" stroke="#000000" d="M2841.199,-3632.433C2769.9693,-3742.0398 2377.9484,-4345.2732 2307.329,-4453.9408"/>
</g>
<!-- Root&#45;&#45;N7 -->
<g id="edge6" class="edge">
<title>Root&#45;&#45;N7</title>
<path fill="none" stroke="#000000" d="M2830.3996,-3627.8419C2707.6755,-3697.8529 2106.6389,-4040.7289 1986.9689,-4108.9976"/>
</g>
<!-- N3 -->
<g id="node47" class="node">
<title>N3</title>
<ellipse fill="none" stroke="#000000" cx="1835.6463" cy="-3531.3023" rx="27" ry="18"/>
<text text-anchor="middle" x="1835.6463" y="-3527.1023" font-family="Times,serif" font-size="14.00" fill="#000000">N3</text>
</g>
<!-- Root&#45;&#45;N3 -->
<g id="edge2" class="edge">
<title>Root&#45;&#45;N3</title>
<path fill="none" stroke="#000000" d="M2822.7004,-3612.8995C2673.5257,-3600.5676 2005.6978,-3545.36 1862.6676,-3533.5361"/>
</g>
<!-- N6 -->
<g id="node48" class="node">
<title>N6</title>
<ellipse fill="none" stroke="#000000" cx="2838.3418" cy="-2595.3176" rx="27" ry="18"/>
<text text-anchor="middle" x="2838.3418" y="-2591.1176" font-family="Times,serif" font-size="14.00" fill="#000000">N6</text>
</g>
<!-- Root&#45;&#45;N6 -->
<g id="edge5" class="edge">
<title>Root&#45;&#45;N6</title>
<path fill="none" stroke="#000000" d="M2852.0546,-3597.2092C2850.3425,-3472.118 2840.3031,-2738.6185 2838.5902,-2613.4721"/>
</g>
<!-- N11 -->
<g id="node49" class="node">
<title>N11</title>
<ellipse fill="none" stroke="#000000" cx="4103.8579" cy="-2006.7922" rx="27.8306" ry="18"/>
<text text-anchor="middle" x="4103.8579" y="-2002.5922" font-family="Times,serif" font-size="14.00" fill="#000000">N11</text>
</g>
<!-- Root&#45;&#45;N11 -->
<g id="edge10" class="edge">
<title>Root&#45;&#45;N11</title>
<path fill="none" stroke="#000000" d="M2865.0976,-3598.9023C2988.666,-3440.0866 3968.2847,-2181.0369 4091.2034,-2023.0563"/>
</g>
<!-- N3&#45;&#45;N43 -->
<g id="edge42" class="edge">
<title>N3&#45;&#45;N43</title>
<path fill="none" stroke="#000000" d="M1843.8598,-3548.6984C1854.0244,-3570.2267 1871.235,-3606.6785 1881.4351,-3628.2822"/>
</g>
<!-- N3&#45;&#45;N44 -->
<g id="edge43" class="edge">
<title>N3&#45;&#45;N44</title>
<path fill="none" stroke="#000000" d="M1808.5658,-3529.0636C1787.412,-3527.3149 1758.1363,-3524.8947 1736.8832,-3523.1378"/>
</g>
<!-- N3&#45;&#45;N42 -->
<g id="edge41" class="edge">
<title>N3&#45;&#45;N42</title>
<path fill="none" stroke="#000000" d="M1847.2391,-3514.5761C1860.7039,-3495.1491 1882.7841,-3463.2919 1896.2366,-3443.8826"/>
</g>
<!-- N6&#45;&#45;N16 -->
<g id="edge15" class="edge">
<title>N6&#45;&#45;N16</title>
<path fill="none" stroke="#000000" d="M2829.0749,-2612.2687C2790.426,-2682.9658 2642.2919,-2953.9347 2603.6255,-3024.6637"/>
</g>
<!-- N6&#45;&#45;N14 -->
<g id="edge13" class="edge">
<title>N6&#45;&#45;N14</title>
<path fill="none" stroke="#000000" d="M2815.4386,-2605.0309C2736.1122,-2638.6736 2473.5787,-2750.0152 2393.4737,-2783.988"/>
</g>
<!-- N12 -->
<g id="node50" class="node">
<title>N12</title>
<ellipse fill="none" stroke="#000000" cx="2571.8092" cy="-2162.0869" rx="27.8306" ry="18"/>
<text text-anchor="middle" x="2571.8092" y="-2157.8869" font-family="Times,serif" font-size="14.00" fill="#000000">N12</text>
</g>
<!-- N6&#45;&#45;N12 -->
<g id="edge11" class="edge">
<title>N6&#45;&#45;N12</title>
<path fill="none" stroke="#000000" d="M2828.0567,-2578.5999C2785.6753,-2509.7118 2624.7989,-2248.218 2582.2074,-2178.9884"/>
</g>
<!-- N13 -->
<g id="node51" class="node">
<title>N13</title>
<ellipse fill="none" stroke="#000000" cx="3317.2989" cy="-2424.0617" rx="27.8306" ry="18"/>
<text text-anchor="middle" x="3317.2989" y="-2419.8617" font-family="Times,serif" font-size="14.00" fill="#000000">N13</text>
</g>
<!-- N6&#45;&#45;N13 -->
<g id="edge12" class="edge">
<title>N6&#45;&#45;N13</title>
<path fill="none" stroke="#000000" d="M2862.4215,-2586.7077C2944.1805,-2557.4739 3210.6267,-2462.2034 3292.8856,-2432.7909"/>
</g>
<!-- N15 -->
<g id="node52" class="node">
<title>N15</title>
<ellipse fill="none" stroke="#000000" cx="3094.4578" cy="-3034.7867" rx="27.8306" ry="18"/>
<text text-anchor="middle" x="3094.4578" y="-3030.5867" font-family="Times,serif" font-size="14.00" fill="#000000">N15</text>
</g>
<!-- N6&#45;&#45;N15 -->
<g id="edge14" class="edge">
<title>N6&#45;&#45;N15</title>
<path fill="none" stroke="#000000" d="M2848.2249,-2612.2761C2888.9499,-2682.1561 3043.539,-2947.4153 3084.466,-3017.6418"/>
</g>
<!-- N11&#45;&#45;N23 -->
<g id="edge22" class="edge">
<title>N11&#45;&#45;N23</title>
<path fill="none" stroke="#000000" d="M4075.9284,-2006.7922C3735.6978,-2006.7922 395.5324,-2006.7922 55.5518,-2006.7922"/>
</g>
<!-- N11&#45;&#45;N26 -->
<g id="edge25" class="edge">
<title>N11&#45;&#45;N26</title>
<path fill="none" stroke="#000000" d="M4091.2678,-1990.6108C3968.5849,-1832.9333 2988.0126,-572.6579 2864.9702,-414.5184"/>
</g>
<!-- N11&#45;&#45;N25 -->
<g id="edge24" class="edge">
<title>N11&#45;&#45;N25</title>
<path fill="none" stroke="#000000" d="M4107.915,-1988.6839C4149.8601,-1801.468 4503.7652,-221.8628 4545.4376,-35.8637"/>
</g>
<!-- N11&#45;&#45;N24 -->
<g id="edge23" class="edge">
<title>N11&#45;&#45;N24</title>
<path fill="none" stroke="#000000" d="M4125.8667,-1995.6467C4318.0316,-1898.3324 5708.297,-1194.2878 5900.1639,-1097.1245"/>
</g>
<!-- N11&#45;&#45;N27 -->
<g id="edge26" class="edge">
<title>N11&#45;&#45;N27</title>
<path fill="none" stroke="#000000" d="M4127.1238,-2016.9836C4326.7647,-2104.4344 5748.6395,-2727.2737 5947.6036,-2814.4282"/>
</g>
<!-- N12&#45;&#45;N20 -->
<g id="edge19" class="edge">
<title>N12&#45;&#45;N20</title>
<path fill="none" stroke="#000000" d="M2569.2766,-2180.2254C2562.7791,-2226.7605 2545.5756,-2349.9712 2539.1034,-2396.3253"/>
</g>
<!-- N12&#45;&#45;N22 -->
<g id="edge21" class="edge">
<title>N12&#45;&#45;N22</title>
<path fill="none" stroke="#000000" d="M2551.4039,-2174.6406C2509.9594,-2200.1381 2416.3696,-2257.7165 2375.1038,-2283.1041"/>
</g>
<!-- N12&#45;&#45;N21 -->
<g id="edge20" class="edge">
<title>N12&#45;&#45;N21</title>
<path fill="none" stroke="#000000" d="M2546.9256,-2153.5915C2500.6238,-2137.784 2401.7554,-2104.0301 2355.5563,-2088.2576"/>
</g>
<!-- N12&#45;&#45;N17 -->
<g id="edge16" class="edge">
<title>N12&#45;&#45;N17</title>
<path fill="none" stroke="#000000" d="M2565.1904,-2144.5699C2548.5443,-2100.5157 2505.0816,-1985.4907 2488.4251,-1941.4089"/>
</g>
<!-- N12&#45;&#45;N19 -->
<g id="edge18" class="edge">
<title>N12&#45;&#45;N19</title>
<path fill="none" stroke="#000000" d="M2581.5155,-2145.1053C2605.0385,-2103.9511 2664.8845,-1999.2483 2688.4414,-1958.0346"/>
</g>
<!-- N18 -->
<g id="node53" class="node">
<title>N18</title>
<ellipse fill="none" stroke="#000000" cx="2812.8104" cy="-2244.3652" rx="27.8306" ry="18"/>
<text text-anchor="middle" x="2812.8104" y="-2240.1652" font-family="Times,serif" font-size="14.00" fill="#000000">N18</text>
</g>
<!-- N12&#45;&#45;N18 -->
<g id="edge17" class="edge">
<title>N12&#45;&#45;N18</title>
<path fill="none" stroke="#000000" d="M2596.6929,-2170.5822C2642.9947,-2186.3897 2741.863,-2220.1436 2788.0622,-2235.9161"/>
</g>
<!-- N13&#45;&#45;N45 -->
<g id="edge44" class="edge">
<title>N13&#45;&#45;N45</title>
<path fill="none" stroke="#000000" d="M3289.5988,-2423.9046C3255.3189,-2423.7102 3197.2761,-2423.3809 3162.8763,-2423.1858"/>
</g>
<!-- N13&#45;&#45;N46 -->
<g id="edge45" class="edge">
<title>N13&#45;&#45;N46</title>
<path fill="none" stroke="#000000" d="M3300.2487,-2409.5894C3273.5615,-2386.937 3222.2125,-2343.3513 3195.4397,-2320.6262"/>
</g>
<!-- N13&#45;&#45;N47 -->
<g id="edge46" class="edge">
<title>N13&#45;&#45;N47</title>
<path fill="none" stroke="#000000" d="M3314.2478,-2406.1652C3308.3876,-2371.7916 3295.6175,-2296.8864 3289.7313,-2262.3605"/>
</g>
<!-- N13&#45;&#45;N48 -->
<g id="edge47" class="edge">
<title>N13&#45;&#45;N48</title>
<path fill="none" stroke="#000000" d="M3327.1538,-2407.2138C3344.7853,-2377.0714 3381.5422,-2314.2323 3399.3231,-2283.8344"/>
</g>
<!-- N13&#45;&#45;N49 -->
<g id="edge48" class="edge">
<title>N13&#45;&#45;N49</title>
<path fill="none" stroke="#000000" d="M3341.9047,-2415.2636C3374.6449,-2403.5571 3432.178,-2382.9855 3464.7541,-2371.3376"/>
</g>
<!-- N13&#45;&#45;N50 -->
<g id="edge49" class="edge">
<title>N13&#45;&#45;N50</title>
<path fill="none" stroke="#000000" d="M3341.4406,-2433.004C3373.9446,-2445.0437 3431.4515,-2466.3447 3464.034,-2478.4134"/>
</g>
<!-- N13&#45;&#45;N51 -->
<g id="edge50" class="edge">
<title>N13&#45;&#45;N51</title>
<path fill="none" stroke="#000000" d="M3326.9621,-2441.0203C3344.2505,-2471.3608 3380.2922,-2534.6128 3397.7271,-2565.2104"/>
</g>
<!-- N13&#45;&#45;N52 -->
<g id="edge51" class="edge">
<title>N13&#45;&#45;N52</title>
<path fill="none" stroke="#000000" d="M3313.9845,-2442.2541C3307.7029,-2476.7342 3294.1347,-2551.2105 3287.884,-2585.5207"/>
</g>
<!-- N13&#45;&#45;N53 -->
<g id="edge52" class="edge">
<title>N13&#45;&#45;N53</title>
<path fill="none" stroke="#000000" d="M3300.0857,-2438.3397C3273.1432,-2460.6879 3221.3031,-2503.6883 3194.2742,-2526.1082"/>
</g>
<!-- N15&#45;&#45;N28 -->
<g id="edge27" class="edge">
<title>N15&#45;&#45;N28</title>
<path fill="none" stroke="#000000" d="M3091.1727,-3016.589C3084.9464,-2982.0989 3071.4978,-2907.6009 3065.3022,-2873.2807"/>
</g>
<!-- N15&#45;&#45;N35 -->
<g id="edge34" class="edge">
<title>N15&#45;&#45;N35</title>
<path fill="none" stroke="#000000" d="M3104.1482,-3017.8436C3121.4853,-2987.5309 3157.6285,-2924.3369 3175.1125,-2893.7673"/>
</g>
<!-- N15&#45;&#45;N34 -->
<g id="edge33" class="edge">
<title>N15&#45;&#45;N34</title>
<path fill="none" stroke="#000000" d="M3118.6138,-3025.8832C3151.1371,-3013.8957 3208.6782,-2992.6871 3241.28,-2980.6706"/>
</g>
<!-- N15&#45;&#45;N32 -->
<g id="edge31" class="edge">
<title>N15&#45;&#45;N32</title>
<path fill="none" stroke="#000000" d="M3118.6854,-3043.4935C3151.3052,-3055.2161 3209.0168,-3075.956 3241.7153,-3087.7069"/>
</g>
<!-- N15&#45;&#45;N36 -->
<g id="edge35" class="edge">
<title>N15&#45;&#45;N36</title>
<path fill="none" stroke="#000000" d="M3104.2857,-3051.6504C3121.8687,-3081.8211 3158.5247,-3144.7191 3176.2568,-3175.1455"/>
</g>
<!-- N15&#45;&#45;N31 -->
<g id="edge30" class="edge">
<title>N15&#45;&#45;N31</title>
<path fill="none" stroke="#000000" d="M3091.378,-3052.6783C3085.4626,-3087.0425 3072.5722,-3161.927 3066.6306,-3196.4434"/>
</g>
<!-- N15&#45;&#45;N30 -->
<g id="edge29" class="edge">
<title>N15&#45;&#45;N30</title>
<path fill="none" stroke="#000000" d="M3077.3844,-3049.2317C3050.6609,-3071.8412 2999.242,-3115.3443 2972.4327,-3138.0264"/>
</g>
<!-- N15&#45;&#45;N33 -->
<g id="edge32" class="edge">
<title>N15&#45;&#45;N33</title>
<path fill="none" stroke="#000000" d="M3066.7574,-3034.8994C3032.4773,-3035.0388 2974.4341,-3035.2748 2940.034,-3035.4147"/>
</g>
<!-- N15&#45;&#45;N29 -->
<g id="edge28" class="edge">
<title>N15&#45;&#45;N29</title>
<path fill="none" stroke="#000000" d="M3077.2675,-3020.4811C3050.361,-2998.0897 2998.5899,-2955.0061 2971.5971,-2932.5428"/>
</g>
<!-- N18&#45;&#45;N39 -->
<g id="edge38" class="edge">
<title>N18&#45;&#45;N39</title>
<path fill="none" stroke="#000000" d="M2801.0326,-2227.638C2787.3528,-2208.2098 2764.9203,-2176.3506 2751.253,-2156.9401"/>
</g>
<!-- N18&#45;&#45;N41 -->
<g id="edge40" class="edge">
<title>N18&#45;&#45;N41</title>
<path fill="none" stroke="#000000" d="M2825.0794,-2227.9948C2839.3294,-2208.9809 2862.6973,-2177.8013 2876.9343,-2158.8048"/>
</g>
<!-- N18&#45;&#45;N38 -->
<g id="edge37" class="edge">
<title>N18&#45;&#45;N38</title>
<path fill="none" stroke="#000000" d="M2837.4863,-2252.7896C2858.2807,-2259.8888 2887.8831,-2269.9952 2908.6682,-2277.0912"/>
</g>
<!-- N18&#45;&#45;N37 -->
<g id="edge36" class="edge">
<title>N18&#45;&#45;N37</title>
<path fill="none" stroke="#000000" d="M2812.5398,-2262.6064C2812.1807,-2286.8091 2811.5505,-2329.2878 2811.1916,-2353.4734"/>
</g>
<!-- N18&#45;&#45;N40 -->
<g id="edge39" class="edge">
<title>N18&#45;&#45;N40</title>
<path fill="none" stroke="#000000" d="M2787.6007,-2252.1448C2766.7195,-2258.5886 2737.1921,-2267.7007 2716.3198,-2274.1418"/>
</g>
</g>
</svg>
