<?xml version="1.0" encoding="UTF-8" standalone="no"?>
<!DOCTYPE svg PUBLIC "-//W3C//DTD SVG 1.1//EN"
 "http://www.w3.org/Graphics/SVG/1.1/DTD/svg11.dtd">
<!-- Generated by graphviz version 2.40.1 (20161225.0304)
 -->
<!-- Title: test_graph Pages: 1 -->
<svg width="2399pt" height="927pt"
 viewBox="0.00 0.00 2398.93 926.59" xmlns="http://www.w3.org/2000/svg" xmlns:xlink="http://www.w3.org/1999/xlink">
<g id="graph0" class="graph" transform="scale(1 1) rotate(0) translate(4 922.5901)">
<title>test_graph</title>
<polygon fill="#ffffff" stroke="transparent" points="-4,4 -4,-922.5901 2394.9318,-922.5901 2394.9318,4 -4,4"/>
<!-- N24 -->
<g id="node1" class="node">
<title>N24</title>
<ellipse fill="none" stroke="#000000" cx="1413.5094" cy="-218.2595" rx="27.8306" ry="18"/>
<text text-anchor="middle" x="1413.5094" y="-214.0595" font-family="Times,serif" font-size="14.00" fill="#000000">N24</text>
</g>
<!-- N25 -->
<g id="node5" class="node">
<title>N25</title>
<ellipse fill="none" stroke="#000000" cx="1330.4094" cy="-122.357" rx="27.8306" ry="18"/>
<text text-anchor="middle" x="1330.4094" y="-118.157" font-family="Times,serif" font-size="14.00" fill="#000000">N25</text>
</g>
<!-- N24&#45;&#45;N25 -->
<g id="edge26" class="edge">
<title>N24&#45;&#45;N25</title>
<path fill="none" stroke="#000000" d="M1399.7871,-202.4232C1384.39,-184.654 1359.5575,-155.9957 1344.152,-138.2168"/>
</g>
<!-- N23 -->
<g id="node17" class="node">
<title>N23</title>
<ellipse fill="none" stroke="#000000" cx="1466.2245" cy="-333.6894" rx="27.8306" ry="18"/>
<text text-anchor="middle" x="1466.2245" y="-329.4894" font-family="Times,serif" font-size="14.00" fill="#000000">N23</text>
</g>
<!-- N24&#45;&#45;N23 -->
<g id="edge28" class="edge">
<title>N24&#45;&#45;N23</title>
<path fill="none" stroke="#000000" d="M1421.5157,-235.7908C1431.4814,-257.6126 1448.3954,-294.6492 1458.3156,-316.3713"/>
</g>
<!-- N0 -->
<g id="node2" class="node">
<title>N0</title>
<ellipse fill="none" stroke="#000000" cx="1330.4094" cy="-796.2331" rx="27" ry="18"/>
<text text-anchor="middle" x="1330.4094" y="-792.0331" font-family="Times,serif" font-size="14.00" fill="#000000">N0</text>
</g>
<!-- N21 -->
<g id="node27" class="node">
<title>N21</title>
<ellipse fill="none" stroke="#000000" cx="1223.6566" cy="-864.839" rx="27.8306" ry="18"/>
<text text-anchor="middle" x="1223.6566" y="-860.639" font-family="Times,serif" font-size="14.00" fill="#000000">N21</text>
</g>
<!-- N0&#45;&#45;N21 -->
<g id="edge34" class="edge">
<title>N0&#45;&#45;N21</title>
<path fill="none" stroke="#000000" d="M1310.8293,-808.8165C1291.688,-821.1178 1262.6963,-839.7497 1243.4741,-852.1031"/>
</g>
<!-- N10 -->
<g id="node34" class="node">
<title>N10</title>
<ellipse fill="none" stroke="#000000" cx="1413.5094" cy="-700.3306" rx="27.8306" ry="18"/>
<text text-anchor="middle" x="1413.5094" y="-696.1306" font-family="Times,serif" font-size="14.00" fill="#000000">N10</text>
</g>
<!-- N0&#45;&#45;N10 -->
<g id="edge27" class="edge">
<title>N0&#45;&#45;N10</title>
<path fill="none" stroke="#000000" d="M1344.1317,-780.3968C1359.5288,-762.6276 1384.3613,-733.9693 1399.7668,-716.1904"/>
</g>
<!-- N1 -->
<g id="node3" class="node">
<title>N1</title>
<ellipse fill="none" stroke="#000000" cx="1101.8995" cy="-900.5901" rx="27" ry="18"/>
<text text-anchor="middle" x="1101.8995" y="-896.3901" font-family="Times,serif" font-size="14.00" fill="#000000">N1</text>
</g>
<!-- N1&#45;&#45;N21 -->
<g id="edge13" class="edge">
<title>N1&#45;&#45;N21</title>
<path fill="none" stroke="#000000" d="M1126.8327,-893.2691C1147.7047,-887.1405 1177.3592,-878.4331 1198.3383,-872.2731"/>
</g>
<!-- N9 -->
<g id="node30" class="node">
<title>N9</title>
<ellipse fill="none" stroke="#000000" cx="975.0022" cy="-900.5901" rx="27" ry="18"/>
<text text-anchor="middle" x="975.0022" y="-896.3901" font-family="Times,serif" font-size="14.00" fill="#000000">N9</text>
</g>
<!-- N1&#45;&#45;N9 -->
<g id="edge39" class="edge">
<title>N1&#45;&#45;N9</title>
<path fill="none" stroke="#000000" d="M1074.6768,-900.5901C1053.2662,-900.5901 1023.5789,-900.5901 1002.1798,-900.5901"/>
</g>
<!-- N16 -->
<g id="node4" class="node">
<title>N16</title>
<ellipse fill="none" stroke="#000000" cx="592.6179" cy="-459.295" rx="27.8306" ry="18"/>
<text text-anchor="middle" x="592.6179" y="-455.095" font-family="Times,serif" font-size="14.00" fill="#000000">N16</text>
</g>
<!-- N2 -->
<g id="node11" class="node">
<title>N2</title>
<ellipse fill="none" stroke="#000000" cx="610.6772" cy="-333.6894" rx="27" ry="18"/>
<text text-anchor="middle" x="610.6772" y="-329.4894" font-family="Times,serif" font-size="14.00" fill="#000000">N2</text>
</g>
<!-- N16&#45;&#45;N2 -->
<g id="edge21" class="edge">
<title>N16&#45;&#45;N2</title>
<path fill="none" stroke="#000000" d="M595.2053,-441.2988C598.6384,-417.4212 604.6639,-375.513 608.0946,-351.6522"/>
</g>
<!-- N34 -->
<g id="node16" class="node">
<title>N34</title>
<ellipse fill="none" stroke="#000000" cx="610.6772" cy="-584.9007" rx="27.8306" ry="18"/>
<text text-anchor="middle" x="610.6772" y="-580.7007" font-family="Times,serif" font-size="14.00" fill="#000000">N34</text>
</g>
<!-- N16&#45;&#45;N34 -->
<g id="edge20" class="edge">
<title>N16&#45;&#45;N34</title>
<path fill="none" stroke="#000000" d="M595.2053,-477.2913C598.6384,-501.1689 604.6639,-543.0771 608.0946,-566.9379"/>
</g>
<!-- N26 -->
<g id="node12" class="node">
<title>N26</title>
<ellipse fill="none" stroke="#000000" cx="1223.6566" cy="-53.7511" rx="27.8306" ry="18"/>
<text text-anchor="middle" x="1223.6566" y="-49.5511" font-family="Times,serif" font-size="14.00" fill="#000000">N26</text>
</g>
<!-- N25&#45;&#45;N26 -->
<g id="edge35" class="edge">
<title>N25&#45;&#45;N26</title>
<path fill="none" stroke="#000000" d="M1310.33,-109.4527C1291.2443,-97.1871 1262.7018,-78.844 1243.6459,-66.5975"/>
</g>
<!-- N22 -->
<g id="node6" class="node">
<title>N22</title>
<ellipse fill="none" stroke="#000000" cx="1484.2838" cy="-459.295" rx="27.8306" ry="18"/>
<text text-anchor="middle" x="1484.2838" y="-455.095" font-family="Times,serif" font-size="14.00" fill="#000000">N22</text>
</g>
<!-- N28 -->
<g id="node8" class="node">
<title>N28</title>
<ellipse fill="none" stroke="#000000" cx="1466.2245" cy="-584.9007" rx="27.8306" ry="18"/>
<text text-anchor="middle" x="1466.2245" y="-580.7007" font-family="Times,serif" font-size="14.00" fill="#000000">N28</text>
</g>
<!-- N22&#45;&#45;N28 -->
<g id="edge8" class="edge">
<title>N22&#45;&#45;N28</title>
<path fill="none" stroke="#000000" d="M1481.6964,-477.2913C1478.2633,-501.1689 1472.2378,-543.0771 1468.8071,-566.9379"/>
</g>
<!-- N22&#45;&#45;N23 -->
<g id="edge7" class="edge">
<title>N22&#45;&#45;N23</title>
<path fill="none" stroke="#000000" d="M1481.6964,-441.2988C1478.2633,-417.4212 1472.2378,-375.513 1468.8071,-351.6522"/>
</g>
<!-- N29 -->
<g id="node29" class="node">
<title>N29</title>
<ellipse fill="none" stroke="#000000" cx="1583.9486" cy="-459.295" rx="27.8306" ry="18"/>
<text text-anchor="middle" x="1583.9486" y="-455.095" font-family="Times,serif" font-size="14.00" fill="#000000">N29</text>
</g>
<!-- N22&#45;&#45;N29 -->
<g id="edge3" class="edge">
<title>N22&#45;&#45;N29</title>
<path fill="none" stroke="#000000" d="M1512.046,-459.295C1525.7543,-459.295 1542.2548,-459.295 1555.9897,-459.295"/>
</g>
<!-- N4 -->
<g id="node7" class="node">
<title>N4</title>
<ellipse fill="none" stroke="#000000" cx="1965.2726" cy="-459.295" rx="27" ry="18"/>
<text text-anchor="middle" x="1965.2726" y="-455.095" font-family="Times,serif" font-size="14.00" fill="#000000">N4</text>
</g>
<!-- N14 -->
<g id="node19" class="node">
<title>N14</title>
<ellipse fill="none" stroke="#000000" cx="2091.9374" cy="-459.295" rx="27.8306" ry="18"/>
<text text-anchor="middle" x="2091.9374" y="-455.095" font-family="Times,serif" font-size="14.00" fill="#000000">N14</text>
</g>
<!-- N4&#45;&#45;N14 -->
<g id="edge19" class="edge">
<title>N4&#45;&#45;N14</title>
<path fill="none" stroke="#000000" d="M1992.4454,-459.295C2013.5261,-459.295 2042.6449,-459.295 2063.9332,-459.295"/>
</g>
<!-- N30 -->
<g id="node25" class="node">
<title>N30</title>
<ellipse fill="none" stroke="#000000" cx="1838.6078" cy="-459.295" rx="27.8306" ry="18"/>
<text text-anchor="middle" x="1838.6078" y="-455.095" font-family="Times,serif" font-size="14.00" fill="#000000">N30</text>
</g>
<!-- N4&#45;&#45;N30 -->
<g id="edge37" class="edge">
<title>N4&#45;&#45;N30</title>
<path fill="none" stroke="#000000" d="M1938.0999,-459.295C1917.0192,-459.295 1887.9003,-459.295 1866.6121,-459.295"/>
</g>
<!-- N28&#45;&#45;N10 -->
<g id="edge23" class="edge">
<title>N28&#45;&#45;N10</title>
<path fill="none" stroke="#000000" d="M1458.2182,-602.432C1448.2525,-624.2538 1431.3385,-661.2904 1421.4183,-683.0125"/>
</g>
<!-- N17 -->
<g id="node9" class="node">
<title>N17</title>
<ellipse fill="none" stroke="#000000" cx="515.0496" cy="-305.6106" rx="27.8306" ry="18"/>
<text text-anchor="middle" x="515.0496" y="-301.4106" font-family="Times,serif" font-size="14.00" fill="#000000">N17</text>
</g>
<!-- N17&#45;&#45;N2 -->
<g id="edge1" class="edge">
<title>N17&#45;&#45;N2</title>
<path fill="none" stroke="#000000" d="M540.425,-313.0614C554.4794,-317.1882 571.8789,-322.2972 585.8456,-326.3982"/>
</g>
<!-- N32 -->
<g id="node15" class="node">
<title>N32</title>
<ellipse fill="none" stroke="#000000" cx="392.8777" cy="-269.7377" rx="27.8306" ry="18"/>
<text text-anchor="middle" x="392.8777" y="-265.5377" font-family="Times,serif" font-size="14.00" fill="#000000">N32</text>
</g>
<!-- N17&#45;&#45;N32 -->
<g id="edge5" class="edge">
<title>N17&#45;&#45;N32</title>
<path fill="none" stroke="#000000" d="M489.7355,-298.1777C468.7678,-292.021 439.1181,-283.3151 418.1594,-277.161"/>
</g>
<!-- N19 -->
<g id="node10" class="node">
<title>N19</title>
<ellipse fill="none" stroke="#000000" cx="746.4923" cy="-122.357" rx="27.8306" ry="18"/>
<text text-anchor="middle" x="746.4923" y="-118.157" font-family="Times,serif" font-size="14.00" fill="#000000">N19</text>
</g>
<!-- N11 -->
<g id="node31" class="node">
<title>N11</title>
<ellipse fill="none" stroke="#000000" cx="853.2451" cy="-53.7511" rx="27.8306" ry="18"/>
<text text-anchor="middle" x="853.2451" y="-49.5511" font-family="Times,serif" font-size="14.00" fill="#000000">N11</text>
</g>
<!-- N19&#45;&#45;N11 -->
<g id="edge12" class="edge">
<title>N19&#45;&#45;N11</title>
<path fill="none" stroke="#000000" d="M766.5717,-109.4527C785.6574,-97.1871 814.1999,-78.844 833.2558,-66.5975"/>
</g>
<!-- N15 -->
<g id="node35" class="node">
<title>N15</title>
<ellipse fill="none" stroke="#000000" cx="663.3923" cy="-218.2595" rx="27.8306" ry="18"/>
<text text-anchor="middle" x="663.3923" y="-214.0595" font-family="Times,serif" font-size="14.00" fill="#000000">N15</text>
</g>
<!-- N19&#45;&#45;N15 -->
<g id="edge17" class="edge">
<title>N19&#45;&#45;N15</title>
<path fill="none" stroke="#000000" d="M732.7701,-138.1933C717.3729,-155.9625 692.5404,-184.6208 677.135,-202.3997"/>
</g>
<!-- N5 -->
<g id="node26" class="node">
<title>N5</title>
<ellipse fill="none" stroke="#000000" cx="975.0022" cy="-18" rx="27" ry="18"/>
<text text-anchor="middle" x="975.0022" y="-13.8" font-family="Times,serif" font-size="14.00" fill="#000000">N5</text>
</g>
<!-- N2&#45;&#45;N5 -->
<g id="edge40" class="edge">
<title>N2&#45;&#45;N5</title>
<path fill="none" stroke="#000000" d="M627.2782,-319.3045C687.9713,-266.7137 897.4516,-85.198 958.3037,-32.4693"/>
</g>
<!-- N3 -->
<g id="node24" class="node">
<title>N3</title>
<ellipse fill="none" stroke="#000000" cx="1101.8995" cy="-18" rx="27" ry="18"/>
<text text-anchor="middle" x="1101.8995" y="-13.8" font-family="Times,serif" font-size="14.00" fill="#000000">N3</text>
</g>
<!-- N26&#45;&#45;N3 -->
<g id="edge6" class="edge">
<title>N26&#45;&#45;N3</title>
<path fill="none" stroke="#000000" d="M1198.4284,-46.3434C1177.3926,-40.1668 1147.5885,-31.4155 1126.6787,-25.2758"/>
</g>
<!-- N31 -->
<g id="node13" class="node">
<title>N31</title>
<ellipse fill="none" stroke="#000000" cx="853.2451" cy="-864.839" rx="27.8306" ry="18"/>
<text text-anchor="middle" x="853.2451" y="-860.639" font-family="Times,serif" font-size="14.00" fill="#000000">N31</text>
</g>
<!-- N31&#45;&#45;N9 -->
<g id="edge18" class="edge">
<title>N31&#45;&#45;N9</title>
<path fill="none" stroke="#000000" d="M878.4733,-872.2466C899.5091,-878.4233 929.3132,-887.1746 950.223,-893.3143"/>
</g>
<!-- N6 -->
<g id="node32" class="node">
<title>N6</title>
<ellipse fill="none" stroke="#000000" cx="746.4923" cy="-796.2331" rx="27" ry="18"/>
<text text-anchor="middle" x="746.4923" y="-792.0331" font-family="Times,serif" font-size="14.00" fill="#000000">N6</text>
</g>
<!-- N31&#45;&#45;N6 -->
<g id="edge38" class="edge">
<title>N31&#45;&#45;N6</title>
<path fill="none" stroke="#000000" d="M833.1658,-851.9348C813.9592,-839.5915 785.1759,-821.0936 766.121,-808.8477"/>
</g>
<!-- N7 -->
<g id="node14" class="node">
<title>N7</title>
<ellipse fill="none" stroke="#000000" cx="27" cy="-162.3063" rx="27" ry="18"/>
<text text-anchor="middle" x="27" y="-158.1063" font-family="Times,serif" font-size="14.00" fill="#000000">N7</text>
</g>
<!-- N7&#45;&#45;N7 -->
<g id="edge24" class="edge">
<title>N7&#45;&#45;N7</title>
<path fill="none" stroke="#000000" d="M52.4435,-168.997C63.0278,-169.4584 72,-167.2282 72,-162.3063 72,-157.3844 63.0278,-155.1542 52.4435,-155.6156"/>
</g>
<!-- N20 -->
<g id="node33" class="node">
<title>N20</title>
<ellipse fill="none" stroke="#000000" cx="148.534" cy="-197.9919" rx="27.8306" ry="18"/>
<text text-anchor="middle" x="148.534" y="-193.7919" font-family="Times,serif" font-size="14.00" fill="#000000">N20</text>
</g>
<!-- N7&#45;&#45;N20 -->
<g id="edge9" class="edge">
<title>N7&#45;&#45;N20</title>
<path fill="none" stroke="#000000" d="M51.8875,-169.6139C72.7213,-175.7313 102.3214,-184.4226 123.2621,-190.5714"/>
</g>
<!-- N18 -->
<g id="node20" class="node">
<title>N18</title>
<ellipse fill="none" stroke="#000000" cx="270.7058" cy="-233.8648" rx="27.8306" ry="18"/>
<text text-anchor="middle" x="270.7058" y="-229.6648" font-family="Times,serif" font-size="14.00" fill="#000000">N18</text>
</g>
<!-- N32&#45;&#45;N18 -->
<g id="edge14" class="edge">
<title>N32&#45;&#45;N18</title>
<path fill="none" stroke="#000000" d="M367.5636,-262.3048C346.5959,-256.1481 316.9463,-247.4422 295.9875,-241.2881"/>
</g>
<!-- N13 -->
<g id="node22" class="node">
<title>N13</title>
<ellipse fill="none" stroke="#000000" cx="663.3923" cy="-700.3306" rx="27.8306" ry="18"/>
<text text-anchor="middle" x="663.3923" y="-696.1306" font-family="Times,serif" font-size="14.00" fill="#000000">N13</text>
</g>
<!-- N34&#45;&#45;N13 -->
<g id="edge32" class="edge">
<title>N34&#45;&#45;N13</title>
<path fill="none" stroke="#000000" d="M618.6835,-602.432C628.6492,-624.2538 645.5632,-661.2904 655.4834,-683.0125"/>
</g>
<!-- N34&#45;&#45;N15 -->
<g id="edge22" class="edge">
<title>N34&#45;&#45;N15</title>
<path fill="none" stroke="#000000" d="M613.2555,-566.9687C622.1854,-504.8599 651.7392,-299.3087 660.7567,-236.5903"/>
</g>
<!-- N27 -->
<g id="node18" class="node">
<title>N27</title>
<ellipse fill="none" stroke="#000000" cx="1711.2782" cy="-459.295" rx="27.8306" ry="18"/>
<text text-anchor="middle" x="1711.2782" y="-455.095" font-family="Times,serif" font-size="14.00" fill="#000000">N27</text>
</g>
<!-- N27&#45;&#45;N30 -->
<g id="edge31" class="edge">
<title>N27&#45;&#45;N30</title>
<path fill="none" stroke="#000000" d="M1739.2213,-459.295C1760.451,-459.295 1789.5163,-459.295 1810.73,-459.295"/>
</g>
<!-- N27&#45;&#45;N29 -->
<g id="edge15" class="edge">
<title>N27&#45;&#45;N29</title>
<path fill="none" stroke="#000000" d="M1683.3352,-459.295C1662.1054,-459.295 1633.0402,-459.295 1611.8265,-459.295"/>
</g>
<!-- N14&#45;&#45;N14 -->
<g id="edge2" class="edge">
<title>N14&#45;&#45;N14</title>
<path fill="none" stroke="#000000" d="M2117.7568,-465.9857C2128.4975,-466.4471 2137.6022,-464.2169 2137.6022,-459.295 2137.6022,-454.3732 2128.4975,-452.1429 2117.7568,-452.6044"/>
</g>
<!-- N12 -->
<g id="node21" class="node">
<title>N12</title>
<ellipse fill="none" stroke="#000000" cx="2219.267" cy="-459.295" rx="27.8306" ry="18"/>
<text text-anchor="middle" x="2219.267" y="-455.095" font-family="Times,serif" font-size="14.00" fill="#000000">N12</text>
</g>
<!-- N14&#45;&#45;N12 -->
<g id="edge36" class="edge">
<title>N14&#45;&#45;N12</title>
<path fill="none" stroke="#000000" d="M2119.8805,-459.295C2141.1103,-459.295 2170.1755,-459.295 2191.3892,-459.295"/>
</g>
<!-- N18&#45;&#45;N20 -->
<g id="edge30" class="edge">
<title>N18&#45;&#45;N20</title>
<path fill="none" stroke="#000000" d="M245.3918,-226.4319C224.424,-220.2752 194.7744,-211.5693 173.8156,-205.4152"/>
</g>
<!-- N8 -->
<g id="node28" class="node">
<title>N8</title>
<ellipse fill="none" stroke="#000000" cx="2345.9318" cy="-459.295" rx="27" ry="18"/>
<text text-anchor="middle" x="2345.9318" y="-455.095" font-family="Times,serif" font-size="14.00" fill="#000000">N8</text>
</g>
<!-- N12&#45;&#45;N8 -->
<g id="edge4" class="edge">
<title>N12&#45;&#45;N8</title>
<path fill="none" stroke="#000000" d="M2247.0642,-459.295C2268.3288,-459.295 2297.4958,-459.295 2318.6351,-459.295"/>
</g>
<!-- N13&#45;&#45;N6 -->
<g id="edge29" class="edge">
<title>N13&#45;&#45;N6</title>
<path fill="none" stroke="#000000" d="M677.1146,-716.1669C692.5117,-733.9361 717.3442,-762.5944 732.7497,-780.3732"/>
</g>
<!-- N33 -->
<g id="node23" class="node">
<title>N33</title>
<ellipse fill="none" stroke="#000000" cx="1178.4509" cy="-478.295" rx="27.8306" ry="18"/>
<text text-anchor="middle" x="1178.4509" y="-474.095" font-family="Times,serif" font-size="14.00" fill="#000000">N33</text>
</g>
<!-- N33&#45;&#45;N33 -->
<g id="edge25" class="edge">
<title>N33&#45;&#45;N33</title>
<path fill="none" stroke="#000000" d="M1204.2702,-484.9857C1215.0109,-485.4471 1224.1157,-483.2169 1224.1157,-478.295 1224.1157,-473.3732 1215.0109,-471.1429 1204.2702,-471.6044"/>
</g>
<!-- N3&#45;&#45;N5 -->
<g id="edge10" class="edge">
<title>N3&#45;&#45;N5</title>
<path fill="none" stroke="#000000" d="M1074.6768,-18C1053.2662,-18 1023.5789,-18 1002.1798,-18"/>
</g>
<!-- N5&#45;&#45;N11 -->
<g id="edge33" class="edge">
<title>N5&#45;&#45;N11</title>
<path fill="none" stroke="#000000" d="M950.069,-25.321C929.197,-31.4496 899.5425,-40.157 878.5634,-46.317"/>
</g>
<!-- N8&#45;&#45;N8 -->
<g id="edge16" class="edge">
<title>N8&#45;&#45;N8</title>
<path fill="none" stroke="#000000" d="M2371.3753,-465.9857C2381.9597,-466.4471 2390.9318,-464.2169 2390.9318,-459.295 2390.9318,-454.3732 2381.9597,-452.1429 2371.3753,-452.6044"/>
</g>
<!-- N20&#45;&#45;N20 -->
<g id="edge11" class="edge">
<title>N20&#45;&#45;N20</title>
<path fill="none" stroke="#000000" d="M174.3533,-204.6826C185.0941,-205.144 194.1988,-202.9138 194.1988,-197.9919 194.1988,-193.07 185.0941,-190.8398 174.3533,-191.3012"/>
</g>
</g>
</svg>
