<?xml version="1.0" encoding="UTF-8" standalone="no"?>
<!DOCTYPE svg PUBLIC "-//W3C//DTD SVG 1.1//EN"
 "http://www.w3.org/Graphics/SVG/1.1/DTD/svg11.dtd">
<!-- Generated by graphviz version 2.40.1 (20161225.0304)
 -->
<!-- Title: test_graph Pages: 1 -->
<svg width="2175pt" height="332pt"
 viewBox="0.00 0.00 2174.66 332.00" xmlns="http://www.w3.org/2000/svg" xmlns:xlink="http://www.w3.org/1999/xlink">
<g id="graph0" class="graph" transform="scale(1 1) rotate(0) translate(4 328)">
<title>test_graph</title>
<polygon fill="#ffffff" stroke="transparent" points="-4,4 -4,-328 2170.6648,-328 2170.6648,4 -4,4"/>
<!-- N23 -->
<g id="node1" class="node">
<title>N23</title>
<ellipse fill="none" stroke="#000000" cx="1847" cy="-162" rx="27.8306" ry="18"/>
<text text-anchor="middle" x="1847" y="-157.8" font-family="Times,serif" font-size="14.00" fill="#000000">N23</text>
</g>
<!-- N9 -->
<g id="node2" class="node">
<title>N9</title>
<ellipse fill="none" stroke="#000000" cx="27" cy="-234" rx="27" ry="18"/>
<text text-anchor="middle" x="27" y="-229.8" font-family="Times,serif" font-size="14.00" fill="#000000">N9</text>
</g>
<!-- N10 -->
<g id="node3" class="node">
<title>N10</title>
<ellipse fill="none" stroke="#000000" cx="100" cy="-234" rx="27.8306" ry="18"/>
<text text-anchor="middle" x="100" y="-229.8" font-family="Times,serif" font-size="14.00" fill="#000000">N10</text>
</g>
<!-- N43 -->
<g id="node4" class="node">
<title>N43</title>
<ellipse fill="none" stroke="#000000" cx="387" cy="-162" rx="27.8306" ry="18"/>
<text text-anchor="middle" x="387" y="-157.8" font-family="Times,serif" font-size="14.00" fill="#000000">N43</text>
</g>
<!-- N4 -->
<g id="node5" class="node">
<title>N4</title>
<ellipse fill="none" stroke="#000000" cx="173" cy="-234" rx="27" ry="18"/>
<text text-anchor="middle" x="173" y="-229.8" font-family="Times,serif" font-size="14.00" fill="#000000">N4</text>
</g>
<!-- N16 -->
<g id="node6" class="node">
<title>N16</title>
<ellipse fill="none" stroke="#000000" cx="606" cy="-162" rx="27.8306" ry="18"/>
<text text-anchor="middle" x="606" y="-157.8" font-family="Times,serif" font-size="14.00" fill="#000000">N16</text>
</g>
<!-- N28 -->
<g id="node7" class="node">
<title>N28</title>
<ellipse fill="none" stroke="#000000" cx="1555" cy="-90" rx="27.8306" ry="18"/>
<text text-anchor="middle" x="1555" y="-85.8" font-family="Times,serif" font-size="14.00" fill="#000000">N28</text>
</g>
<!-- N35 -->
<g id="node8" class="node">
<title>N35</title>
<ellipse fill="none" stroke="#000000" cx="1628" cy="-90" rx="27.8306" ry="18"/>
<text text-anchor="middle" x="1628" y="-85.8" font-family="Times,serif" font-size="14.00" fill="#000000">N35</text>
</g>
<!-- N39 -->
<g id="node9" class="node">
<title>N39</title>
<ellipse fill="none" stroke="#000000" cx="679" cy="-18" rx="27.8306" ry="18"/>
<text text-anchor="middle" x="679" y="-13.8" font-family="Times,serif" font-size="14.00" fill="#000000">N39</text>
</g>
<!-- N20 -->
<g id="node10" class="node">
<title>N20</title>
<ellipse fill="none" stroke="#000000" cx="460" cy="-90" rx="27.8306" ry="18"/>
<text text-anchor="middle" x="460" y="-85.8" font-family="Times,serif" font-size="14.00" fill="#000000">N20</text>
</g>
<!-- N41 -->
<g id="node11" class="node">
<title>N41</title>
<ellipse fill="none" stroke="#000000" cx="752" cy="-18" rx="27.8306" ry="18"/>
<text text-anchor="middle" x="752" y="-13.8" font-family="Times,serif" font-size="14.00" fill="#000000">N41</text>
</g>
<!-- N22 -->
<g id="node12" class="node">
<title>N22</title>
<ellipse fill="none" stroke="#000000" cx="533" cy="-90" rx="27.8306" ry="18"/>
<text text-anchor="middle" x="533" y="-85.8" font-family="Times,serif" font-size="14.00" fill="#000000">N22</text>
</g>
<!-- N38 -->
<g id="node13" class="node">
<title>N38</title>
<ellipse fill="none" stroke="#000000" cx="825" cy="-18" rx="27.8306" ry="18"/>
<text text-anchor="middle" x="825" y="-13.8" font-family="Times,serif" font-size="14.00" fill="#000000">N38</text>
</g>
<!-- N14 -->
<g id="node14" class="node">
<title>N14</title>
<ellipse fill="none" stroke="#000000" cx="679" cy="-162" rx="27.8306" ry="18"/>
<text text-anchor="middle" x="679" y="-157.8" font-family="Times,serif" font-size="14.00" fill="#000000">N14</text>
</g>
<!-- N37 -->
<g id="node15" class="node">
<title>N37</title>
<ellipse fill="none" stroke="#000000" cx="898" cy="-18" rx="27.8306" ry="18"/>
<text text-anchor="middle" x="898" y="-13.8" font-family="Times,serif" font-size="14.00" fill="#000000">N37</text>
</g>
<!-- N34 -->
<g id="node16" class="node">
<title>N34</title>
<ellipse fill="none" stroke="#000000" cx="1701" cy="-90" rx="27.8306" ry="18"/>
<text text-anchor="middle" x="1701" y="-85.8" font-family="Times,serif" font-size="14.00" fill="#000000">N34</text>
</g>
<!-- N32 -->
<g id="node17" class="node">
<title>N32</title>
<ellipse fill="none" stroke="#000000" cx="1774" cy="-90" rx="27.8306" ry="18"/>
<text text-anchor="middle" x="1774" y="-85.8" font-family="Times,serif" font-size="14.00" fill="#000000">N32</text>
</g>
<!-- N36 -->
<g id="node18" class="node">
<title>N36</title>
<ellipse fill="none" stroke="#000000" cx="1847" cy="-90" rx="27.8306" ry="18"/>
<text text-anchor="middle" x="1847" y="-85.8" font-family="Times,serif" font-size="14.00" fill="#000000">N36</text>
</g>
<!-- N26 -->
<g id="node19" class="node">
<title>N26</title>
<ellipse fill="none" stroke="#000000" cx="1920" cy="-162" rx="27.8306" ry="18"/>
<text text-anchor="middle" x="1920" y="-157.8" font-family="Times,serif" font-size="14.00" fill="#000000">N26</text>
</g>
<!-- N44 -->
<g id="node20" class="node">
<title>N44</title>
<ellipse fill="none" stroke="#000000" cx="460" cy="-162" rx="27.8306" ry="18"/>
<text text-anchor="middle" x="460" y="-157.8" font-family="Times,serif" font-size="14.00" fill="#000000">N44</text>
</g>
<!-- N2 -->
<g id="node21" class="node">
<title>N2</title>
<ellipse fill="none" stroke="#000000" cx="245" cy="-234" rx="27" ry="18"/>
<text text-anchor="middle" x="245" y="-229.8" font-family="Times,serif" font-size="14.00" fill="#000000">N2</text>
</g>
<!-- N25 -->
<g id="node22" class="node">
<title>N25</title>
<ellipse fill="none" stroke="#000000" cx="1993" cy="-162" rx="27.8306" ry="18"/>
<text text-anchor="middle" x="1993" y="-157.8" font-family="Times,serif" font-size="14.00" fill="#000000">N25</text>
</g>
<!-- N21 -->
<g id="node23" class="node">
<title>N21</title>
<ellipse fill="none" stroke="#000000" cx="606" cy="-90" rx="27.8306" ry="18"/>
<text text-anchor="middle" x="606" y="-85.8" font-family="Times,serif" font-size="14.00" fill="#000000">N21</text>
</g>
<!-- N8 -->
<g id="node24" class="node">
<title>N8</title>
<ellipse fill="none" stroke="#000000" cx="317" cy="-234" rx="27" ry="18"/>
<text text-anchor="middle" x="317" y="-229.8" font-family="Times,serif" font-size="14.00" fill="#000000">N8</text>
</g>
<!-- N24 -->
<g id="node25" class="node">
<title>N24</title>
<ellipse fill="none" stroke="#000000" cx="2066" cy="-162" rx="27.8306" ry="18"/>
<text text-anchor="middle" x="2066" y="-157.8" font-family="Times,serif" font-size="14.00" fill="#000000">N24</text>
</g>
<!-- N17 -->
<g id="node26" class="node">
<title>N17</title>
<ellipse fill="none" stroke="#000000" cx="679" cy="-90" rx="27.8306" ry="18"/>
<text text-anchor="middle" x="679" y="-85.8" font-family="Times,serif" font-size="14.00" fill="#000000">N17</text>
</g>
<!-- N31 -->
<g id="node27" class="node">
<title>N31</title>
<ellipse fill="none" stroke="#000000" cx="1920" cy="-90" rx="27.8306" ry="18"/>
<text text-anchor="middle" x="1920" y="-85.8" font-family="Times,serif" font-size="14.00" fill="#000000">N31</text>
</g>
<!-- N42 -->
<g id="node28" class="node">
<title>N42</title>
<ellipse fill="none" stroke="#000000" cx="533" cy="-162" rx="27.8306" ry="18"/>
<text text-anchor="middle" x="533" y="-157.8" font-family="Times,serif" font-size="14.00" fill="#000000">N42</text>
</g>
<!-- N5 -->
<g id="node29" class="node">
<title>N5</title>
<ellipse fill="none" stroke="#000000" cx="389" cy="-234" rx="27" ry="18"/>
<text text-anchor="middle" x="389" y="-229.8" font-family="Times,serif" font-size="14.00" fill="#000000">N5</text>
</g>
<!-- N27 -->
<g id="node30" class="node">
<title>N27</title>
<ellipse fill="none" stroke="#000000" cx="2139" cy="-162" rx="27.8306" ry="18"/>
<text text-anchor="middle" x="2139" y="-157.8" font-family="Times,serif" font-size="14.00" fill="#000000">N27</text>
</g>
<!-- N40 -->
<g id="node31" class="node">
<title>N40</title>
<ellipse fill="none" stroke="#000000" cx="971" cy="-18" rx="27.8306" ry="18"/>
<text text-anchor="middle" x="971" y="-13.8" font-family="Times,serif" font-size="14.00" fill="#000000">N40</text>
</g>
<!-- N30 -->
<g id="node32" class="node">
<title>N30</title>
<ellipse fill="none" stroke="#000000" cx="1993" cy="-90" rx="27.8306" ry="18"/>
<text text-anchor="middle" x="1993" y="-85.8" font-family="Times,serif" font-size="14.00" fill="#000000">N30</text>
</g>
<!-- N33 -->
<g id="node33" class="node">
<title>N33</title>
<ellipse fill="none" stroke="#000000" cx="2066" cy="-90" rx="27.8306" ry="18"/>
<text text-anchor="middle" x="2066" y="-85.8" font-family="Times,serif" font-size="14.00" fill="#000000">N33</text>
</g>
<!-- N7 -->
<g id="node34" class="node">
<title>N7</title>
<ellipse fill="none" stroke="#000000" cx="461" cy="-234" rx="27" ry="18"/>
<text text-anchor="middle" x="461" y="-229.8" font-family="Times,serif" font-size="14.00" fill="#000000">N7</text>
</g>
<!-- N29 -->
<g id="node35" class="node">
<title>N29</title>
<ellipse fill="none" stroke="#000000" cx="2139" cy="-90" rx="27.8306" ry="18"/>
<text text-anchor="middle" x="2139" y="-85.8" font-family="Times,serif" font-size="14.00" fill="#000000">N29</text>
</g>
<!-- N19 -->
<g id="node36" class="node">
<title>N19</title>
<ellipse fill="none" stroke="#000000" cx="752" cy="-90" rx="27.8306" ry="18"/>
<text text-anchor="middle" x="752" y="-85.8" font-family="Times,serif" font-size="14.00" fill="#000000">N19</text>
</g>
<!-- N45 -->
<g id="node37" class="node">
<title>N45</title>
<ellipse fill="none" stroke="#000000" cx="898" cy="-90" rx="27.8306" ry="18"/>
<text text-anchor="middle" x="898" y="-85.8" font-family="Times,serif" font-size="14.00" fill="#000000">N45</text>
</g>
<!-- N46 -->
<g id="node38" class="node">
<title>N46</title>
<ellipse fill="none" stroke="#000000" cx="971" cy="-90" rx="27.8306" ry="18"/>
<text text-anchor="middle" x="971" y="-85.8" font-family="Times,serif" font-size="14.00" fill="#000000">N46</text>
</g>
<!-- N47 -->
<g id="node39" class="node">
<title>N47</title>
<ellipse fill="none" stroke="#000000" cx="1044" cy="-90" rx="27.8306" ry="18"/>
<text text-anchor="middle" x="1044" y="-85.8" font-family="Times,serif" font-size="14.00" fill="#000000">N47</text>
</g>
<!-- N48 -->
<g id="node40" class="node">
<title>N48</title>
<ellipse fill="none" stroke="#000000" cx="1117" cy="-90" rx="27.8306" ry="18"/>
<text text-anchor="middle" x="1117" y="-85.8" font-family="Times,serif" font-size="14.00" fill="#000000">N48</text>
</g>
<!-- N49 -->
<g id="node41" class="node">
<title>N49</title>
<ellipse fill="none" stroke="#000000" cx="1190" cy="-90" rx="27.8306" ry="18"/>
<text text-anchor="middle" x="1190" y="-85.8" font-family="Times,serif" font-size="14.00" fill="#000000">N49</text>
</g>
<!-- N50 -->
<g id="node42" class="node">
<title>N50</title>
<ellipse fill="none" stroke="#000000" cx="1263" cy="-90" rx="27.8306" ry="18"/>
<text text-anchor="middle" x="1263" y="-85.8" font-family="Times,serif" font-size="14.00" fill="#000000">N50</text>
</g>
<!-- N51 -->
<g id="node43" class="node">
<title>N51</title>
<ellipse fill="none" stroke="#000000" cx="1336" cy="-90" rx="27.8306" ry="18"/>
<text text-anchor="middle" x="1336" y="-85.8" font-family="Times,serif" font-size="14.00" fill="#000000">N51</text>
</g>
<!-- N52 -->
<g id="node44" class="node">
<title>N52</title>
<ellipse fill="none" stroke="#000000" cx="1409" cy="-90" rx="27.8306" ry="18"/>
<text text-anchor="middle" x="1409" y="-85.8" font-family="Times,serif" font-size="14.00" fill="#000000">N52</text>
</g>
<!-- N53 -->
<g id="node45" class="node">
<title>N53</title>
<ellipse fill="none" stroke="#000000" cx="1482" cy="-90" rx="27.8306" ry="18"/>
<text text-anchor="middle" x="1482" y="-85.8" font-family="Times,serif" font-size="14.00" fill="#000000">N53</text>
</g>
<!-- Root -->
<g id="node46" class="node">
<title>Root</title>
<ellipse fill="none" stroke="#000000" cx="353" cy="-306" rx="29.6358" ry="18"/>
<text text-anchor="middle" x="353" y="-301.8" font-family="Times,serif" font-size="14.00" fill="#000000">Root</text>
</g>
<!-- Root&#45;&#45;N9 -->
<g id="edge8" class="edge">
<title>Root&#45;&#45;N9</title>
<path fill="none" stroke="#000000" d="M323.5063,-303.2577C270.3082,-297.7124 155.2452,-282.9661 63,-252 57.9654,-250.3099 52.7473,-248.0369 47.8983,-245.676"/>
</g>
<!-- Root&#45;&#45;N10 -->
<g id="edge9" class="edge">
<title>Root&#45;&#45;N10</title>
<path fill="none" stroke="#000000" d="M324.1304,-300.7697C282.1644,-292.7242 202.2042,-275.7186 137,-252 131.8981,-250.1441 126.5644,-247.8038 121.5863,-245.4301"/>
</g>
<!-- Root&#45;&#45;N4 -->
<g id="edge3" class="edge">
<title>Root&#45;&#45;N4</title>
<path fill="none" stroke="#000000" d="M326.9215,-297.148C297.8219,-287.0571 249.5049,-269.6629 209,-252 204.2601,-249.9331 199.2525,-247.5571 194.5278,-245.2234"/>
</g>
<!-- Root&#45;&#45;N2 -->
<g id="edge1" class="edge">
<title>Root&#45;&#45;N2</title>
<path fill="none" stroke="#000000" d="M332.9391,-292.6261C313.2966,-279.5311 283.5788,-259.7192 264.2275,-246.8183"/>
</g>
<!-- Root&#45;&#45;N8 -->
<g id="edge7" class="edge">
<title>Root&#45;&#45;N8</title>
<path fill="none" stroke="#000000" d="M344.2854,-288.5708C338.6253,-277.2506 331.2784,-262.5568 325.6343,-251.2687"/>
</g>
<!-- Root&#45;&#45;N5 -->
<g id="edge4" class="edge">
<title>Root&#45;&#45;N5</title>
<path fill="none" stroke="#000000" d="M361.7146,-288.5708C367.3747,-277.2506 374.7216,-262.5568 380.3657,-251.2687"/>
</g>
<!-- Root&#45;&#45;N7 -->
<g id="edge6" class="edge">
<title>Root&#45;&#45;N7</title>
<path fill="none" stroke="#000000" d="M373.0609,-292.6261C392.7034,-279.5311 422.4212,-259.7192 441.7725,-246.8183"/>
</g>
<!-- N3 -->
<g id="node47" class="node">
<title>N3</title>
<ellipse fill="none" stroke="#000000" cx="533" cy="-234" rx="27" ry="18"/>
<text text-anchor="middle" x="533" y="-229.8" font-family="Times,serif" font-size="14.00" fill="#000000">N3</text>
</g>
<!-- Root&#45;&#45;N3 -->
<g id="edge2" class="edge">
<title>Root&#45;&#45;N3</title>
<path fill="none" stroke="#000000" d="M379.0785,-297.148C408.1781,-287.0571 456.4951,-269.6629 497,-252 501.7399,-249.9331 506.7475,-247.5571 511.4722,-245.2234"/>
</g>
<!-- N6 -->
<g id="node48" class="node">
<title>N6</title>
<ellipse fill="none" stroke="#000000" cx="716" cy="-234" rx="27" ry="18"/>
<text text-anchor="middle" x="716" y="-229.8" font-family="Times,serif" font-size="14.00" fill="#000000">N6</text>
</g>
<!-- Root&#45;&#45;N6 -->
<g id="edge5" class="edge">
<title>Root&#45;&#45;N6</title>
<path fill="none" stroke="#000000" d="M381.484,-300.3503C450.1771,-286.7252 624.1418,-252.2198 690.1032,-239.1365"/>
</g>
<!-- N11 -->
<g id="node49" class="node">
<title>N11</title>
<ellipse fill="none" stroke="#000000" cx="1956" cy="-234" rx="27.8306" ry="18"/>
<text text-anchor="middle" x="1956" y="-229.8" font-family="Times,serif" font-size="14.00" fill="#000000">N11</text>
</g>
<!-- Root&#45;&#45;N11 -->
<g id="edge10" class="edge">
<title>Root&#45;&#45;N11</title>
<path fill="none" stroke="#000000" d="M382.8872,-304.6576C583.6858,-295.6386 1734.1691,-243.9637 1928.2119,-235.2481"/>
</g>
<!-- N3&#45;&#45;N43 -->
<g id="edge42" class="edge">
<title>N3&#45;&#45;N43</title>
<path fill="none" stroke="#000000" d="M511.317,-223.1108C506.602,-220.7563 501.6375,-218.2873 497,-216 464.1985,-199.8215 455.8015,-196.1785 423,-180 418.4878,-177.7745 413.6661,-175.377 409.0659,-173.0803"/>
</g>
<!-- N3&#45;&#45;N44 -->
<g id="edge43" class="edge">
<title>N3&#45;&#45;N44</title>
<path fill="none" stroke="#000000" d="M517.8744,-219.0816C505.4293,-206.807 487.8655,-189.4838 475.3574,-177.147"/>
</g>
<!-- N3&#45;&#45;N42 -->
<g id="edge41" class="edge">
<title>N3&#45;&#45;N42</title>
<path fill="none" stroke="#000000" d="M533,-215.8314C533,-205 533,-191.2876 533,-180.4133"/>
</g>
<!-- N6&#45;&#45;N16 -->
<g id="edge15" class="edge">
<title>N6&#45;&#45;N16</title>
<path fill="none" stroke="#000000" d="M696.5874,-221.2936C676.6039,-208.2135 645.6362,-187.9437 625.5885,-174.8216"/>
</g>
<!-- N6&#45;&#45;N14 -->
<g id="edge13" class="edge">
<title>N6&#45;&#45;N14</title>
<path fill="none" stroke="#000000" d="M707.2315,-216.937C701.4189,-205.626 693.8145,-190.8282 687.9626,-179.4407"/>
</g>
<!-- N12 -->
<g id="node50" class="node">
<title>N12</title>
<ellipse fill="none" stroke="#000000" cx="752" cy="-162" rx="27.8306" ry="18"/>
<text text-anchor="middle" x="752" y="-157.8" font-family="Times,serif" font-size="14.00" fill="#000000">N12</text>
</g>
<!-- N6&#45;&#45;N12 -->
<g id="edge11" class="edge">
<title>N6&#45;&#45;N12</title>
<path fill="none" stroke="#000000" d="M724.7146,-216.5708C730.3747,-205.2506 737.7216,-190.5568 743.3657,-179.2687"/>
</g>
<!-- N13 -->
<g id="node51" class="node">
<title>N13</title>
<ellipse fill="none" stroke="#000000" cx="1153" cy="-162" rx="27.8306" ry="18"/>
<text text-anchor="middle" x="1153" y="-157.8" font-family="Times,serif" font-size="14.00" fill="#000000">N13</text>
</g>
<!-- N6&#45;&#45;N13 -->
<g id="edge12" class="edge">
<title>N6&#45;&#45;N13</title>
<path fill="none" stroke="#000000" d="M742.3522,-229.6582C820.0397,-216.8584 1047.6152,-179.3632 1126.057,-166.4391"/>
</g>
<!-- N15 -->
<g id="node52" class="node">
<title>N15</title>
<ellipse fill="none" stroke="#000000" cx="1774" cy="-162" rx="27.8306" ry="18"/>
<text text-anchor="middle" x="1774" y="-157.8" font-family="Times,serif" font-size="14.00" fill="#000000">N15</text>
</g>
<!-- N6&#45;&#45;N15 -->
<g id="edge14" class="edge">
<title>N6&#45;&#45;N15</title>
<path fill="none" stroke="#000000" d="M742.9485,-232.1661C890.3264,-222.1366 1597.5566,-174.0075 1746.4494,-163.8749"/>
</g>
<!-- N11&#45;&#45;N23 -->
<g id="edge22" class="edge">
<title>N11&#45;&#45;N23</title>
<path fill="none" stroke="#000000" d="M1936.513,-221.1278C1916.7953,-208.1034 1886.4744,-188.0748 1866.6858,-175.0035"/>
</g>
<!-- N11&#45;&#45;N26 -->
<g id="edge25" class="edge">
<title>N11&#45;&#45;N26</title>
<path fill="none" stroke="#000000" d="M1947.2854,-216.5708C1941.6253,-205.2506 1934.2784,-190.5568 1928.6343,-179.2687"/>
</g>
<!-- N11&#45;&#45;N25 -->
<g id="edge24" class="edge">
<title>N11&#45;&#45;N25</title>
<path fill="none" stroke="#000000" d="M1964.9567,-216.5708C1970.774,-205.2506 1978.325,-190.5568 1984.1258,-179.2687"/>
</g>
<!-- N11&#45;&#45;N24 -->
<g id="edge23" class="edge">
<title>N11&#45;&#45;N24</title>
<path fill="none" stroke="#000000" d="M1975.6658,-221.1278C1995.5643,-208.1034 2026.1635,-188.0748 2046.1336,-175.0035"/>
</g>
<!-- N11&#45;&#45;N27 -->
<g id="edge26" class="edge">
<title>N11&#45;&#45;N27</title>
<path fill="none" stroke="#000000" d="M1980.7789,-225.8435C2010.2676,-215.9206 2060.8206,-198.2246 2103,-180 2107.6185,-178.0045 2112.4867,-175.7076 2117.0989,-173.4368"/>
</g>
<!-- N12&#45;&#45;N20 -->
<g id="edge19" class="edge">
<title>N12&#45;&#45;N20</title>
<path fill="none" stroke="#000000" d="M730.745,-150.0562C726.0034,-147.7674 720.9198,-145.5918 716,-144 621.7332,-113.4996 590.2668,-138.5004 496,-108 491.0802,-106.4082 485.9966,-104.2326 481.255,-101.9438"/>
</g>
<!-- N12&#45;&#45;N22 -->
<g id="edge21" class="edge">
<title>N12&#45;&#45;N22</title>
<path fill="none" stroke="#000000" d="M730.6453,-150.3452C725.9099,-148.0383 720.854,-145.7824 716,-144 652.8582,-120.8147 632.1418,-131.1853 569,-108 564.146,-106.2176 559.0901,-103.9617 554.3547,-101.6548"/>
</g>
<!-- N12&#45;&#45;N21 -->
<g id="edge20" class="edge">
<title>N12&#45;&#45;N21</title>
<path fill="none" stroke="#000000" d="M729.9341,-150.9197C725.3339,-148.623 720.5122,-146.2255 716,-144 683.1985,-127.8215 674.8015,-124.1785 642,-108 637.4878,-105.7745 632.6661,-103.377 628.0659,-101.0803"/>
</g>
<!-- N12&#45;&#45;N17 -->
<g id="edge16" class="edge">
<title>N12&#45;&#45;N17</title>
<path fill="none" stroke="#000000" d="M736.5186,-146.7307C724.1302,-134.512 706.8416,-117.4602 694.4591,-105.2473"/>
</g>
<!-- N12&#45;&#45;N19 -->
<g id="edge18" class="edge">
<title>N12&#45;&#45;N19</title>
<path fill="none" stroke="#000000" d="M752,-143.8314C752,-133 752,-119.2876 752,-108.4133"/>
</g>
<!-- N18 -->
<g id="node53" class="node">
<title>N18</title>
<ellipse fill="none" stroke="#000000" cx="825" cy="-90" rx="27.8306" ry="18"/>
<text text-anchor="middle" x="825" y="-85.8" font-family="Times,serif" font-size="14.00" fill="#000000">N18</text>
</g>
<!-- N12&#45;&#45;N18 -->
<g id="edge17" class="edge">
<title>N12&#45;&#45;N18</title>
<path fill="none" stroke="#000000" d="M767.4814,-146.7307C779.8698,-134.512 797.1584,-117.4602 809.5409,-105.2473"/>
</g>
<!-- N13&#45;&#45;N45 -->
<g id="edge44" class="edge">
<title>N13&#45;&#45;N45</title>
<path fill="none" stroke="#000000" d="M1126.138,-157.37C1084.2633,-149.7119 1001.2508,-132.7545 934,-108 929.1474,-106.2138 924.0921,-103.9562 919.3569,-101.649"/>
</g>
<!-- N13&#45;&#45;N46 -->
<g id="edge45" class="edge">
<title>N13&#45;&#45;N46</title>
<path fill="none" stroke="#000000" d="M1128.1341,-153.7333C1098.8141,-143.7731 1048.7826,-126.1081 1007,-108 1002.3837,-105.9994 997.5165,-103.7003 992.9045,-101.4288"/>
</g>
<!-- N13&#45;&#45;N47 -->
<g id="edge46" class="edge">
<title>N13&#45;&#45;N47</title>
<path fill="none" stroke="#000000" d="M1133.513,-149.1278C1113.7953,-136.1034 1083.4744,-116.0748 1063.6858,-103.0035"/>
</g>
<!-- N13&#45;&#45;N48 -->
<g id="edge47" class="edge">
<title>N13&#45;&#45;N48</title>
<path fill="none" stroke="#000000" d="M1144.2854,-144.5708C1138.6253,-133.2506 1131.2784,-118.5568 1125.6343,-107.2687"/>
</g>
<!-- N13&#45;&#45;N49 -->
<g id="edge48" class="edge">
<title>N13&#45;&#45;N49</title>
<path fill="none" stroke="#000000" d="M1161.9567,-144.5708C1167.774,-133.2506 1175.325,-118.5568 1181.1258,-107.2687"/>
</g>
<!-- N13&#45;&#45;N50 -->
<g id="edge49" class="edge">
<title>N13&#45;&#45;N50</title>
<path fill="none" stroke="#000000" d="M1172.6658,-149.1278C1192.5643,-136.1034 1223.1635,-116.0748 1243.1336,-103.0035"/>
</g>
<!-- N13&#45;&#45;N51 -->
<g id="edge50" class="edge">
<title>N13&#45;&#45;N51</title>
<path fill="none" stroke="#000000" d="M1177.7789,-153.8435C1207.2676,-143.9206 1257.8206,-126.2246 1300,-108 1304.6185,-106.0045 1309.4867,-103.7076 1314.0989,-101.4368"/>
</g>
<!-- N13&#45;&#45;N52 -->
<g id="edge51" class="edge">
<title>N13&#45;&#45;N52</title>
<path fill="none" stroke="#000000" d="M1179.9858,-157.3873C1222.0531,-149.7523 1305.4466,-132.8253 1373,-108 1377.8535,-106.2164 1382.9092,-103.9599 1387.6446,-101.6529"/>
</g>
<!-- N13&#45;&#45;N53 -->
<g id="edge52" class="edge">
<title>N13&#45;&#45;N53</title>
<path fill="none" stroke="#000000" d="M1180.7104,-159.5137C1233.4855,-154.2101 1351.5773,-139.6003 1446,-108 1450.9036,-106.3589 1455.9803,-104.1626 1460.7204,-101.8691"/>
</g>
<!-- N15&#45;&#45;N28 -->
<g id="edge27" class="edge">
<title>N15&#45;&#45;N28</title>
<path fill="none" stroke="#000000" d="M1747.7541,-155.8115C1711.7737,-146.979 1645.3967,-129.4304 1591,-108 1586.189,-106.1046 1581.1513,-103.801 1576.4199,-101.4835"/>
</g>
<!-- N15&#45;&#45;N35 -->
<g id="edge34" class="edge">
<title>N15&#45;&#45;N35</title>
<path fill="none" stroke="#000000" d="M1751.6446,-151.0848C1729.4026,-140.2109 1694.31,-123.017 1664,-108 1659.4918,-105.7664 1654.6718,-103.3654 1650.072,-101.0678"/>
</g>
<!-- N15&#45;&#45;N34 -->
<g id="edge33" class="edge">
<title>N15&#45;&#45;N34</title>
<path fill="none" stroke="#000000" d="M1758.5186,-146.7307C1746.1302,-134.512 1728.8416,-117.4602 1716.4591,-105.2473"/>
</g>
<!-- N15&#45;&#45;N32 -->
<g id="edge31" class="edge">
<title>N15&#45;&#45;N32</title>
<path fill="none" stroke="#000000" d="M1774,-143.8314C1774,-133 1774,-119.2876 1774,-108.4133"/>
</g>
<!-- N15&#45;&#45;N36 -->
<g id="edge35" class="edge">
<title>N15&#45;&#45;N36</title>
<path fill="none" stroke="#000000" d="M1789.4814,-146.7307C1801.8698,-134.512 1819.1584,-117.4602 1831.5409,-105.2473"/>
</g>
<!-- N15&#45;&#45;N31 -->
<g id="edge30" class="edge">
<title>N15&#45;&#45;N31</title>
<path fill="none" stroke="#000000" d="M1796.0659,-150.9197C1800.6661,-148.623 1805.4878,-146.2255 1810,-144 1842.8015,-127.8215 1851.1985,-124.1785 1884,-108 1888.5122,-105.7745 1893.3339,-103.377 1897.9341,-101.0803"/>
</g>
<!-- N15&#45;&#45;N30 -->
<g id="edge29" class="edge">
<title>N15&#45;&#45;N30</title>
<path fill="none" stroke="#000000" d="M1795.3547,-150.3452C1800.0901,-148.0383 1805.146,-145.7824 1810,-144 1873.1418,-120.8147 1893.8582,-131.1853 1957,-108 1961.854,-106.2176 1966.9099,-103.9617 1971.6453,-101.6548"/>
</g>
<!-- N15&#45;&#45;N33 -->
<g id="edge32" class="edge">
<title>N15&#45;&#45;N33</title>
<path fill="none" stroke="#000000" d="M1795.255,-150.0562C1799.9966,-147.7674 1805.0802,-145.5918 1810,-144 1904.2668,-113.4996 1935.7332,-138.5004 2030,-108 2034.9198,-106.4082 2040.0034,-104.2326 2044.745,-101.9438"/>
</g>
<!-- N15&#45;&#45;N29 -->
<g id="edge28" class="edge">
<title>N15&#45;&#45;N29</title>
<path fill="none" stroke="#000000" d="M1794.8244,-150.0919C1799.6772,-147.7431 1804.9156,-145.5336 1810,-144 1935.6118,-106.1118 1977.3882,-145.8882 2103,-108 2108.0844,-106.4664 2113.3228,-104.2569 2118.1756,-101.9081"/>
</g>
<!-- N18&#45;&#45;N39 -->
<g id="edge38" class="edge">
<title>N18&#45;&#45;N39</title>
<path fill="none" stroke="#000000" d="M802.9341,-78.9197C798.3339,-76.623 793.5122,-74.2255 789,-72 756.1985,-55.8215 747.8015,-52.1785 715,-36 710.4878,-33.7745 705.6661,-31.377 701.0659,-29.0803"/>
</g>
<!-- N18&#45;&#45;N41 -->
<g id="edge40" class="edge">
<title>N18&#45;&#45;N41</title>
<path fill="none" stroke="#000000" d="M809.5186,-74.7307C797.1302,-62.512 779.8416,-45.4602 767.4591,-33.2473"/>
</g>
<!-- N18&#45;&#45;N38 -->
<g id="edge37" class="edge">
<title>N18&#45;&#45;N38</title>
<path fill="none" stroke="#000000" d="M825,-71.8314C825,-61 825,-47.2876 825,-36.4133"/>
</g>
<!-- N18&#45;&#45;N37 -->
<g id="edge36" class="edge">
<title>N18&#45;&#45;N37</title>
<path fill="none" stroke="#000000" d="M840.4814,-74.7307C852.8698,-62.512 870.1584,-45.4602 882.5409,-33.2473"/>
</g>
<!-- N18&#45;&#45;N40 -->
<g id="edge39" class="edge">
<title>N18&#45;&#45;N40</title>
<path fill="none" stroke="#000000" d="M847.0659,-78.9197C851.6661,-76.623 856.4878,-74.2255 861,-72 893.8015,-55.8215 902.1985,-52.1785 935,-36 939.5122,-33.7745 944.3339,-31.377 948.9341,-29.0803"/>
</g>
</g>
</svg>
