<?xml version="1.0" encoding="UTF-8" standalone="no"?>
<!DOCTYPE svg PUBLIC "-//W3C//DTD SVG 1.1//EN"
 "http://www.w3.org/Graphics/SVG/1.1/DTD/svg11.dtd">
<!-- Generated by graphviz version 2.40.1 (20161225.0304)
 -->
<!-- Title: test_graph Pages: 1 -->
<svg width="975pt" height="404pt"
 viewBox="0.00 0.00 975.33 404.00" xmlns="http://www.w3.org/2000/svg" xmlns:xlink="http://www.w3.org/1999/xlink">
<g id="graph0" class="graph" transform="scale(1 1) rotate(0) translate(4 400)">
<title>test_graph</title>
<polygon fill="#ffffff" stroke="transparent" points="-4,4 -4,-400 971.3296,-400 971.3296,4 -4,4"/>
<!-- N24 -->
<g id="node1" class="node">
<title>N24</title>
<ellipse fill="none" stroke="#000000" cx="384.6648" cy="-378" rx="27.8306" ry="18"/>
<text text-anchor="middle" x="384.6648" y="-373.8" font-family="Times,serif" font-size="14.00" fill="#000000">N24</text>
</g>
<!-- N25 -->
<g id="node5" class="node">
<title>N25</title>
<ellipse fill="none" stroke="#000000" cx="192.6648" cy="-306" rx="27.8306" ry="18"/>
<text text-anchor="middle" x="192.6648" y="-301.8" font-family="Times,serif" font-size="14.00" fill="#000000">N25</text>
</g>
<!-- N24&#45;&#45;N25 -->
<g id="edge26" class="edge">
<title>N24&#45;&#45;N25</title>
<path fill="none" stroke="#000000" d="M360.3479,-368.8812C323.4158,-355.0316 253.5987,-328.8502 216.7843,-315.0448"/>
</g>
<!-- N23 -->
<g id="node17" class="node">
<title>N23</title>
<ellipse fill="none" stroke="#000000" cx="575.6648" cy="-306" rx="27.8306" ry="18"/>
<text text-anchor="middle" x="575.6648" y="-301.8" font-family="Times,serif" font-size="14.00" fill="#000000">N23</text>
</g>
<!-- N24&#45;&#45;N23 -->
<g id="edge28" class="edge">
<title>N24&#45;&#45;N23</title>
<path fill="none" stroke="#000000" d="M409.8043,-370.1738C440.5717,-360.3703 494.0785,-342.5894 538.6648,-324 543.5438,-321.9658 548.6938,-319.6036 553.5504,-317.2729"/>
</g>
<!-- N0 -->
<g id="node2" class="node">
<title>N0</title>
<ellipse fill="none" stroke="#000000" cx="502.6648" cy="-306" rx="27" ry="18"/>
<text text-anchor="middle" x="502.6648" y="-301.8" font-family="Times,serif" font-size="14.00" fill="#000000">N0</text>
</g>
<!-- N21 -->
<g id="node27" class="node">
<title>N21</title>
<ellipse fill="none" stroke="#000000" cx="503.6648" cy="-234" rx="27.8306" ry="18"/>
<text text-anchor="middle" x="503.6648" y="-229.8" font-family="Times,serif" font-size="14.00" fill="#000000">N21</text>
</g>
<!-- N0&#45;&#45;N21 -->
<g id="edge34" class="edge">
<title>N0&#45;&#45;N21</title>
<path fill="none" stroke="#000000" d="M502.9171,-287.8314C503.0676,-277 503.258,-263.2876 503.4091,-252.4133"/>
</g>
<!-- N10 -->
<g id="node34" class="node">
<title>N10</title>
<ellipse fill="none" stroke="#000000" cx="612.6648" cy="-234" rx="27.8306" ry="18"/>
<text text-anchor="middle" x="612.6648" y="-229.8" font-family="Times,serif" font-size="14.00" fill="#000000">N10</text>
</g>
<!-- N0&#45;&#45;N10 -->
<g id="edge27" class="edge">
<title>N0&#45;&#45;N10</title>
<path fill="none" stroke="#000000" d="M522.0774,-293.2936C542.0609,-280.2135 573.0286,-259.9437 593.0763,-246.8216"/>
</g>
<!-- N1 -->
<g id="node3" class="node">
<title>N1</title>
<ellipse fill="none" stroke="#000000" cx="430.6648" cy="-306" rx="27" ry="18"/>
<text text-anchor="middle" x="430.6648" y="-301.8" font-family="Times,serif" font-size="14.00" fill="#000000">N1</text>
</g>
<!-- N1&#45;&#45;N21 -->
<g id="edge13" class="edge">
<title>N1&#45;&#45;N21</title>
<path fill="none" stroke="#000000" d="M445.7904,-291.0816C458.2355,-278.807 475.7993,-261.4838 488.3074,-249.147"/>
</g>
<!-- N9 -->
<g id="node30" class="node">
<title>N9</title>
<ellipse fill="none" stroke="#000000" cx="430.6648" cy="-234" rx="27" ry="18"/>
<text text-anchor="middle" x="430.6648" y="-229.8" font-family="Times,serif" font-size="14.00" fill="#000000">N9</text>
</g>
<!-- N1&#45;&#45;N9 -->
<g id="edge39" class="edge">
<title>N1&#45;&#45;N9</title>
<path fill="none" stroke="#000000" d="M430.6648,-287.8314C430.6648,-277 430.6648,-263.2876 430.6648,-252.4133"/>
</g>
<!-- N16 -->
<g id="node4" class="node">
<title>N16</title>
<ellipse fill="none" stroke="#000000" cx="209.6648" cy="-234" rx="27.8306" ry="18"/>
<text text-anchor="middle" x="209.6648" y="-229.8" font-family="Times,serif" font-size="14.00" fill="#000000">N16</text>
</g>
<!-- N2 -->
<g id="node11" class="node">
<title>N2</title>
<ellipse fill="none" stroke="#000000" cx="246.6648" cy="-162" rx="27" ry="18"/>
<text text-anchor="middle" x="246.6648" y="-157.8" font-family="Times,serif" font-size="14.00" fill="#000000">N2</text>
</g>
<!-- N16&#45;&#45;N2 -->
<g id="edge21" class="edge">
<title>N16&#45;&#45;N2</title>
<path fill="none" stroke="#000000" d="M218.6215,-216.5708C224.4388,-205.2506 231.9898,-190.5568 237.7906,-179.2687"/>
</g>
<!-- N34 -->
<g id="node16" class="node">
<title>N34</title>
<ellipse fill="none" stroke="#000000" cx="173.6648" cy="-162" rx="27.8306" ry="18"/>
<text text-anchor="middle" x="173.6648" y="-157.8" font-family="Times,serif" font-size="14.00" fill="#000000">N34</text>
</g>
<!-- N16&#45;&#45;N34 -->
<g id="edge20" class="edge">
<title>N16&#45;&#45;N34</title>
<path fill="none" stroke="#000000" d="M200.9502,-216.5708C195.2901,-205.2506 187.9432,-190.5568 182.2991,-179.2687"/>
</g>
<!-- N26 -->
<g id="node12" class="node">
<title>N26</title>
<ellipse fill="none" stroke="#000000" cx="136.6648" cy="-234" rx="27.8306" ry="18"/>
<text text-anchor="middle" x="136.6648" y="-229.8" font-family="Times,serif" font-size="14.00" fill="#000000">N26</text>
</g>
<!-- N25&#45;&#45;N26 -->
<g id="edge35" class="edge">
<title>N25&#45;&#45;N26</title>
<path fill="none" stroke="#000000" d="M179.9575,-289.6621C170.7928,-277.8788 158.475,-262.0416 149.3218,-250.2733"/>
</g>
<!-- N22 -->
<g id="node6" class="node">
<title>N22</title>
<ellipse fill="none" stroke="#000000" cx="648.6648" cy="-378" rx="27.8306" ry="18"/>
<text text-anchor="middle" x="648.6648" y="-373.8" font-family="Times,serif" font-size="14.00" fill="#000000">N22</text>
</g>
<!-- N28 -->
<g id="node8" class="node">
<title>N28</title>
<ellipse fill="none" stroke="#000000" cx="648.6648" cy="-306" rx="27.8306" ry="18"/>
<text text-anchor="middle" x="648.6648" y="-301.8" font-family="Times,serif" font-size="14.00" fill="#000000">N28</text>
</g>
<!-- N22&#45;&#45;N28 -->
<g id="edge8" class="edge">
<title>N22&#45;&#45;N28</title>
<path fill="none" stroke="#000000" d="M648.6648,-359.8314C648.6648,-349 648.6648,-335.2876 648.6648,-324.4133"/>
</g>
<!-- N22&#45;&#45;N23 -->
<g id="edge7" class="edge">
<title>N22&#45;&#45;N23</title>
<path fill="none" stroke="#000000" d="M633.1834,-362.7307C620.795,-350.512 603.5064,-333.4602 591.1239,-321.2473"/>
</g>
<!-- N29 -->
<g id="node29" class="node">
<title>N29</title>
<ellipse fill="none" stroke="#000000" cx="721.6648" cy="-306" rx="27.8306" ry="18"/>
<text text-anchor="middle" x="721.6648" y="-301.8" font-family="Times,serif" font-size="14.00" fill="#000000">N29</text>
</g>
<!-- N22&#45;&#45;N29 -->
<g id="edge3" class="edge">
<title>N22&#45;&#45;N29</title>
<path fill="none" stroke="#000000" d="M664.1462,-362.7307C676.5346,-350.512 693.8232,-333.4602 706.2057,-321.2473"/>
</g>
<!-- N4 -->
<g id="node7" class="node">
<title>N4</title>
<ellipse fill="none" stroke="#000000" cx="848.6648" cy="-378" rx="27" ry="18"/>
<text text-anchor="middle" x="848.6648" y="-373.8" font-family="Times,serif" font-size="14.00" fill="#000000">N4</text>
</g>
<!-- N14 -->
<g id="node19" class="node">
<title>N14</title>
<ellipse fill="none" stroke="#000000" cx="867.6648" cy="-306" rx="27.8306" ry="18"/>
<text text-anchor="middle" x="867.6648" y="-301.8" font-family="Times,serif" font-size="14.00" fill="#000000">N14</text>
</g>
<!-- N4&#45;&#45;N14 -->
<g id="edge19" class="edge">
<title>N4&#45;&#45;N14</title>
<path fill="none" stroke="#000000" d="M853.3614,-360.2022C856.2845,-349.1252 860.031,-334.928 862.9564,-323.8425"/>
</g>
<!-- N30 -->
<g id="node25" class="node">
<title>N30</title>
<ellipse fill="none" stroke="#000000" cx="794.6648" cy="-306" rx="27.8306" ry="18"/>
<text text-anchor="middle" x="794.6648" y="-301.8" font-family="Times,serif" font-size="14.00" fill="#000000">N30</text>
</g>
<!-- N4&#45;&#45;N30 -->
<g id="edge37" class="edge">
<title>N4&#45;&#45;N30</title>
<path fill="none" stroke="#000000" d="M836.4114,-361.6621C827.5739,-349.8788 815.696,-334.0416 806.8697,-322.2733"/>
</g>
<!-- N28&#45;&#45;N10 -->
<g id="edge23" class="edge">
<title>N28&#45;&#45;N10</title>
<path fill="none" stroke="#000000" d="M639.9502,-288.5708C634.2901,-277.2506 626.9432,-262.5568 621.2991,-251.2687"/>
</g>
<!-- N17 -->
<g id="node9" class="node">
<title>N17</title>
<ellipse fill="none" stroke="#000000" cx="357.6648" cy="-234" rx="27.8306" ry="18"/>
<text text-anchor="middle" x="357.6648" y="-229.8" font-family="Times,serif" font-size="14.00" fill="#000000">N17</text>
</g>
<!-- N17&#45;&#45;N2 -->
<g id="edge1" class="edge">
<title>N17&#45;&#45;N2</title>
<path fill="none" stroke="#000000" d="M337.8202,-221.1278C317.6161,-208.0225 286.4795,-187.8257 266.3376,-174.7607"/>
</g>
<!-- N32 -->
<g id="node15" class="node">
<title>N32</title>
<ellipse fill="none" stroke="#000000" cx="357.6648" cy="-162" rx="27.8306" ry="18"/>
<text text-anchor="middle" x="357.6648" y="-157.8" font-family="Times,serif" font-size="14.00" fill="#000000">N32</text>
</g>
<!-- N17&#45;&#45;N32 -->
<g id="edge5" class="edge">
<title>N17&#45;&#45;N32</title>
<path fill="none" stroke="#000000" d="M357.6648,-215.8314C357.6648,-205 357.6648,-191.2876 357.6648,-180.4133"/>
</g>
<!-- N19 -->
<g id="node10" class="node">
<title>N19</title>
<ellipse fill="none" stroke="#000000" cx="27.6648" cy="-162" rx="27.8306" ry="18"/>
<text text-anchor="middle" x="27.6648" y="-157.8" font-family="Times,serif" font-size="14.00" fill="#000000">N19</text>
</g>
<!-- N11 -->
<g id="node31" class="node">
<title>N11</title>
<ellipse fill="none" stroke="#000000" cx="92.6648" cy="-18" rx="27.8306" ry="18"/>
<text text-anchor="middle" x="92.6648" y="-13.8" font-family="Times,serif" font-size="14.00" fill="#000000">N11</text>
</g>
<!-- N19&#45;&#45;N11 -->
<g id="edge12" class="edge">
<title>N19&#45;&#45;N11</title>
<path fill="none" stroke="#000000" d="M28.8531,-143.8991C30.6761,-125.0912 35.2536,-95.2177 46.6648,-72 53.9439,-57.1895 66.2061,-43.0885 76.2403,-33.012"/>
</g>
<!-- N15 -->
<g id="node35" class="node">
<title>N15</title>
<ellipse fill="none" stroke="#000000" cx="83.6648" cy="-90" rx="27.8306" ry="18"/>
<text text-anchor="middle" x="83.6648" y="-85.8" font-family="Times,serif" font-size="14.00" fill="#000000">N15</text>
</g>
<!-- N19&#45;&#45;N15 -->
<g id="edge17" class="edge">
<title>N19&#45;&#45;N15</title>
<path fill="none" stroke="#000000" d="M40.3721,-145.6621C49.5368,-133.8788 61.8546,-118.0416 71.0078,-106.2733"/>
</g>
<!-- N5 -->
<g id="node26" class="node">
<title>N5</title>
<ellipse fill="none" stroke="#000000" cx="156.6648" cy="-90" rx="27" ry="18"/>
<text text-anchor="middle" x="156.6648" y="-85.8" font-family="Times,serif" font-size="14.00" fill="#000000">N5</text>
</g>
<!-- N2&#45;&#45;N5 -->
<g id="edge40" class="edge">
<title>N2&#45;&#45;N5</title>
<path fill="none" stroke="#000000" d="M229.3119,-148.1177C213.3749,-135.3681 189.8845,-116.5758 173.9644,-103.8397"/>
</g>
<!-- N3 -->
<g id="node24" class="node">
<title>N3</title>
<ellipse fill="none" stroke="#000000" cx="100.6648" cy="-162" rx="27" ry="18"/>
<text text-anchor="middle" x="100.6648" y="-157.8" font-family="Times,serif" font-size="14.00" fill="#000000">N3</text>
</g>
<!-- N26&#45;&#45;N3 -->
<g id="edge6" class="edge">
<title>N26&#45;&#45;N3</title>
<path fill="none" stroke="#000000" d="M127.9502,-216.5708C122.2901,-205.2506 114.9432,-190.5568 109.2991,-179.2687"/>
</g>
<!-- N31 -->
<g id="node13" class="node">
<title>N31</title>
<ellipse fill="none" stroke="#000000" cx="329.6648" cy="-306" rx="27.8306" ry="18"/>
<text text-anchor="middle" x="329.6648" y="-301.8" font-family="Times,serif" font-size="14.00" fill="#000000">N31</text>
</g>
<!-- N31&#45;&#45;N9 -->
<g id="edge18" class="edge">
<title>N31&#45;&#45;N9</title>
<path fill="none" stroke="#000000" d="M348.6621,-292.4574C366.8336,-279.5034 394.0658,-260.0903 412.0939,-247.2387"/>
</g>
<!-- N6 -->
<g id="node32" class="node">
<title>N6</title>
<ellipse fill="none" stroke="#000000" cx="260.6648" cy="-18" rx="27" ry="18"/>
<text text-anchor="middle" x="260.6648" y="-13.8" font-family="Times,serif" font-size="14.00" fill="#000000">N6</text>
</g>
<!-- N31&#45;&#45;N6 -->
<g id="edge38" class="edge">
<title>N31&#45;&#45;N6</title>
<path fill="none" stroke="#000000" d="M325.5948,-288.0589C316.6598,-248.8137 294.5377,-152.4191 274.6648,-72 271.6908,-59.9653 268.1908,-46.4653 265.4343,-35.974"/>
</g>
<!-- N7 -->
<g id="node14" class="node">
<title>N7</title>
<ellipse fill="none" stroke="#000000" cx="430.6648" cy="-90" rx="27" ry="18"/>
<text text-anchor="middle" x="430.6648" y="-85.8" font-family="Times,serif" font-size="14.00" fill="#000000">N7</text>
</g>
<!-- N7&#45;&#45;N7 -->
<g id="edge24" class="edge">
<title>N7&#45;&#45;N7</title>
<path fill="none" stroke="#000000" d="M450.5598,-102.4321C463.3528,-105.6753 475.6648,-101.5313 475.6648,-90 475.6648,-78.4688 463.3528,-74.3247 450.5598,-77.5679"/>
</g>
<!-- N20 -->
<g id="node33" class="node">
<title>N20</title>
<ellipse fill="none" stroke="#000000" cx="393.6648" cy="-18" rx="27.8306" ry="18"/>
<text text-anchor="middle" x="393.6648" y="-13.8" font-family="Times,serif" font-size="14.00" fill="#000000">N20</text>
</g>
<!-- N7&#45;&#45;N20 -->
<g id="edge9" class="edge">
<title>N7&#45;&#45;N20</title>
<path fill="none" stroke="#000000" d="M421.8963,-72.937C416.0837,-61.626 408.4793,-46.8282 402.6274,-35.4407"/>
</g>
<!-- N18 -->
<g id="node20" class="node">
<title>N18</title>
<ellipse fill="none" stroke="#000000" cx="357.6648" cy="-90" rx="27.8306" ry="18"/>
<text text-anchor="middle" x="357.6648" y="-85.8" font-family="Times,serif" font-size="14.00" fill="#000000">N18</text>
</g>
<!-- N32&#45;&#45;N18 -->
<g id="edge14" class="edge">
<title>N32&#45;&#45;N18</title>
<path fill="none" stroke="#000000" d="M357.6648,-143.8314C357.6648,-133 357.6648,-119.2876 357.6648,-108.4133"/>
</g>
<!-- N13 -->
<g id="node22" class="node">
<title>N13</title>
<ellipse fill="none" stroke="#000000" cx="237.6648" cy="-90" rx="27.8306" ry="18"/>
<text text-anchor="middle" x="237.6648" y="-85.8" font-family="Times,serif" font-size="14.00" fill="#000000">N13</text>
</g>
<!-- N34&#45;&#45;N13 -->
<g id="edge32" class="edge">
<title>N34&#45;&#45;N13</title>
<path fill="none" stroke="#000000" d="M187.5518,-146.3771C198.2868,-134.3003 213.0767,-117.6616 223.8049,-105.5924"/>
</g>
<!-- N34&#45;&#45;N15 -->
<g id="edge22" class="edge">
<title>N34&#45;&#45;N15</title>
<path fill="none" stroke="#000000" d="M155.8837,-147.7751C140.1055,-135.1525 117.176,-116.809 101.409,-104.1953"/>
</g>
<!-- N27 -->
<g id="node18" class="node">
<title>N27</title>
<ellipse fill="none" stroke="#000000" cx="757.6648" cy="-378" rx="27.8306" ry="18"/>
<text text-anchor="middle" x="757.6648" y="-373.8" font-family="Times,serif" font-size="14.00" fill="#000000">N27</text>
</g>
<!-- N27&#45;&#45;N30 -->
<g id="edge31" class="edge">
<title>N27&#45;&#45;N30</title>
<path fill="none" stroke="#000000" d="M766.6215,-360.5708C772.4388,-349.2506 779.9898,-334.5568 785.7906,-323.2687"/>
</g>
<!-- N27&#45;&#45;N29 -->
<g id="edge15" class="edge">
<title>N27&#45;&#45;N29</title>
<path fill="none" stroke="#000000" d="M748.9502,-360.5708C743.2901,-349.2506 735.9432,-334.5568 730.2991,-323.2687"/>
</g>
<!-- N14&#45;&#45;N14 -->
<g id="edge2" class="edge">
<title>N14&#45;&#45;N14</title>
<path fill="none" stroke="#000000" d="M887.8538,-318.4321C900.8357,-321.6753 913.3296,-317.5313 913.3296,-306 913.3296,-294.4688 900.8357,-290.3247 887.8538,-293.5679"/>
</g>
<!-- N12 -->
<g id="node21" class="node">
<title>N12</title>
<ellipse fill="none" stroke="#000000" cx="867.6648" cy="-234" rx="27.8306" ry="18"/>
<text text-anchor="middle" x="867.6648" y="-229.8" font-family="Times,serif" font-size="14.00" fill="#000000">N12</text>
</g>
<!-- N14&#45;&#45;N12 -->
<g id="edge36" class="edge">
<title>N14&#45;&#45;N12</title>
<path fill="none" stroke="#000000" d="M867.6648,-287.8314C867.6648,-277 867.6648,-263.2876 867.6648,-252.4133"/>
</g>
<!-- N18&#45;&#45;N20 -->
<g id="edge30" class="edge">
<title>N18&#45;&#45;N20</title>
<path fill="none" stroke="#000000" d="M366.3794,-72.5708C372.0395,-61.2506 379.3864,-46.5568 385.0305,-35.2687"/>
</g>
<!-- N8 -->
<g id="node28" class="node">
<title>N8</title>
<ellipse fill="none" stroke="#000000" cx="867.6648" cy="-162" rx="27" ry="18"/>
<text text-anchor="middle" x="867.6648" y="-157.8" font-family="Times,serif" font-size="14.00" fill="#000000">N8</text>
</g>
<!-- N12&#45;&#45;N8 -->
<g id="edge4" class="edge">
<title>N12&#45;&#45;N8</title>
<path fill="none" stroke="#000000" d="M867.6648,-215.8314C867.6648,-205 867.6648,-191.2876 867.6648,-180.4133"/>
</g>
<!-- N13&#45;&#45;N6 -->
<g id="edge29" class="edge">
<title>N13&#45;&#45;N6</title>
<path fill="none" stroke="#000000" d="M243.3502,-72.2022C246.8887,-61.1252 251.4239,-46.928 254.9651,-35.8425"/>
</g>
<!-- N33 -->
<g id="node23" class="node">
<title>N33</title>
<ellipse fill="none" stroke="#000000" cx="921.6648" cy="-378" rx="27.8306" ry="18"/>
<text text-anchor="middle" x="921.6648" y="-373.8" font-family="Times,serif" font-size="14.00" fill="#000000">N33</text>
</g>
<!-- N33&#45;&#45;N33 -->
<g id="edge25" class="edge">
<title>N33&#45;&#45;N33</title>
<path fill="none" stroke="#000000" d="M941.8538,-390.4321C954.8357,-393.6753 967.3296,-389.5313 967.3296,-378 967.3296,-366.4688 954.8357,-362.3247 941.8538,-365.5679"/>
</g>
<!-- N3&#45;&#45;N5 -->
<g id="edge10" class="edge">
<title>N3&#45;&#45;N5</title>
<path fill="none" stroke="#000000" d="M113.3721,-145.6621C122.5368,-133.8788 134.8546,-118.0416 144.0078,-106.2733"/>
</g>
<!-- N5&#45;&#45;N11 -->
<g id="edge33" class="edge">
<title>N5&#45;&#45;N11</title>
<path fill="none" stroke="#000000" d="M142.7778,-74.3771C132.0428,-62.3003 117.2529,-45.6616 106.5247,-33.5924"/>
</g>
<!-- N8&#45;&#45;N8 -->
<g id="edge16" class="edge">
<title>N8&#45;&#45;N8</title>
<path fill="none" stroke="#000000" d="M887.5598,-174.4321C900.3528,-177.6753 912.6648,-173.5313 912.6648,-162 912.6648,-150.4688 900.3528,-146.3247 887.5598,-149.5679"/>
</g>
<!-- N20&#45;&#45;N20 -->
<g id="edge11" class="edge">
<title>N20&#45;&#45;N20</title>
<path fill="none" stroke="#000000" d="M413.8538,-30.4321C426.8357,-33.6753 439.3296,-29.5313 439.3296,-18 439.3296,-6.4688 426.8357,-2.3247 413.8538,-5.5679"/>
</g>
</g>
</svg>
