<?xml version="1.0" encoding="UTF-8" standalone="no"?>
<!DOCTYPE svg PUBLIC "-//W3C//DTD SVG 1.1//EN"
 "http://www.w3.org/Graphics/SVG/1.1/DTD/svg11.dtd">
<!-- Generated by graphviz version 2.40.1 (20161225.0304)
 -->
<!-- Title: test_graph Pages: 1 -->
<svg width="741pt" height="740pt"
 viewBox="0.00 0.00 741.32 740.00" xmlns="http://www.w3.org/2000/svg" xmlns:xlink="http://www.w3.org/1999/xlink">
<g id="graph0" class="graph" transform="scale(1 1) rotate(0) translate(4 736)">
<title>test_graph</title>
<polygon fill="#ffffff" stroke="transparent" points="-4,4 -4,-736 737.3224,-736 737.3224,4 -4,4"/>
<!-- N24 -->
<g id="node1" class="node">
<title>N24</title>
<ellipse fill="none" stroke="#000000" cx="47.0177" cy="-302.3961" rx="27.8306" ry="18"/>
<text text-anchor="middle" x="47.0177" y="-298.1961" font-family="Times,serif" font-size="14.00" fill="#000000">N24</text>
</g>
<!-- N25 -->
<g id="node5" class="node">
<title>N25</title>
<ellipse fill="none" stroke="#000000" cx="45.3246" cy="-394.2296" rx="27.8306" ry="18"/>
<text text-anchor="middle" x="45.3246" y="-390.0296" font-family="Times,serif" font-size="14.00" fill="#000000">N25</text>
</g>
<!-- N24&#45;&#45;N25 -->
<g id="edge26" class="edge">
<title>N24&#45;&#45;N25</title>
<path fill="none" stroke="#000000" d="M46.6832,-320.5394C46.3863,-336.6391 45.955,-360.0357 45.6584,-376.1239"/>
</g>
<!-- N23 -->
<g id="node17" class="node">
<title>N23</title>
<ellipse fill="none" stroke="#000000" cx="138.5623" cy="-302.0257" rx="27.8306" ry="18"/>
<text text-anchor="middle" x="138.5623" y="-297.8257" font-family="Times,serif" font-size="14.00" fill="#000000">N23</text>
</g>
<!-- N24&#45;&#45;N23 -->
<g id="edge28" class="edge">
<title>N24&#45;&#45;N23</title>
<path fill="none" stroke="#000000" d="M74.9815,-302.2829C86.339,-302.237 99.4297,-302.184 110.7697,-302.1381"/>
</g>
<!-- N0 -->
<g id="node2" class="node">
<title>N0</title>
<ellipse fill="none" stroke="#000000" cx="395.4064" cy="-63.033" rx="27" ry="18"/>
<text text-anchor="middle" x="395.4064" y="-58.833" font-family="Times,serif" font-size="14.00" fill="#000000">N0</text>
</g>
<!-- N21 -->
<g id="node27" class="node">
<title>N21</title>
<ellipse fill="none" stroke="#000000" cx="391.9615" cy="-18.0028" rx="27.8306" ry="18"/>
<text text-anchor="middle" x="391.9615" y="-13.8028" font-family="Times,serif" font-size="14.00" fill="#000000">N21</text>
</g>
<!-- N0&#45;&#45;N21 -->
<g id="edge34" class="edge">
<title>N0&#45;&#45;N21</title>
<path fill="none" stroke="#000000" d="M394.025,-44.977C393.8004,-42.0408 393.5677,-38.9992 393.3431,-36.0629"/>
</g>
<!-- N10 -->
<g id="node34" class="node">
<title>N10</title>
<ellipse fill="none" stroke="#000000" cx="334.1625" cy="-158.5893" rx="27.8306" ry="18"/>
<text text-anchor="middle" x="334.1625" y="-154.3893" font-family="Times,serif" font-size="14.00" fill="#000000">N10</text>
</g>
<!-- N0&#45;&#45;N10 -->
<g id="edge27" class="edge">
<title>N0&#45;&#45;N10</title>
<path fill="none" stroke="#000000" d="M384.7385,-79.6776C373.5661,-97.1094 356.117,-124.3346 344.9136,-141.8148"/>
</g>
<!-- N1 -->
<g id="node3" class="node">
<title>N1</title>
<ellipse fill="none" stroke="#000000" cx="395.0818" cy="-113.8657" rx="27" ry="18"/>
<text text-anchor="middle" x="395.0818" y="-109.6657" font-family="Times,serif" font-size="14.00" fill="#000000">N1</text>
</g>
<!-- N1&#45;&#45;N21 -->
<g id="edge13" class="edge">
<title>N1&#45;&#45;N21</title>
<path fill="none" stroke="#000000" d="M394.4949,-95.8346C393.9406,-78.8043 393.1133,-53.3892 392.5564,-36.279"/>
</g>
<!-- N9 -->
<g id="node30" class="node">
<title>N9</title>
<ellipse fill="none" stroke="#000000" cx="481.7316" cy="-106.5402" rx="27" ry="18"/>
<text text-anchor="middle" x="481.7316" y="-102.3402" font-family="Times,serif" font-size="14.00" fill="#000000">N9</text>
</g>
<!-- N1&#45;&#45;N9 -->
<g id="edge39" class="edge">
<title>N1&#45;&#45;N9</title>
<path fill="none" stroke="#000000" d="M422.0233,-111.588C432.4562,-110.706 444.3754,-109.6983 454.8067,-108.8165"/>
</g>
<!-- N16 -->
<g id="node4" class="node">
<title>N16</title>
<ellipse fill="none" stroke="#000000" cx="483.1869" cy="-476.5635" rx="27.8306" ry="18"/>
<text text-anchor="middle" x="483.1869" y="-472.3635" font-family="Times,serif" font-size="14.00" fill="#000000">N16</text>
</g>
<!-- N2 -->
<g id="node11" class="node">
<title>N2</title>
<ellipse fill="none" stroke="#000000" cx="386.7027" cy="-505.5107" rx="27" ry="18"/>
<text text-anchor="middle" x="386.7027" y="-501.3107" font-family="Times,serif" font-size="14.00" fill="#000000">N2</text>
</g>
<!-- N16&#45;&#45;N2 -->
<g id="edge21" class="edge">
<title>N16&#45;&#45;N2</title>
<path fill="none" stroke="#000000" d="M457.8368,-484.169C443.5435,-488.4573 425.76,-493.7928 411.5498,-498.0561"/>
</g>
<!-- N34 -->
<g id="node16" class="node">
<title>N34</title>
<ellipse fill="none" stroke="#000000" cx="565.6576" cy="-436.0566" rx="27.8306" ry="18"/>
<text text-anchor="middle" x="565.6576" y="-431.8566" font-family="Times,serif" font-size="14.00" fill="#000000">N34</text>
</g>
<!-- N16&#45;&#45;N34 -->
<g id="edge20" class="edge">
<title>N16&#45;&#45;N34</title>
<path fill="none" stroke="#000000" d="M505.2875,-465.7084C517.1202,-459.8965 531.654,-452.758 543.496,-446.9417"/>
</g>
<!-- N26 -->
<g id="node12" class="node">
<title>N26</title>
<ellipse fill="none" stroke="#000000" cx="116.5916" cy="-465.6998" rx="27.8306" ry="18"/>
<text text-anchor="middle" x="116.5916" y="-461.4998" font-family="Times,serif" font-size="14.00" fill="#000000">N26</text>
</g>
<!-- N25&#45;&#45;N26 -->
<g id="edge35" class="edge">
<title>N25&#45;&#45;N26</title>
<path fill="none" stroke="#000000" d="M60.4385,-409.3866C72.5327,-421.5153 89.411,-438.4417 101.4995,-450.5646"/>
</g>
<!-- N22 -->
<g id="node6" class="node">
<title>N22</title>
<ellipse fill="none" stroke="#000000" cx="220.0573" cy="-353.9182" rx="27.8306" ry="18"/>
<text text-anchor="middle" x="220.0573" y="-349.7182" font-family="Times,serif" font-size="14.00" fill="#000000">N22</text>
</g>
<!-- N28 -->
<g id="node8" class="node">
<title>N28</title>
<ellipse fill="none" stroke="#000000" cx="281.7582" cy="-247.2449" rx="27.8306" ry="18"/>
<text text-anchor="middle" x="281.7582" y="-243.0449" font-family="Times,serif" font-size="14.00" fill="#000000">N28</text>
</g>
<!-- N22&#45;&#45;N28 -->
<g id="edge8" class="edge">
<title>N22&#45;&#45;N28</title>
<path fill="none" stroke="#000000" d="M229.9706,-336.7793C241.4847,-316.8729 260.3659,-284.2295 271.8695,-264.3413"/>
</g>
<!-- N22&#45;&#45;N23 -->
<g id="edge7" class="edge">
<title>N22&#45;&#45;N23</title>
<path fill="none" stroke="#000000" d="M199.9125,-341.0908C187.2803,-333.0472 171.0633,-322.7209 158.4754,-314.7055"/>
</g>
<!-- N29 -->
<g id="node29" class="node">
<title>N29</title>
<ellipse fill="none" stroke="#000000" cx="194.6452" cy="-453.6873" rx="27.8306" ry="18"/>
<text text-anchor="middle" x="194.6452" y="-449.4873" font-family="Times,serif" font-size="14.00" fill="#000000">N29</text>
</g>
<!-- N22&#45;&#45;N29 -->
<g id="edge3" class="edge">
<title>N22&#45;&#45;N29</title>
<path fill="none" stroke="#000000" d="M215.5141,-371.7549C210.9172,-389.8027 203.8482,-417.5559 199.2348,-435.6686"/>
</g>
<!-- N4 -->
<g id="node7" class="node">
<title>N4</title>
<ellipse fill="none" stroke="#000000" cx="56.2354" cy="-713.6468" rx="27" ry="18"/>
<text text-anchor="middle" x="56.2354" y="-709.4468" font-family="Times,serif" font-size="14.00" fill="#000000">N4</text>
</g>
<!-- N14 -->
<g id="node19" class="node">
<title>N14</title>
<ellipse fill="none" stroke="#000000" cx="27.5287" cy="-663.7416" rx="27.8306" ry="18"/>
<text text-anchor="middle" x="27.5287" y="-659.5416" font-family="Times,serif" font-size="14.00" fill="#000000">N14</text>
</g>
<!-- N4&#45;&#45;N14 -->
<g id="edge19" class="edge">
<title>N4&#45;&#45;N14</title>
<path fill="none" stroke="#000000" d="M46.5166,-696.7512C43.5237,-691.5482 40.2296,-685.8216 37.2374,-680.6198"/>
</g>
<!-- N30 -->
<g id="node25" class="node">
<title>N30</title>
<ellipse fill="none" stroke="#000000" cx="137.0222" cy="-672.3457" rx="27.8306" ry="18"/>
<text text-anchor="middle" x="137.0222" y="-668.1457" font-family="Times,serif" font-size="14.00" fill="#000000">N30</text>
</g>
<!-- N4&#45;&#45;N30 -->
<g id="edge37" class="edge">
<title>N4&#45;&#45;N30</title>
<path fill="none" stroke="#000000" d="M77.8848,-702.5789C89.3824,-696.7009 103.4834,-689.4919 115.0319,-683.5879"/>
</g>
<!-- N28&#45;&#45;N10 -->
<g id="edge23" class="edge">
<title>N28&#45;&#45;N10</title>
<path fill="none" stroke="#000000" d="M291.8623,-230.1512C301.1419,-214.4523 314.8196,-191.3128 324.0894,-175.6305"/>
</g>
<!-- N17 -->
<g id="node9" class="node">
<title>N17</title>
<ellipse fill="none" stroke="#000000" cx="354.6379" cy="-422.2193" rx="27.8306" ry="18"/>
<text text-anchor="middle" x="354.6379" y="-418.0193" font-family="Times,serif" font-size="14.00" fill="#000000">N17</text>
</g>
<!-- N17&#45;&#45;N2 -->
<g id="edge1" class="edge">
<title>N17&#45;&#45;N2</title>
<path fill="none" stroke="#000000" d="M361.438,-439.8833C366.8795,-454.0181 374.4734,-473.7441 379.9123,-487.8722"/>
</g>
<!-- N32 -->
<g id="node15" class="node">
<title>N32</title>
<ellipse fill="none" stroke="#000000" cx="414.3817" cy="-354.7029" rx="27.8306" ry="18"/>
<text text-anchor="middle" x="414.3817" y="-350.5029" font-family="Times,serif" font-size="14.00" fill="#000000">N32</text>
</g>
<!-- N17&#45;&#45;N32 -->
<g id="edge5" class="edge">
<title>N17&#45;&#45;N32</title>
<path fill="none" stroke="#000000" d="M368.4945,-406.56C378.0083,-395.8083 390.5994,-381.5792 400.1854,-370.7461"/>
</g>
<!-- N19 -->
<g id="node10" class="node">
<title>N19</title>
<ellipse fill="none" stroke="#000000" cx="486.4142" cy="-599.2794" rx="27.8306" ry="18"/>
<text text-anchor="middle" x="486.4142" y="-595.0794" font-family="Times,serif" font-size="14.00" fill="#000000">N19</text>
</g>
<!-- N11 -->
<g id="node31" class="node">
<title>N11</title>
<ellipse fill="none" stroke="#000000" cx="387.2357" cy="-600.8812" rx="27.8306" ry="18"/>
<text text-anchor="middle" x="387.2357" y="-596.6812" font-family="Times,serif" font-size="14.00" fill="#000000">N11</text>
</g>
<!-- N19&#45;&#45;N11 -->
<g id="edge12" class="edge">
<title>N19&#45;&#45;N11</title>
<path fill="none" stroke="#000000" d="M458.5235,-599.7299C444.8876,-599.9501 428.5249,-600.2144 414.917,-600.4341"/>
</g>
<!-- N15 -->
<g id="node35" class="node">
<title>N15</title>
<ellipse fill="none" stroke="#000000" cx="555.7078" cy="-528.7531" rx="27.8306" ry="18"/>
<text text-anchor="middle" x="555.7078" y="-524.5531" font-family="Times,serif" font-size="14.00" fill="#000000">N15</text>
</g>
<!-- N19&#45;&#45;N15 -->
<g id="edge17" class="edge">
<title>N19&#45;&#45;N15</title>
<path fill="none" stroke="#000000" d="M501.4499,-583.9763C513.0728,-572.1466 529.086,-555.8485 540.7015,-544.0264"/>
</g>
<!-- N5 -->
<g id="node26" class="node">
<title>N5</title>
<ellipse fill="none" stroke="#000000" cx="306.9958" cy="-550.4126" rx="27" ry="18"/>
<text text-anchor="middle" x="306.9958" y="-546.2126" font-family="Times,serif" font-size="14.00" fill="#000000">N5</text>
</g>
<!-- N2&#45;&#45;N5 -->
<g id="edge40" class="edge">
<title>N2&#45;&#45;N5</title>
<path fill="none" stroke="#000000" d="M365.7606,-517.3082C354.045,-523.908 339.4909,-532.1069 327.798,-538.694"/>
</g>
<!-- N3 -->
<g id="node24" class="node">
<title>N3</title>
<ellipse fill="none" stroke="#000000" cx="203.2075" cy="-512.9519" rx="27" ry="18"/>
<text text-anchor="middle" x="203.2075" y="-508.7519" font-family="Times,serif" font-size="14.00" fill="#000000">N3</text>
</g>
<!-- N26&#45;&#45;N3 -->
<g id="edge6" class="edge">
<title>N26&#45;&#45;N3</title>
<path fill="none" stroke="#000000" d="M138.0023,-477.3801C151.4282,-484.7044 168.6642,-494.1073 182.0431,-501.406"/>
</g>
<!-- N31 -->
<g id="node13" class="node">
<title>N31</title>
<ellipse fill="none" stroke="#000000" cx="567.2251" cy="-145.5041" rx="27.8306" ry="18"/>
<text text-anchor="middle" x="567.2251" y="-141.3041" font-family="Times,serif" font-size="14.00" fill="#000000">N31</text>
</g>
<!-- N31&#45;&#45;N9 -->
<g id="edge18" class="edge">
<title>N31&#45;&#45;N9</title>
<path fill="none" stroke="#000000" d="M544.3144,-135.0625C531.8501,-129.3818 516.4948,-122.3836 504.1137,-116.7409"/>
</g>
<!-- N6 -->
<g id="node32" class="node">
<title>N6</title>
<ellipse fill="none" stroke="#000000" cx="608.8946" cy="-234.8205" rx="27" ry="18"/>
<text text-anchor="middle" x="608.8946" y="-230.6205" font-family="Times,serif" font-size="14.00" fill="#000000">N6</text>
</g>
<!-- N31&#45;&#45;N6 -->
<g id="edge38" class="edge">
<title>N31&#45;&#45;N6</title>
<path fill="none" stroke="#000000" d="M575.4576,-163.1501C582.8103,-178.9102 593.5171,-201.8597 600.8209,-217.5151"/>
</g>
<!-- N7 -->
<g id="node14" class="node">
<title>N7</title>
<ellipse fill="none" stroke="#000000" cx="688.3224" cy="-383.6997" rx="27" ry="18"/>
<text text-anchor="middle" x="688.3224" y="-379.4997" font-family="Times,serif" font-size="14.00" fill="#000000">N7</text>
</g>
<!-- N7&#45;&#45;N7 -->
<g id="edge24" class="edge">
<title>N7&#45;&#45;N7</title>
<path fill="none" stroke="#000000" d="M713.7659,-390.3903C724.3503,-390.8518 733.3224,-388.6215 733.3224,-383.6997 733.3224,-378.7778 724.3503,-376.5476 713.7659,-377.009"/>
</g>
<!-- N20 -->
<g id="node33" class="node">
<title>N20</title>
<ellipse fill="none" stroke="#000000" cx="597.0612" cy="-381.8611" rx="27.8306" ry="18"/>
<text text-anchor="middle" x="597.0612" y="-377.6611" font-family="Times,serif" font-size="14.00" fill="#000000">N20</text>
</g>
<!-- N7&#45;&#45;N20 -->
<g id="edge9" class="edge">
<title>N7&#45;&#45;N20</title>
<path fill="none" stroke="#000000" d="M660.9411,-383.148C649.4954,-382.9174 636.2157,-382.6499 624.7387,-382.4187"/>
</g>
<!-- N18 -->
<g id="node20" class="node">
<title>N18</title>
<ellipse fill="none" stroke="#000000" cx="507.1594" cy="-350.1331" rx="27.8306" ry="18"/>
<text text-anchor="middle" x="507.1594" y="-345.9331" font-family="Times,serif" font-size="14.00" fill="#000000">N18</text>
</g>
<!-- N32&#45;&#45;N18 -->
<g id="edge14" class="edge">
<title>N32&#45;&#45;N18</title>
<path fill="none" stroke="#000000" d="M442.218,-353.3318C453.9607,-352.7534 467.6022,-352.0815 479.3427,-351.5032"/>
</g>
<!-- N13 -->
<g id="node22" class="node">
<title>N13</title>
<ellipse fill="none" stroke="#000000" cx="601.9722" cy="-329.7144" rx="27.8306" ry="18"/>
<text text-anchor="middle" x="601.9722" y="-325.5144" font-family="Times,serif" font-size="14.00" fill="#000000">N13</text>
</g>
<!-- N34&#45;&#45;N13 -->
<g id="edge32" class="edge">
<title>N34&#45;&#45;N13</title>
<path fill="none" stroke="#000000" d="M571.8179,-418.0171C578.5361,-398.3436 589.2207,-367.0554 595.9029,-347.4875"/>
</g>
<!-- N34&#45;&#45;N15 -->
<g id="edge22" class="edge">
<title>N34&#45;&#45;N15</title>
<path fill="none" stroke="#000000" d="M563.6918,-454.3704C561.9362,-470.7269 559.3796,-494.5449 557.6356,-510.7927"/>
</g>
<!-- N27 -->
<g id="node18" class="node">
<title>N27</title>
<ellipse fill="none" stroke="#000000" cx="164.8058" cy="-566.6506" rx="27.8306" ry="18"/>
<text text-anchor="middle" x="164.8058" y="-562.4506" font-family="Times,serif" font-size="14.00" fill="#000000">N27</text>
</g>
<!-- N27&#45;&#45;N30 -->
<g id="edge31" class="edge">
<title>N27&#45;&#45;N30</title>
<path fill="none" stroke="#000000" d="M160.0927,-584.5803C154.9837,-604.0163 146.8765,-634.8577 141.7585,-654.328"/>
</g>
<!-- N27&#45;&#45;N29 -->
<g id="edge15" class="edge">
<title>N27&#45;&#45;N29</title>
<path fill="none" stroke="#000000" d="M169.534,-548.7512C175.1213,-527.5991 184.3615,-492.6185 189.9392,-471.5029"/>
</g>
<!-- N14&#45;&#45;N14 -->
<g id="edge2" class="edge">
<title>N14&#45;&#45;N14</title>
<path fill="none" stroke="#000000" d="M53.348,-670.4323C64.0887,-670.8937 73.1935,-668.6635 73.1935,-663.7416 73.1935,-658.8197 64.0887,-656.5895 53.348,-657.0509"/>
</g>
<!-- N12 -->
<g id="node21" class="node">
<title>N12</title>
<ellipse fill="none" stroke="#000000" cx="110.9467" cy="-627.8319" rx="27.8306" ry="18"/>
<text text-anchor="middle" x="110.9467" y="-623.6319" font-family="Times,serif" font-size="14.00" fill="#000000">N12</text>
</g>
<!-- N14&#45;&#45;N12 -->
<g id="edge36" class="edge">
<title>N14&#45;&#45;N12</title>
<path fill="none" stroke="#000000" d="M50.7652,-653.7387C62.3353,-648.7581 76.2819,-642.7544 87.8348,-637.7811"/>
</g>
<!-- N18&#45;&#45;N20 -->
<g id="edge30" class="edge">
<title>N18&#45;&#45;N20</title>
<path fill="none" stroke="#000000" d="M531.7255,-358.8029C544.4107,-363.2798 559.8439,-368.7264 572.5249,-373.2017"/>
</g>
<!-- N8 -->
<g id="node28" class="node">
<title>N8</title>
<ellipse fill="none" stroke="#000000" cx="202.662" cy="-697.4898" rx="27" ry="18"/>
<text text-anchor="middle" x="202.662" y="-693.2898" font-family="Times,serif" font-size="14.00" fill="#000000">N8</text>
</g>
<!-- N12&#45;&#45;N8 -->
<g id="edge4" class="edge">
<title>N12&#45;&#45;N8</title>
<path fill="none" stroke="#000000" d="M129.0667,-641.594C145.1457,-653.806 168.5121,-671.5529 184.5797,-683.7562"/>
</g>
<!-- N13&#45;&#45;N6 -->
<g id="edge29" class="edge">
<title>N13&#45;&#45;N6</title>
<path fill="none" stroke="#000000" d="M603.3069,-311.4179C604.5327,-294.6144 606.3395,-269.8466 607.564,-253.0609"/>
</g>
<!-- N33 -->
<g id="node23" class="node">
<title>N33</title>
<ellipse fill="none" stroke="#000000" cx="139.2381" cy="-241.6409" rx="27.8306" ry="18"/>
<text text-anchor="middle" x="139.2381" y="-237.4409" font-family="Times,serif" font-size="14.00" fill="#000000">N33</text>
</g>
<!-- N33&#45;&#45;N33 -->
<g id="edge25" class="edge">
<title>N33&#45;&#45;N33</title>
<path fill="none" stroke="#000000" d="M165.0575,-248.3316C175.7982,-248.793 184.9029,-246.5628 184.9029,-241.6409 184.9029,-236.719 175.7982,-234.4888 165.0575,-234.9502"/>
</g>
<!-- N3&#45;&#45;N5 -->
<g id="edge10" class="edge">
<title>N3&#45;&#45;N5</title>
<path fill="none" stroke="#000000" d="M227.0187,-521.5461C243.7759,-527.5944 266.1239,-535.6605 282.9361,-541.7286"/>
</g>
<!-- N5&#45;&#45;N11 -->
<g id="edge33" class="edge">
<title>N5&#45;&#45;N11</title>
<path fill="none" stroke="#000000" d="M326.8304,-562.888C339.0823,-570.5941 354.7594,-580.4545 367.0719,-588.1988"/>
</g>
<!-- N8&#45;&#45;N8 -->
<g id="edge16" class="edge">
<title>N8&#45;&#45;N8</title>
<path fill="none" stroke="#000000" d="M228.1055,-704.1804C238.6898,-704.6419 247.662,-702.4116 247.662,-697.4898 247.662,-692.5679 238.6898,-690.3377 228.1055,-690.7991"/>
</g>
<!-- N20&#45;&#45;N20 -->
<g id="edge11" class="edge">
<title>N20&#45;&#45;N20</title>
<path fill="none" stroke="#000000" d="M622.8806,-388.5517C633.6213,-389.0132 642.726,-386.783 642.726,-381.8611 642.726,-376.9392 633.6213,-374.709 622.8806,-375.1704"/>
</g>
</g>
</svg>
