<?xml version="1.0" encoding="UTF-8" standalone="no"?>
<!DOCTYPE svg PUBLIC "-//W3C//DTD SVG 1.1//EN"
 "http://www.w3.org/Graphics/SVG/1.1/DTD/svg11.dtd">
<!-- Generated by graphviz version 2.40.1 (20161225.0304)
 -->
<!-- Title: test_graph Pages: 1 -->
<svg width="1411pt" height="1359pt"
 viewBox="0.00 0.00 1411.00 1359.00" xmlns="http://www.w3.org/2000/svg" xmlns:xlink="http://www.w3.org/1999/xlink">
<g id="graph0" class="graph" transform="scale(1 1) rotate(0) translate(4 1355)">
<title>test_graph</title>
<polygon fill="#ffffff" stroke="transparent" points="-4,4 -4,-1355 1407,-1355 1407,4 -4,4"/>
<!-- N23 -->
<g id="node1" class="node">
<title>N23</title>
<ellipse fill="none" stroke="#000000" cx="90.3321" cy="-523.1519" rx="27.8306" ry="18"/>
<text text-anchor="middle" x="90.3321" y="-518.9519" font-family="Times,serif" font-size="14.00" fill="#000000">N23</text>
</g>
<!-- N9 -->
<g id="node2" class="node">
<title>N9</title>
<ellipse fill="none" stroke="#000000" cx="512.1894" cy="-621.0603" rx="27" ry="18"/>
<text text-anchor="middle" x="512.1894" y="-616.8603" font-family="Times,serif" font-size="14.00" fill="#000000">N9</text>
</g>
<!-- N10 -->
<g id="node3" class="node">
<title>N10</title>
<ellipse fill="none" stroke="#000000" cx="310.8881" cy="-743.0023" rx="27.8306" ry="18"/>
<text text-anchor="middle" x="310.8881" y="-738.8023" font-family="Times,serif" font-size="14.00" fill="#000000">N10</text>
</g>
<!-- N43 -->
<g id="node4" class="node">
<title>N43</title>
<ellipse fill="none" stroke="#000000" cx="117.1957" cy="-1031.7919" rx="27.8306" ry="18"/>
<text text-anchor="middle" x="117.1957" y="-1027.5919" font-family="Times,serif" font-size="14.00" fill="#000000">N43</text>
</g>
<!-- N4 -->
<g id="node5" class="node">
<title>N4</title>
<ellipse fill="none" stroke="#000000" cx="426.0324" cy="-603.7733" rx="27" ry="18"/>
<text text-anchor="middle" x="426.0324" y="-599.5733" font-family="Times,serif" font-size="14.00" fill="#000000">N4</text>
</g>
<!-- N16 -->
<g id="node6" class="node">
<title>N16</title>
<ellipse fill="none" stroke="#000000" cx="813.5948" cy="-661.7297" rx="27.8306" ry="18"/>
<text text-anchor="middle" x="813.5948" y="-657.5297" font-family="Times,serif" font-size="14.00" fill="#000000">N16</text>
</g>
<!-- N28 -->
<g id="node7" class="node">
<title>N28</title>
<ellipse fill="none" stroke="#000000" cx="1227.2141" cy="-1005.2146" rx="27.8306" ry="18"/>
<text text-anchor="middle" x="1227.2141" y="-1001.0146" font-family="Times,serif" font-size="14.00" fill="#000000">N28</text>
</g>
<!-- N35 -->
<g id="node8" class="node">
<title>N35</title>
<ellipse fill="none" stroke="#000000" cx="1322.1376" cy="-712.2268" rx="27.8306" ry="18"/>
<text text-anchor="middle" x="1322.1376" y="-708.0268" font-family="Times,serif" font-size="14.00" fill="#000000">N35</text>
</g>
<!-- N39 -->
<g id="node9" class="node">
<title>N39</title>
<ellipse fill="none" stroke="#000000" cx="959.7369" cy="-48.02" rx="27.8306" ry="18"/>
<text text-anchor="middle" x="959.7369" y="-43.82" font-family="Times,serif" font-size="14.00" fill="#000000">N39</text>
</g>
<!-- N20 -->
<g id="node10" class="node">
<title>N20</title>
<ellipse fill="none" stroke="#000000" cx="1078.0859" cy="-350.528" rx="27.8306" ry="18"/>
<text text-anchor="middle" x="1078.0859" y="-346.328" font-family="Times,serif" font-size="14.00" fill="#000000">N20</text>
</g>
<!-- N41 -->
<g id="node11" class="node">
<title>N41</title>
<ellipse fill="none" stroke="#000000" cx="1035.3006" cy="-25.0923" rx="27.8306" ry="18"/>
<text text-anchor="middle" x="1035.3006" y="-20.8923" font-family="Times,serif" font-size="14.00" fill="#000000">N41</text>
</g>
<!-- N22 -->
<g id="node12" class="node">
<title>N22</title>
<ellipse fill="none" stroke="#000000" cx="1112.8017" cy="-428.2766" rx="27.8306" ry="18"/>
<text text-anchor="middle" x="1112.8017" y="-424.0766" font-family="Times,serif" font-size="14.00" fill="#000000">N22</text>
</g>
<!-- N38 -->
<g id="node13" class="node">
<title>N38</title>
<ellipse fill="none" stroke="#000000" cx="1206.7699" cy="-120.8091" rx="27.8306" ry="18"/>
<text text-anchor="middle" x="1206.7699" y="-116.6091" font-family="Times,serif" font-size="14.00" fill="#000000">N38</text>
</g>
<!-- N14 -->
<g id="node14" class="node">
<title>N14</title>
<ellipse fill="none" stroke="#000000" cx="923.9816" cy="-886.9347" rx="27.8306" ry="18"/>
<text text-anchor="middle" x="923.9816" y="-882.7347" font-family="Times,serif" font-size="14.00" fill="#000000">N14</text>
</g>
<!-- N37 -->
<g id="node15" class="node">
<title>N37</title>
<ellipse fill="none" stroke="#000000" cx="1178.2059" cy="-68.6294" rx="27.8306" ry="18"/>
<text text-anchor="middle" x="1178.2059" y="-64.4294" font-family="Times,serif" font-size="14.00" fill="#000000">N37</text>
</g>
<!-- N34 -->
<g id="node16" class="node">
<title>N34</title>
<ellipse fill="none" stroke="#000000" cx="1375.2299" cy="-843.6048" rx="27.8306" ry="18"/>
<text text-anchor="middle" x="1375.2299" y="-839.4048" font-family="Times,serif" font-size="14.00" fill="#000000">N34</text>
</g>
<!-- N32 -->
<g id="node17" class="node">
<title>N32</title>
<ellipse fill="none" stroke="#000000" cx="1245.3731" cy="-679.3551" rx="27.8306" ry="18"/>
<text text-anchor="middle" x="1245.3731" y="-675.1551" font-family="Times,serif" font-size="14.00" fill="#000000">N32</text>
</g>
<!-- N36 -->
<g id="node18" class="node">
<title>N36</title>
<ellipse fill="none" stroke="#000000" cx="1354.1369" cy="-903.6781" rx="27.8306" ry="18"/>
<text text-anchor="middle" x="1354.1369" y="-899.4781" font-family="Times,serif" font-size="14.00" fill="#000000">N36</text>
</g>
<!-- N26 -->
<g id="node19" class="node">
<title>N26</title>
<ellipse fill="none" stroke="#000000" cx="159.2747" cy="-483.2648" rx="27.8306" ry="18"/>
<text text-anchor="middle" x="159.2747" y="-479.0648" font-family="Times,serif" font-size="14.00" fill="#000000">N26</text>
</g>
<!-- N44 -->
<g id="node20" class="node">
<title>N44</title>
<ellipse fill="none" stroke="#000000" cx="88.7322" cy="-959.8512" rx="27.8306" ry="18"/>
<text text-anchor="middle" x="88.7322" y="-955.6512" font-family="Times,serif" font-size="14.00" fill="#000000">N44</text>
</g>
<!-- N2 -->
<g id="node21" class="node">
<title>N2</title>
<ellipse fill="none" stroke="#000000" cx="324.7946" cy="-836.1794" rx="27" ry="18"/>
<text text-anchor="middle" x="324.7946" y="-831.9794" font-family="Times,serif" font-size="14.00" fill="#000000">N2</text>
</g>
<!-- N25 -->
<g id="node22" class="node">
<title>N25</title>
<ellipse fill="none" stroke="#000000" cx="40.2931" cy="-703.4319" rx="27.8306" ry="18"/>
<text text-anchor="middle" x="40.2931" y="-699.2319" font-family="Times,serif" font-size="14.00" fill="#000000">N25</text>
</g>
<!-- N21 -->
<g id="node23" class="node">
<title>N21</title>
<ellipse fill="none" stroke="#000000" cx="822.8994" cy="-351.6062" rx="27.8306" ry="18"/>
<text text-anchor="middle" x="822.8994" y="-347.4062" font-family="Times,serif" font-size="14.00" fill="#000000">N21</text>
</g>
<!-- N8 -->
<g id="node24" class="node">
<title>N8</title>
<ellipse fill="none" stroke="#000000" cx="391.7312" cy="-916.8917" rx="27" ry="18"/>
<text text-anchor="middle" x="391.7312" y="-912.6917" font-family="Times,serif" font-size="14.00" fill="#000000">N8</text>
</g>
<!-- N24 -->
<g id="node25" class="node">
<title>N24</title>
<ellipse fill="none" stroke="#000000" cx="47.0243" cy="-574.5297" rx="27.8306" ry="18"/>
<text text-anchor="middle" x="47.0243" y="-570.3297" font-family="Times,serif" font-size="14.00" fill="#000000">N24</text>
</g>
<!-- N17 -->
<g id="node26" class="node">
<title>N17</title>
<ellipse fill="none" stroke="#000000" cx="890.5303" cy="-297.8447" rx="27.8306" ry="18"/>
<text text-anchor="middle" x="890.5303" y="-293.6447" font-family="Times,serif" font-size="14.00" fill="#000000">N17</text>
</g>
<!-- N31 -->
<g id="node27" class="node">
<title>N31</title>
<ellipse fill="none" stroke="#000000" cx="1325.0712" cy="-961.5624" rx="27.8306" ry="18"/>
<text text-anchor="middle" x="1325.0712" y="-957.3624" font-family="Times,serif" font-size="14.00" fill="#000000">N31</text>
</g>
<!-- N42 -->
<g id="node28" class="node">
<title>N42</title>
<ellipse fill="none" stroke="#000000" cx="177.7249" cy="-1082.1114" rx="27.8306" ry="18"/>
<text text-anchor="middle" x="177.7249" y="-1077.9114" font-family="Times,serif" font-size="14.00" fill="#000000">N42</text>
</g>
<!-- N5 -->
<g id="node29" class="node">
<title>N5</title>
<ellipse fill="none" stroke="#000000" cx="480.4468" cy="-926.3871" rx="27" ry="18"/>
<text text-anchor="middle" x="480.4468" y="-922.1871" font-family="Times,serif" font-size="14.00" fill="#000000">N5</text>
</g>
<!-- N27 -->
<g id="node30" class="node">
<title>N27</title>
<ellipse fill="none" stroke="#000000" cx="27.6559" cy="-637.0063" rx="27.8306" ry="18"/>
<text text-anchor="middle" x="27.6559" y="-632.8063" font-family="Times,serif" font-size="14.00" fill="#000000">N27</text>
</g>
<!-- N40 -->
<g id="node31" class="node">
<title>N40</title>
<ellipse fill="none" stroke="#000000" cx="1102.7511" cy="-18.2462" rx="27.8306" ry="18"/>
<text text-anchor="middle" x="1102.7511" y="-14.0462" font-family="Times,serif" font-size="14.00" fill="#000000">N40</text>
</g>
<!-- N30 -->
<g id="node32" class="node">
<title>N30</title>
<ellipse fill="none" stroke="#000000" cx="1368.388" cy="-773.5701" rx="27.8306" ry="18"/>
<text text-anchor="middle" x="1368.388" y="-769.3701" font-family="Times,serif" font-size="14.00" fill="#000000">N30</text>
</g>
<!-- N33 -->
<g id="node33" class="node">
<title>N33</title>
<ellipse fill="none" stroke="#000000" cx="1285.1037" cy="-800.8584" rx="27.8306" ry="18"/>
<text text-anchor="middle" x="1285.1037" y="-796.6584" font-family="Times,serif" font-size="14.00" fill="#000000">N33</text>
</g>
<!-- N7 -->
<g id="node34" class="node">
<title>N7</title>
<ellipse fill="none" stroke="#000000" cx="357.2778" cy="-650.9609" rx="27" ry="18"/>
<text text-anchor="middle" x="357.2778" y="-646.7609" font-family="Times,serif" font-size="14.00" fill="#000000">N7</text>
</g>
<!-- N29 -->
<g id="node35" class="node">
<title>N29</title>
<ellipse fill="none" stroke="#000000" cx="1249.6137" cy="-953.296" rx="27.8306" ry="18"/>
<text text-anchor="middle" x="1249.6137" y="-949.096" font-family="Times,serif" font-size="14.00" fill="#000000">N29</text>
</g>
<!-- N19 -->
<g id="node36" class="node">
<title>N19</title>
<ellipse fill="none" stroke="#000000" cx="985.7285" cy="-304.7675" rx="27.8306" ry="18"/>
<text text-anchor="middle" x="985.7285" y="-300.5675" font-family="Times,serif" font-size="14.00" fill="#000000">N19</text>
</g>
<!-- N45 -->
<g id="node37" class="node">
<title>N45</title>
<ellipse fill="none" stroke="#000000" cx="773.2813" cy="-1299.8668" rx="27.8306" ry="18"/>
<text text-anchor="middle" x="773.2813" y="-1295.6668" font-family="Times,serif" font-size="14.00" fill="#000000">N45</text>
</g>
<!-- N46 -->
<g id="node38" class="node">
<title>N46</title>
<ellipse fill="none" stroke="#000000" cx="1014.1854" cy="-1245.5395" rx="27.8306" ry="18"/>
<text text-anchor="middle" x="1014.1854" y="-1241.3395" font-family="Times,serif" font-size="14.00" fill="#000000">N46</text>
</g>
<!-- N47 -->
<g id="node39" class="node">
<title>N47</title>
<ellipse fill="none" stroke="#000000" cx="734.9408" cy="-1246.0841" rx="27.8306" ry="18"/>
<text text-anchor="middle" x="734.9408" y="-1241.8841" font-family="Times,serif" font-size="14.00" fill="#000000">N47</text>
</g>
<!-- N48 -->
<g id="node40" class="node">
<title>N48</title>
<ellipse fill="none" stroke="#000000" cx="865.9522" cy="-1333.0872" rx="27.8306" ry="18"/>
<text text-anchor="middle" x="865.9522" y="-1328.8872" font-family="Times,serif" font-size="14.00" fill="#000000">N48</text>
</g>
<!-- N49 -->
<g id="node41" class="node">
<title>N49</title>
<ellipse fill="none" stroke="#000000" cx="711.6021" cy="-1174.3328" rx="27.8306" ry="18"/>
<text text-anchor="middle" x="711.6021" y="-1170.1328" font-family="Times,serif" font-size="14.00" fill="#000000">N49</text>
</g>
<!-- N50 -->
<g id="node42" class="node">
<title>N50</title>
<ellipse fill="none" stroke="#000000" cx="952.9946" cy="-1315.3681" rx="27.8306" ry="18"/>
<text text-anchor="middle" x="952.9946" y="-1311.1681" font-family="Times,serif" font-size="14.00" fill="#000000">N50</text>
</g>
<!-- N51 -->
<g id="node43" class="node">
<title>N51</title>
<ellipse fill="none" stroke="#000000" cx="939.8579" cy="-1258.8155" rx="27.8306" ry="18"/>
<text text-anchor="middle" x="939.8579" y="-1254.6155" font-family="Times,serif" font-size="14.00" fill="#000000">N51</text>
</g>
<!-- N52 -->
<g id="node44" class="node">
<title>N52</title>
<ellipse fill="none" stroke="#000000" cx="1026.5169" cy="-1169.6263" rx="27.8306" ry="18"/>
<text text-anchor="middle" x="1026.5169" y="-1165.4263" font-family="Times,serif" font-size="14.00" fill="#000000">N52</text>
</g>
<!-- N53 -->
<g id="node45" class="node">
<title>N53</title>
<ellipse fill="none" stroke="#000000" cx="850.8746" cy="-1268.9504" rx="27.8306" ry="18"/>
<text text-anchor="middle" x="850.8746" y="-1264.7504" font-family="Times,serif" font-size="14.00" fill="#000000">N53</text>
</g>
<!-- Root -->
<g id="node46" class="node">
<title>Root</title>
<ellipse fill="none" stroke="#000000" cx="484.6897" cy="-771.9103" rx="29.6358" ry="18"/>
<text text-anchor="middle" x="484.6897" y="-767.7103" font-family="Times,serif" font-size="14.00" fill="#000000">Root</text>
</g>
<!-- Root&#45;&#45;N9 -->
<g id="edge8" class="edge">
<title>Root&#45;&#45;N9</title>
<path fill="none" stroke="#000000" d="M487.9522,-754.0135C493.2448,-724.9811 503.6413,-667.9513 508.9311,-638.9339"/>
</g>
<!-- Root&#45;&#45;N10 -->
<g id="edge9" class="edge">
<title>Root&#45;&#45;N10</title>
<path fill="none" stroke="#000000" d="M455.5992,-767.0718C422.7433,-761.6069 369.7096,-752.7859 337.7855,-747.4761"/>
</g>
<!-- Root&#45;&#45;N4 -->
<g id="edge3" class="edge">
<title>Root&#45;&#45;N4</title>
<path fill="none" stroke="#000000" d="M478.5232,-754.2345C467.2576,-721.9424 443.4739,-653.7681 432.2043,-621.4646"/>
</g>
<!-- Root&#45;&#45;N2 -->
<g id="edge1" class="edge">
<title>Root&#45;&#45;N2</title>
<path fill="none" stroke="#000000" d="M459.7061,-781.9524C429.1402,-794.2382 377.7991,-814.8745 348.0447,-826.8342"/>
</g>
<!-- Root&#45;&#45;N8 -->
<g id="edge7" class="edge">
<title>Root&#45;&#45;N8</title>
<path fill="none" stroke="#000000" d="M473.8442,-788.8253C455.9321,-816.7617 420.3742,-872.219 402.5076,-900.0845"/>
</g>
<!-- Root&#45;&#45;N5 -->
<g id="edge4" class="edge">
<title>Root&#45;&#45;N5</title>
<path fill="none" stroke="#000000" d="M484.1947,-789.9331C483.3815,-819.54 481.7715,-878.1575 480.9519,-908.0003"/>
</g>
<!-- Root&#45;&#45;N7 -->
<g id="edge6" class="edge">
<title>Root&#45;&#45;N7</title>
<path fill="none" stroke="#000000" d="M468.5529,-756.592C443.9107,-733.1997 397.2068,-688.8647 372.8851,-665.7765"/>
</g>
<!-- N3 -->
<g id="node47" class="node">
<title>N3</title>
<ellipse fill="none" stroke="#000000" cx="260.1218" cy="-930.0921" rx="27" ry="18"/>
<text text-anchor="middle" x="260.1218" y="-925.8921" font-family="Times,serif" font-size="14.00" fill="#000000">N3</text>
</g>
<!-- Root&#45;&#45;N3 -->
<g id="edge2" class="edge">
<title>Root&#45;&#45;N3</title>
<path fill="none" stroke="#000000" d="M465.1536,-785.6712C422.3625,-815.8125 320.8317,-887.3291 278.8198,-916.9216"/>
</g>
<!-- N6 -->
<g id="node48" class="node">
<title>N6</title>
<ellipse fill="none" stroke="#000000" cx="843.0208" cy="-786.3762" rx="27" ry="18"/>
<text text-anchor="middle" x="843.0208" y="-782.1762" font-family="Times,serif" font-size="14.00" fill="#000000">N6</text>
</g>
<!-- Root&#45;&#45;N6 -->
<g id="edge5" class="edge">
<title>Root&#45;&#45;N6</title>
<path fill="none" stroke="#000000" d="M514.6245,-773.1188C583.0841,-775.8825 750.2175,-782.6297 815.8891,-785.2809"/>
</g>
<!-- N11 -->
<g id="node49" class="node">
<title>N11</title>
<ellipse fill="none" stroke="#000000" cx="208.2192" cy="-651.521" rx="27.8306" ry="18"/>
<text text-anchor="middle" x="208.2192" y="-647.321" font-family="Times,serif" font-size="14.00" fill="#000000">N11</text>
</g>
<!-- Root&#45;&#45;N11 -->
<g id="edge10" class="edge">
<title>Root&#45;&#45;N11</title>
<path fill="none" stroke="#000000" d="M460.1548,-761.2266C407.2933,-738.208 283.2586,-684.197 231.5229,-661.6686"/>
</g>
<!-- N3&#45;&#45;N43 -->
<g id="edge42" class="edge">
<title>N3&#45;&#45;N43</title>
<path fill="none" stroke="#000000" d="M241.4367,-943.3876C214.045,-962.8783 163.2797,-999.0006 135.8854,-1018.4932"/>
</g>
<!-- N3&#45;&#45;N44 -->
<g id="edge43" class="edge">
<title>N3&#45;&#45;N44</title>
<path fill="none" stroke="#000000" d="M233.7178,-934.6767C201.6983,-940.2364 148.0175,-949.5572 115.7321,-955.1631"/>
</g>
<!-- N3&#45;&#45;N42 -->
<g id="edge41" class="edge">
<title>N3&#45;&#45;N42</title>
<path fill="none" stroke="#000000" d="M250.83,-947.2351C235.005,-976.4316 202.9969,-1035.4854 187.1091,-1064.7977"/>
</g>
<!-- N6&#45;&#45;N16 -->
<g id="edge15" class="edge">
<title>N6&#45;&#45;N16</title>
<path fill="none" stroke="#000000" d="M838.8048,-768.5174C833.2109,-744.8221 823.393,-703.234 817.803,-679.5554"/>
</g>
<!-- N6&#45;&#45;N14 -->
<g id="edge13" class="edge">
<title>N6&#45;&#45;N14</title>
<path fill="none" stroke="#000000" d="M856.0286,-802.5327C871.1367,-821.298 895.9118,-852.0701 911.0061,-870.8183"/>
</g>
<!-- N12 -->
<g id="node50" class="node">
<title>N12</title>
<ellipse fill="none" stroke="#000000" cx="948.6463" cy="-474.3136" rx="27.8306" ry="18"/>
<text text-anchor="middle" x="948.6463" y="-470.1136" font-family="Times,serif" font-size="14.00" fill="#000000">N12</text>
</g>
<!-- N6&#45;&#45;N12 -->
<g id="edge11" class="edge">
<title>N6&#45;&#45;N12</title>
<path fill="none" stroke="#000000" d="M849.0023,-768.7043C867.5499,-713.9067 923.9633,-547.2377 942.5995,-492.1785"/>
</g>
<!-- N13 -->
<g id="node51" class="node">
<title>N13</title>
<ellipse fill="none" stroke="#000000" cx="880.4372" cy="-1119.9736" rx="27.8306" ry="18"/>
<text text-anchor="middle" x="880.4372" y="-1115.7736" font-family="Times,serif" font-size="14.00" fill="#000000">N13</text>
</g>
<!-- N6&#45;&#45;N13 -->
<g id="edge12" class="edge">
<title>N6&#45;&#45;N13</title>
<path fill="none" stroke="#000000" d="M845.0858,-804.787C851.6275,-863.1117 871.8458,-1043.3743 878.3786,-1101.6197"/>
</g>
<!-- N15 -->
<g id="node52" class="node">
<title>N15</title>
<ellipse fill="none" stroke="#000000" cx="1185.4326" cy="-835.4898" rx="27.8306" ry="18"/>
<text text-anchor="middle" x="1185.4326" y="-831.2898" font-family="Times,serif" font-size="14.00" fill="#000000">N15</text>
</g>
<!-- N6&#45;&#45;N15 -->
<g id="edge14" class="edge">
<title>N6&#45;&#45;N15</title>
<path fill="none" stroke="#000000" d="M869.6044,-790.1892C933.2425,-799.3171 1093.8186,-822.3493 1158.1551,-831.5773"/>
</g>
<!-- N11&#45;&#45;N23 -->
<g id="edge22" class="edge">
<title>N11&#45;&#45;N23</title>
<path fill="none" stroke="#000000" d="M193.9993,-636.0367C171.3408,-611.3636 127.2926,-563.3988 104.6025,-538.6912"/>
</g>
<!-- N11&#45;&#45;N26 -->
<g id="edge25" class="edge">
<title>N11&#45;&#45;N26</title>
<path fill="none" stroke="#000000" d="M203.0738,-633.8327C193.6736,-601.5177 173.8281,-533.295 164.4246,-500.9686"/>
</g>
<!-- N11&#45;&#45;N25 -->
<g id="edge24" class="edge">
<title>N11&#45;&#45;N25</title>
<path fill="none" stroke="#000000" d="M183.079,-659.2926C151.33,-669.1072 97.0308,-685.8926 65.3306,-695.6921"/>
</g>
<!-- N11&#45;&#45;N24 -->
<g id="edge23" class="edge">
<title>N11&#45;&#45;N24</title>
<path fill="none" stroke="#000000" d="M185.8057,-640.8157C155.0955,-626.1476 100.2529,-599.9532 69.5066,-585.2679"/>
</g>
<!-- N11&#45;&#45;N27 -->
<g id="edge26" class="edge">
<title>N11&#45;&#45;N27</title>
<path fill="none" stroke="#000000" d="M180.4019,-649.2849C146.3718,-646.5494 89.1177,-641.9469 55.2085,-639.2211"/>
</g>
<!-- N12&#45;&#45;N20 -->
<g id="edge19" class="edge">
<title>N12&#45;&#45;N20</title>
<path fill="none" stroke="#000000" d="M964.2598,-459.3821C989.1386,-435.59 1037.5034,-389.3378 1062.4171,-365.5123"/>
</g>
<!-- N12&#45;&#45;N22 -->
<g id="edge21" class="edge">
<title>N12&#45;&#45;N22</title>
<path fill="none" stroke="#000000" d="M974.2956,-467.1203C1005.1349,-458.4715 1056.5738,-444.0456 1087.3325,-435.4194"/>
</g>
<!-- N12&#45;&#45;N21 -->
<g id="edge20" class="edge">
<title>N12&#45;&#45;N21</title>
<path fill="none" stroke="#000000" d="M933.2273,-459.2672C909.0931,-435.7164 862.6563,-390.402 838.4446,-366.7756"/>
</g>
<!-- N12&#45;&#45;N17 -->
<g id="edge16" class="edge">
<title>N12&#45;&#45;N17</title>
<path fill="none" stroke="#000000" d="M942.754,-456.4216C931.5864,-422.5111 907.4644,-349.2651 896.3518,-315.5216"/>
</g>
<!-- N12&#45;&#45;N19 -->
<g id="edge18" class="edge">
<title>N12&#45;&#45;N19</title>
<path fill="none" stroke="#000000" d="M952.5447,-456.4896C959.6666,-423.9269 974.7023,-355.1813 981.8267,-322.6071"/>
</g>
<!-- N18 -->
<g id="node53" class="node">
<title>N18</title>
<ellipse fill="none" stroke="#000000" cx="1049.4551" cy="-197.4747" rx="27.8306" ry="18"/>
<text text-anchor="middle" x="1049.4551" y="-193.2747" font-family="Times,serif" font-size="14.00" fill="#000000">N18</text>
</g>
<!-- N12&#45;&#45;N18 -->
<g id="edge17" class="edge">
<title>N12&#45;&#45;N18</title>
<path fill="none" stroke="#000000" d="M955.1057,-456.5749C973.3138,-406.5721 1024.9073,-264.8873 1043.0495,-215.0656"/>
</g>
<!-- N13&#45;&#45;N45 -->
<g id="edge44" class="edge">
<title>N13&#45;&#45;N45</title>
<path fill="none" stroke="#000000" d="M870.3562,-1136.8975C849.9332,-1171.1837 803.8794,-1248.4988 783.4135,-1282.8568"/>
</g>
<!-- N13&#45;&#45;N46 -->
<g id="edge45" class="edge">
<title>N13&#45;&#45;N46</title>
<path fill="none" stroke="#000000" d="M896.3051,-1134.8707C922.0461,-1159.037 972.6104,-1206.508 998.3382,-1230.6618"/>
</g>
<!-- N13&#45;&#45;N47 -->
<g id="edge46" class="edge">
<title>N13&#45;&#45;N47</title>
<path fill="none" stroke="#000000" d="M863.7469,-1134.4401C835.8305,-1158.6369 779.9693,-1207.0552 751.8846,-1231.3979"/>
</g>
<!-- N13&#45;&#45;N48 -->
<g id="edge47" class="edge">
<title>N13&#45;&#45;N48</title>
<path fill="none" stroke="#000000" d="M879.2022,-1138.1435C876.4656,-1178.4067 869.9178,-1274.7428 867.184,-1314.9632"/>
</g>
<!-- N13&#45;&#45;N49 -->
<g id="edge48" class="edge">
<title>N13&#45;&#45;N49</title>
<path fill="none" stroke="#000000" d="M855.525,-1127.9945C823.6039,-1138.272 768.5868,-1155.9857 736.6165,-1166.279"/>
</g>
<!-- N13&#45;&#45;N50 -->
<g id="edge49" class="edge">
<title>N13&#45;&#45;N50</title>
<path fill="none" stroke="#000000" d="M887.0042,-1137.6582C900.8183,-1174.8591 932.7395,-1260.8219 946.4948,-1297.8643"/>
</g>
<!-- N13&#45;&#45;N51 -->
<g id="edge50" class="edge">
<title>N13&#45;&#45;N51</title>
<path fill="none" stroke="#000000" d="M887.9629,-1137.558C899.3927,-1164.2649 920.9999,-1214.7521 932.3934,-1241.3739"/>
</g>
<!-- N13&#45;&#45;N52 -->
<g id="edge51" class="edge">
<title>N13&#45;&#45;N52</title>
<path fill="none" stroke="#000000" d="M905.2176,-1128.3965C932.0799,-1137.527 974.7052,-1152.0154 1001.6149,-1161.162"/>
</g>
<!-- N13&#45;&#45;N53 -->
<g id="edge52" class="edge">
<title>N13&#45;&#45;N53</title>
<path fill="none" stroke="#000000" d="M876.8713,-1137.9437C871.1892,-1166.5777 860.1432,-1222.2425 854.4532,-1250.9166"/>
</g>
<!-- N15&#45;&#45;N28 -->
<g id="edge27" class="edge">
<title>N15&#45;&#45;N28</title>
<path fill="none" stroke="#000000" d="M1189.8249,-853.3326C1197.8494,-885.9296 1214.7905,-954.7477 1222.8178,-987.3563"/>
</g>
<!-- N15&#45;&#45;N35 -->
<g id="edge34" class="edge">
<title>N15&#45;&#45;N35</title>
<path fill="none" stroke="#000000" d="M1201.6513,-820.8659C1227.9613,-797.1429 1279.6435,-750.5425 1305.94,-726.8317"/>
</g>
<!-- N15&#45;&#45;N34 -->
<g id="edge33" class="edge">
<title>N15&#45;&#45;N34</title>
<path fill="none" stroke="#000000" d="M1213.4378,-836.6872C1249.4252,-838.2259 1311.5258,-840.8811 1347.4189,-842.4157"/>
</g>
<!-- N15&#45;&#45;N32 -->
<g id="edge31" class="edge">
<title>N15&#45;&#45;N32</title>
<path fill="none" stroke="#000000" d="M1192.192,-817.8827C1203.704,-787.8958 1226.9887,-727.2433 1238.5464,-697.1374"/>
</g>
<!-- N15&#45;&#45;N36 -->
<g id="edge35" class="edge">
<title>N15&#45;&#45;N36</title>
<path fill="none" stroke="#000000" d="M1209.246,-845.1149C1241.3987,-858.1107 1298.3543,-881.1314 1330.4446,-894.1019"/>
</g>
<!-- N15&#45;&#45;N31 -->
<g id="edge30" class="edge">
<title>N15&#45;&#45;N31</title>
<path fill="none" stroke="#000000" d="M1201.7242,-850.1987C1228.6311,-874.4916 1282.0447,-922.716 1308.8833,-946.9472"/>
</g>
<!-- N15&#45;&#45;N30 -->
<g id="edge29" class="edge">
<title>N15&#45;&#45;N30</title>
<path fill="none" stroke="#000000" d="M1210.1067,-827.1391C1245.1226,-815.2883 1308.8519,-793.7196 1343.8132,-781.8872"/>
</g>
<!-- N15&#45;&#45;N33 -->
<g id="edge32" class="edge">
<title>N15&#45;&#45;N33</title>
<path fill="none" stroke="#000000" d="M1210.0704,-826.9293C1225.4046,-821.6013 1245.058,-814.7726 1260.4039,-809.4405"/>
</g>
<!-- N15&#45;&#45;N29 -->
<g id="edge28" class="edge">
<title>N15&#45;&#45;N29</title>
<path fill="none" stroke="#000000" d="M1194.765,-852.6199C1206.9334,-874.9551 1228.0961,-913.7999 1240.27,-936.1453"/>
</g>
<!-- N18&#45;&#45;N39 -->
<g id="edge38" class="edge">
<title>N18&#45;&#45;N39</title>
<path fill="none" stroke="#000000" d="M1039.3376,-180.6209C1022.1066,-151.9169 987.2544,-93.8594 969.9549,-65.0415"/>
</g>
<!-- N18&#45;&#45;N41 -->
<g id="edge40" class="edge">
<title>N18&#45;&#45;N41</title>
<path fill="none" stroke="#000000" d="M1047.967,-179.3526C1045.2486,-146.2451 1039.5094,-76.3495 1036.7899,-43.2303"/>
</g>
<!-- N18&#45;&#45;N38 -->
<g id="edge37" class="edge">
<title>N18&#45;&#45;N38</title>
<path fill="none" stroke="#000000" d="M1071.6608,-186.653C1101.5582,-172.0828 1154.4534,-146.3049 1184.423,-131.6996"/>
</g>
<!-- N18&#45;&#45;N37 -->
<g id="edge36" class="edge">
<title>N18&#45;&#45;N37</title>
<path fill="none" stroke="#000000" d="M1064.7301,-182.1885C1089.5093,-157.3911 1138.1843,-108.6804 1162.9508,-83.8958"/>
</g>
<!-- N18&#45;&#45;N40 -->
<g id="edge39" class="edge">
<title>N18&#45;&#45;N40</title>
<path fill="none" stroke="#000000" d="M1054.7601,-179.6344C1064.9759,-145.2799 1087.2686,-70.3119 1097.4675,-36.0144"/>
</g>
</g>
</svg>
