<?xml version="1.0" encoding="UTF-8" standalone="no"?>
<!DOCTYPE svg PUBLIC "-//W3C//DTD SVG 1.1//EN"
 "http://www.w3.org/Graphics/SVG/1.1/DTD/svg11.dtd">
<!-- Generated by graphviz version 2.40.1 (20161225.0304)
 -->
<!-- Title: test_graph Pages: 1 -->
<svg width="1286pt" height="831pt"
 viewBox="0.00 0.00 1286.45 830.82" xmlns="http://www.w3.org/2000/svg" xmlns:xlink="http://www.w3.org/1999/xlink">
<g id="graph0" class="graph" transform="scale(1 1) rotate(0) translate(4 826.8207)">
<title>test_graph</title>
<polygon fill="#ffffff" stroke="transparent" points="-4,4 -4,-826.8207 1282.4507,-826.8207 1282.4507,4 -4,4"/>
<!-- N24 -->
<g id="node1" class="node">
<title>N24</title>
<ellipse fill="none" stroke="#000000" cx="640.5915" cy="-401.7061" rx="27.8306" ry="18"/>
<text text-anchor="middle" x="640.5915" y="-397.5061" font-family="Times,serif" font-size="14.00" fill="#000000">N24</text>
</g>
<!-- N25 -->
<g id="node5" class="node">
<title>N25</title>
<ellipse fill="none" stroke="#000000" cx="704.1328" cy="-453.4777" rx="27.8306" ry="18"/>
<text text-anchor="middle" x="704.1328" y="-449.2777" font-family="Times,serif" font-size="14.00" fill="#000000">N25</text>
</g>
<!-- N24&#45;&#45;N25 -->
<g id="edge26" class="edge">
<title>N24&#45;&#45;N25</title>
<path fill="none" stroke="#000000" d="M657.9544,-415.8529C666.9202,-423.158 677.8281,-432.0454 686.7908,-439.348"/>
</g>
<!-- N23 -->
<g id="node17" class="node">
<title>N23</title>
<ellipse fill="none" stroke="#000000" cx="592.2787" cy="-333.968" rx="27.8306" ry="18"/>
<text text-anchor="middle" x="592.2787" y="-329.768" font-family="Times,serif" font-size="14.00" fill="#000000">N23</text>
</g>
<!-- N24&#45;&#45;N23 -->
<g id="edge28" class="edge">
<title>N24&#45;&#45;N23</title>
<path fill="none" stroke="#000000" d="M628.8963,-385.3086C621.412,-374.8151 611.7301,-361.2403 604.2018,-350.6851"/>
</g>
<!-- N0 -->
<g id="node2" class="node">
<title>N0</title>
<ellipse fill="none" stroke="#000000" cx="678.4146" cy="-45.4269" rx="27" ry="18"/>
<text text-anchor="middle" x="678.4146" y="-41.2269" font-family="Times,serif" font-size="14.00" fill="#000000">N0</text>
</g>
<!-- N21 -->
<g id="node27" class="node">
<title>N21</title>
<ellipse fill="none" stroke="#000000" cx="757.0641" cy="-18.5929" rx="27.8306" ry="18"/>
<text text-anchor="middle" x="757.0641" y="-14.3929" font-family="Times,serif" font-size="14.00" fill="#000000">N21</text>
</g>
<!-- N0&#45;&#45;N21 -->
<g id="edge34" class="edge">
<title>N0&#45;&#45;N21</title>
<path fill="none" stroke="#000000" d="M702.8687,-37.0836C712.2481,-33.8834 722.9511,-30.2317 732.3543,-27.0235"/>
</g>
<!-- N10 -->
<g id="node34" class="node">
<title>N10</title>
<ellipse fill="none" stroke="#000000" cx="616.2059" cy="-100.1464" rx="27.8306" ry="18"/>
<text text-anchor="middle" x="616.2059" y="-95.9464" font-family="Times,serif" font-size="14.00" fill="#000000">N10</text>
</g>
<!-- N0&#45;&#45;N10 -->
<g id="edge27" class="edge">
<title>N0&#45;&#45;N10</title>
<path fill="none" stroke="#000000" d="M662.07,-59.8038C653.1423,-67.6567 642.1027,-77.3673 633.0917,-85.2934"/>
</g>
<!-- N1 -->
<g id="node3" class="node">
<title>N1</title>
<ellipse fill="none" stroke="#000000" cx="840.4601" cy="-18" rx="27" ry="18"/>
<text text-anchor="middle" x="840.4601" y="-13.8" font-family="Times,serif" font-size="14.00" fill="#000000">N1</text>
</g>
<!-- N1&#45;&#45;N21 -->
<g id="edge13" class="edge">
<title>N1&#45;&#45;N21</title>
<path fill="none" stroke="#000000" d="M813.1531,-18.1941C804.1275,-18.2583 794.0765,-18.3298 785.0041,-18.3943"/>
</g>
<!-- N9 -->
<g id="node30" class="node">
<title>N9</title>
<ellipse fill="none" stroke="#000000" cx="920.7307" cy="-41.1827" rx="27" ry="18"/>
<text text-anchor="middle" x="920.7307" y="-36.9827" font-family="Times,serif" font-size="14.00" fill="#000000">N9</text>
</g>
<!-- N1&#45;&#45;N9 -->
<g id="edge39" class="edge">
<title>N1&#45;&#45;N9</title>
<path fill="none" stroke="#000000" d="M865.4182,-25.2081C875.083,-27.9993 886.1247,-31.1883 895.788,-33.9791"/>
</g>
<!-- N16 -->
<g id="node4" class="node">
<title>N16</title>
<ellipse fill="none" stroke="#000000" cx="1051.2923" cy="-391.6558" rx="27.8306" ry="18"/>
<text text-anchor="middle" x="1051.2923" y="-387.4558" font-family="Times,serif" font-size="14.00" fill="#000000">N16</text>
</g>
<!-- N2 -->
<g id="node11" class="node">
<title>N2</title>
<ellipse fill="none" stroke="#000000" cx="1024.0165" cy="-485.1358" rx="27" ry="18"/>
<text text-anchor="middle" x="1024.0165" y="-480.9358" font-family="Times,serif" font-size="14.00" fill="#000000">N2</text>
</g>
<!-- N16&#45;&#45;N2 -->
<g id="edge21" class="edge">
<title>N16&#45;&#45;N2</title>
<path fill="none" stroke="#000000" d="M1046.0333,-409.6797C1041.2034,-426.2329 1034.0842,-450.6316 1029.2594,-467.1672"/>
</g>
<!-- N34 -->
<g id="node16" class="node">
<title>N34</title>
<ellipse fill="none" stroke="#000000" cx="1082.1061" cy="-305.3945" rx="27.8306" ry="18"/>
<text text-anchor="middle" x="1082.1061" y="-301.1945" font-family="Times,serif" font-size="14.00" fill="#000000">N34</text>
</g>
<!-- N16&#45;&#45;N34 -->
<g id="edge20" class="edge">
<title>N16&#45;&#45;N34</title>
<path fill="none" stroke="#000000" d="M1057.677,-373.7824C1063.0006,-358.8792 1070.5433,-337.7639 1075.8351,-322.9499"/>
</g>
<!-- N26 -->
<g id="node12" class="node">
<title>N26</title>
<ellipse fill="none" stroke="#000000" cx="779.8332" cy="-484.0239" rx="27.8306" ry="18"/>
<text text-anchor="middle" x="779.8332" y="-479.8239" font-family="Times,serif" font-size="14.00" fill="#000000">N26</text>
</g>
<!-- N25&#45;&#45;N26 -->
<g id="edge35" class="edge">
<title>N25&#45;&#45;N26</title>
<path fill="none" stroke="#000000" d="M727.6699,-462.9753C736.7844,-466.6531 747.1975,-470.8549 756.3106,-474.5322"/>
</g>
<!-- N22 -->
<g id="node6" class="node">
<title>N22</title>
<ellipse fill="none" stroke="#000000" cx="550.5187" cy="-257.8339" rx="27.8306" ry="18"/>
<text text-anchor="middle" x="550.5187" y="-253.6339" font-family="Times,serif" font-size="14.00" fill="#000000">N22</text>
</g>
<!-- N28 -->
<g id="node8" class="node">
<title>N28</title>
<ellipse fill="none" stroke="#000000" cx="578.0129" cy="-174.7996" rx="27.8306" ry="18"/>
<text text-anchor="middle" x="578.0129" y="-170.5996" font-family="Times,serif" font-size="14.00" fill="#000000">N28</text>
</g>
<!-- N22&#45;&#45;N28 -->
<g id="edge8" class="edge">
<title>N22&#45;&#45;N28</title>
<path fill="none" stroke="#000000" d="M556.3495,-240.2245C560.9838,-226.2285 567.4389,-206.7336 572.0957,-192.6699"/>
</g>
<!-- N22&#45;&#45;N23 -->
<g id="edge7" class="edge">
<title>N22&#45;&#45;N23</title>
<path fill="none" stroke="#000000" d="M559.9947,-275.1099C566.8289,-287.5697 576.0145,-304.3163 582.8402,-316.7604"/>
</g>
<!-- N29 -->
<g id="node29" class="node">
<title>N29</title>
<ellipse fill="none" stroke="#000000" cx="467.8272" cy="-264.2076" rx="27.8306" ry="18"/>
<text text-anchor="middle" x="467.8272" y="-260.0076" font-family="Times,serif" font-size="14.00" fill="#000000">N29</text>
</g>
<!-- N22&#45;&#45;N29 -->
<g id="edge3" class="edge">
<title>N22&#45;&#45;N29</title>
<path fill="none" stroke="#000000" d="M522.9836,-259.9563C514.1509,-260.6371 504.3682,-261.3911 495.5239,-262.0728"/>
</g>
<!-- N4 -->
<g id="node7" class="node">
<title>N4</title>
<ellipse fill="none" stroke="#000000" cx="240.4455" cy="-274.1379" rx="27" ry="18"/>
<text text-anchor="middle" x="240.4455" y="-269.9379" font-family="Times,serif" font-size="14.00" fill="#000000">N4</text>
</g>
<!-- N14 -->
<g id="node19" class="node">
<title>N14</title>
<ellipse fill="none" stroke="#000000" cx="167.1093" cy="-283.0498" rx="27.8306" ry="18"/>
<text text-anchor="middle" x="167.1093" y="-278.8498" font-family="Times,serif" font-size="14.00" fill="#000000">N14</text>
</g>
<!-- N4&#45;&#45;N14 -->
<g id="edge19" class="edge">
<title>N4&#45;&#45;N14</title>
<path fill="none" stroke="#000000" d="M213.5542,-277.4058C207.3406,-278.1608 200.7229,-278.965 194.4887,-279.7226"/>
</g>
<!-- N30 -->
<g id="node25" class="node">
<title>N30</title>
<ellipse fill="none" stroke="#000000" cx="314.822" cy="-270.7095" rx="27.8306" ry="18"/>
<text text-anchor="middle" x="314.822" y="-266.5095" font-family="Times,serif" font-size="14.00" fill="#000000">N30</text>
</g>
<!-- N4&#45;&#45;N30 -->
<g id="edge37" class="edge">
<title>N4&#45;&#45;N30</title>
<path fill="none" stroke="#000000" d="M267.7183,-272.8808C274.02,-272.5903 280.7316,-272.2809 287.0542,-271.9895"/>
</g>
<!-- N28&#45;&#45;N10 -->
<g id="edge23" class="edge">
<title>N28&#45;&#45;N10</title>
<path fill="none" stroke="#000000" d="M586.8712,-157.485C593.0413,-145.4246 601.2361,-129.4069 607.3957,-117.3671"/>
</g>
<!-- N17 -->
<g id="node9" class="node">
<title>N17</title>
<ellipse fill="none" stroke="#000000" cx="1062.9955" cy="-558.3602" rx="27.8306" ry="18"/>
<text text-anchor="middle" x="1062.9955" y="-554.1602" font-family="Times,serif" font-size="14.00" fill="#000000">N17</text>
</g>
<!-- N17&#45;&#45;N2 -->
<g id="edge1" class="edge">
<title>N17&#45;&#45;N2</title>
<path fill="none" stroke="#000000" d="M1053.758,-541.007C1047.4994,-529.2499 1039.269,-513.7886 1033.0532,-502.1118"/>
</g>
<!-- N32 -->
<g id="node15" class="node">
<title>N32</title>
<ellipse fill="none" stroke="#000000" cx="1102.5401" cy="-625.0491" rx="27.8306" ry="18"/>
<text text-anchor="middle" x="1102.5401" y="-620.8491" font-family="Times,serif" font-size="14.00" fill="#000000">N32</text>
</g>
<!-- N17&#45;&#45;N32 -->
<g id="edge5" class="edge">
<title>N17&#45;&#45;N32</title>
<path fill="none" stroke="#000000" d="M1072.9743,-575.1886C1078.9232,-585.221 1086.4545,-597.9219 1092.4269,-607.9941"/>
</g>
<!-- N19 -->
<g id="node10" class="node">
<title>N19</title>
<ellipse fill="none" stroke="#000000" cx="1091.299" cy="-400.6909" rx="27.8306" ry="18"/>
<text text-anchor="middle" x="1091.299" y="-396.4909" font-family="Times,serif" font-size="14.00" fill="#000000">N19</text>
</g>
<!-- N11 -->
<g id="node31" class="node">
<title>N11</title>
<ellipse fill="none" stroke="#000000" cx="993.9553" cy="-421.9336" rx="27.8306" ry="18"/>
<text text-anchor="middle" x="993.9553" y="-417.7336" font-family="Times,serif" font-size="14.00" fill="#000000">N11</text>
</g>
<!-- N19&#45;&#45;N11 -->
<g id="edge12" class="edge">
<title>N19&#45;&#45;N11</title>
<path fill="none" stroke="#000000" d="M1064.9564,-406.4395C1051.1051,-409.4622 1034.1734,-413.1571 1020.319,-416.1805"/>
</g>
<!-- N15 -->
<g id="node35" class="node">
<title>N15</title>
<ellipse fill="none" stroke="#000000" cx="1143.8001" cy="-338.09" rx="27.8306" ry="18"/>
<text text-anchor="middle" x="1143.8001" y="-333.89" font-family="Times,serif" font-size="14.00" fill="#000000">N15</text>
</g>
<!-- N19&#45;&#45;N15 -->
<g id="edge17" class="edge">
<title>N19&#45;&#45;N15</title>
<path fill="none" stroke="#000000" d="M1104.8193,-384.5696C1112.7187,-375.1506 1122.6474,-363.3119 1130.5073,-353.9399"/>
</g>
<!-- N5 -->
<g id="node26" class="node">
<title>N5</title>
<ellipse fill="none" stroke="#000000" cx="943.5635" cy="-480.3918" rx="27" ry="18"/>
<text text-anchor="middle" x="943.5635" y="-476.1918" font-family="Times,serif" font-size="14.00" fill="#000000">N5</text>
</g>
<!-- N2&#45;&#45;N5 -->
<g id="edge40" class="edge">
<title>N2&#45;&#45;N5</title>
<path fill="none" stroke="#000000" d="M996.7788,-483.5297C988.2998,-483.0297 978.9583,-482.4789 970.5,-481.9801"/>
</g>
<!-- N3 -->
<g id="node24" class="node">
<title>N3</title>
<ellipse fill="none" stroke="#000000" cx="861.3037" cy="-491.7531" rx="27" ry="18"/>
<text text-anchor="middle" x="861.3037" y="-487.5531" font-family="Times,serif" font-size="14.00" fill="#000000">N3</text>
</g>
<!-- N26&#45;&#45;N3 -->
<g id="edge6" class="edge">
<title>N26&#45;&#45;N3</title>
<path fill="none" stroke="#000000" d="M807.4154,-486.6406C816.0939,-487.464 825.6648,-488.372 834.3025,-489.1915"/>
</g>
<!-- N31 -->
<g id="node13" class="node">
<title>N31</title>
<ellipse fill="none" stroke="#000000" cx="991.6366" cy="-85.2221" rx="27.8306" ry="18"/>
<text text-anchor="middle" x="991.6366" y="-81.0221" font-family="Times,serif" font-size="14.00" fill="#000000">N31</text>
</g>
<!-- N31&#45;&#45;N9 -->
<g id="edge18" class="edge">
<title>N31&#45;&#45;N9</title>
<path fill="none" stroke="#000000" d="M971.5074,-72.72C961.8449,-66.7186 950.3018,-59.5492 940.6647,-53.5637"/>
</g>
<!-- N6 -->
<g id="node32" class="node">
<title>N6</title>
<ellipse fill="none" stroke="#000000" cx="1047.2864" cy="-146.9084" rx="27" ry="18"/>
<text text-anchor="middle" x="1047.2864" y="-142.7084" font-family="Times,serif" font-size="14.00" fill="#000000">N6</text>
</g>
<!-- N31&#45;&#45;N6 -->
<g id="edge38" class="edge">
<title>N31&#45;&#45;N6</title>
<path fill="none" stroke="#000000" d="M1005.6794,-100.7881C1014.0511,-110.0679 1024.6496,-121.8161 1033.0545,-131.1327"/>
</g>
<!-- N7 -->
<g id="node14" class="node">
<title>N7</title>
<ellipse fill="none" stroke="#000000" cx="1233.4507" cy="-804.8207" rx="27" ry="18"/>
<text text-anchor="middle" x="1233.4507" y="-800.6207" font-family="Times,serif" font-size="14.00" fill="#000000">N7</text>
</g>
<!-- N7&#45;&#45;N7 -->
<g id="edge24" class="edge">
<title>N7&#45;&#45;N7</title>
<path fill="none" stroke="#000000" d="M1258.8942,-811.5114C1269.4786,-811.9728 1278.4507,-809.7426 1278.4507,-804.8207 1278.4507,-799.8989 1269.4786,-797.6686 1258.8942,-798.1301"/>
</g>
<!-- N20 -->
<g id="node33" class="node">
<title>N20</title>
<ellipse fill="none" stroke="#000000" cx="1185.9772" cy="-748.9199" rx="27.8306" ry="18"/>
<text text-anchor="middle" x="1185.9772" y="-744.7199" font-family="Times,serif" font-size="14.00" fill="#000000">N20</text>
</g>
<!-- N7&#45;&#45;N20 -->
<g id="edge9" class="edge">
<title>N7&#45;&#45;N20</title>
<path fill="none" stroke="#000000" d="M1219.9737,-788.9513C1213.614,-781.4627 1206.0375,-772.5413 1199.6528,-765.0231"/>
</g>
<!-- N18 -->
<g id="node20" class="node">
<title>N18</title>
<ellipse fill="none" stroke="#000000" cx="1142.9132" cy="-688.614" rx="27.8306" ry="18"/>
<text text-anchor="middle" x="1142.9132" y="-684.414" font-family="Times,serif" font-size="14.00" fill="#000000">N18</text>
</g>
<!-- N32&#45;&#45;N18 -->
<g id="edge14" class="edge">
<title>N32&#45;&#45;N18</title>
<path fill="none" stroke="#000000" d="M1113.1476,-641.75C1119.0351,-651.0195 1126.3378,-662.517 1132.2363,-671.8039"/>
</g>
<!-- N13 -->
<g id="node22" class="node">
<title>N13</title>
<ellipse fill="none" stroke="#000000" cx="1080.3398" cy="-222.2839" rx="27.8306" ry="18"/>
<text text-anchor="middle" x="1080.3398" y="-218.0839" font-family="Times,serif" font-size="14.00" fill="#000000">N13</text>
</g>
<!-- N34&#45;&#45;N13 -->
<g id="edge32" class="edge">
<title>N34&#45;&#45;N13</title>
<path fill="none" stroke="#000000" d="M1081.7229,-287.3608C1081.4266,-273.4203 1081.0184,-254.214 1080.7223,-240.2825"/>
</g>
<!-- N34&#45;&#45;N15 -->
<g id="edge22" class="edge">
<title>N34&#45;&#45;N15</title>
<path fill="none" stroke="#000000" d="M1103.6837,-316.8298C1109.6603,-319.9972 1116.1486,-323.4358 1122.1304,-326.6059"/>
</g>
<!-- N27 -->
<g id="node18" class="node">
<title>N27</title>
<ellipse fill="none" stroke="#000000" cx="390.2743" cy="-267.9332" rx="27.8306" ry="18"/>
<text text-anchor="middle" x="390.2743" y="-263.7332" font-family="Times,serif" font-size="14.00" fill="#000000">N27</text>
</g>
<!-- N27&#45;&#45;N30 -->
<g id="edge31" class="edge">
<title>N27&#45;&#45;N30</title>
<path fill="none" stroke="#000000" d="M362.6071,-268.9512C356.0459,-269.1927 349.0469,-269.4502 342.4859,-269.6916"/>
</g>
<!-- N27&#45;&#45;N29 -->
<g id="edge15" class="edge">
<title>N27&#45;&#45;N29</title>
<path fill="none" stroke="#000000" d="M418.2727,-266.5882C425.3881,-266.2464 433.0295,-265.8793 440.1299,-265.5382"/>
</g>
<!-- N14&#45;&#45;N14 -->
<g id="edge2" class="edge">
<title>N14&#45;&#45;N14</title>
<path fill="none" stroke="#000000" d="M192.9286,-289.7405C203.6693,-290.2019 212.7741,-287.9717 212.7741,-283.0498 212.7741,-278.1279 203.6693,-275.8977 192.9286,-276.3591"/>
</g>
<!-- N12 -->
<g id="node21" class="node">
<title>N12</title>
<ellipse fill="none" stroke="#000000" cx="95.4325" cy="-299.3609" rx="27.8306" ry="18"/>
<text text-anchor="middle" x="95.4325" y="-295.1609" font-family="Times,serif" font-size="14.00" fill="#000000">N12</text>
</g>
<!-- N14&#45;&#45;N12 -->
<g id="edge36" class="edge">
<title>N14&#45;&#45;N12</title>
<path fill="none" stroke="#000000" d="M140.8265,-289.0308C134.5937,-290.4492 127.9448,-291.9622 121.7121,-293.3806"/>
</g>
<!-- N18&#45;&#45;N20 -->
<g id="edge30" class="edge">
<title>N18&#45;&#45;N20</title>
<path fill="none" stroke="#000000" d="M1154.6806,-705.0929C1160.757,-713.6021 1168.1497,-723.9546 1174.224,-732.461"/>
</g>
<!-- N8 -->
<g id="node28" class="node">
<title>N8</title>
<ellipse fill="none" stroke="#000000" cx="27" cy="-325.3392" rx="27" ry="18"/>
<text text-anchor="middle" x="27" y="-321.1392" font-family="Times,serif" font-size="14.00" fill="#000000">N8</text>
</g>
<!-- N12&#45;&#45;N8 -->
<g id="edge4" class="edge">
<title>N12&#45;&#45;N8</title>
<path fill="none" stroke="#000000" d="M71.4982,-308.4468C64.7146,-311.022 57.3367,-313.8228 50.5745,-316.3898"/>
</g>
<!-- N13&#45;&#45;N6 -->
<g id="edge29" class="edge">
<title>N13&#45;&#45;N6</title>
<path fill="none" stroke="#000000" d="M1072.6736,-204.8018C1067.3338,-192.6247 1060.2418,-176.452 1054.911,-164.2957"/>
</g>
<!-- N33 -->
<g id="node23" class="node">
<title>N33</title>
<ellipse fill="none" stroke="#000000" cx="817.6648" cy="-255" rx="27.8306" ry="18"/>
<text text-anchor="middle" x="817.6648" y="-250.8" font-family="Times,serif" font-size="14.00" fill="#000000">N33</text>
</g>
<!-- N33&#45;&#45;N33 -->
<g id="edge25" class="edge">
<title>N33&#45;&#45;N33</title>
<path fill="none" stroke="#000000" d="M843.4842,-261.6907C854.2249,-262.1521 863.3296,-259.9219 863.3296,-255 863.3296,-250.0781 854.2249,-247.8479 843.4842,-248.3093"/>
</g>
<!-- N3&#45;&#45;N5 -->
<g id="edge10" class="edge">
<title>N3&#45;&#45;N5</title>
<path fill="none" stroke="#000000" d="M887.784,-488.0958C897.0835,-486.8114 907.5323,-485.3682 916.8508,-484.0812"/>
</g>
<!-- N5&#45;&#45;N11 -->
<g id="edge33" class="edge">
<title>N5&#45;&#45;N11</title>
<path fill="none" stroke="#000000" d="M957.0676,-464.7261C964.2977,-456.3386 973.1782,-446.0366 980.414,-437.6426"/>
</g>
<!-- N8&#45;&#45;N8 -->
<g id="edge16" class="edge">
<title>N8&#45;&#45;N8</title>
<path fill="none" stroke="#000000" d="M52.4435,-332.0299C63.0278,-332.4913 72,-330.2611 72,-325.3392 72,-320.4173 63.0278,-318.1871 52.4435,-318.6485"/>
</g>
<!-- N20&#45;&#45;N20 -->
<g id="edge11" class="edge">
<title>N20&#45;&#45;N20</title>
<path fill="none" stroke="#000000" d="M1211.7965,-755.6106C1222.5373,-756.072 1231.642,-753.8418 1231.642,-748.9199 1231.642,-743.9981 1222.5373,-741.7678 1211.7965,-742.2293"/>
</g>
</g>
</svg>
