<?xml version="1.0" encoding="UTF-8" standalone="no"?>
<!DOCTYPE svg PUBLIC "-//W3C//DTD SVG 1.1//EN"
 "http://www.w3.org/Graphics/SVG/1.1/DTD/svg11.dtd">
<!-- Generated by graphviz version 2.40.1 (20161225.0304)
 -->
<!-- Title: test_graph Pages: 1 -->
<svg width="619pt" height="445pt"
 viewBox="0.00 0.00 618.58 444.76" xmlns="http://www.w3.org/2000/svg" xmlns:xlink="http://www.w3.org/1999/xlink">
<g id="graph0" class="graph" transform="scale(1 1) rotate(0) translate(4 440.7565)">
<title>test_graph</title>
<polygon fill="#ffffff" stroke="transparent" points="-4,4 -4,-440.7565 614.5837,-440.7565 614.5837,4 -4,4"/>
<!-- N23 -->
<g id="node1" class="node">
<title>N23</title>
<ellipse fill="none" stroke="#000000" cx="44.1515" cy="-95.2049" rx="27.8306" ry="18"/>
<text text-anchor="middle" x="44.1515" y="-91.0049" font-family="Times,serif" font-size="14.00" fill="#000000">N23</text>
</g>
<!-- N9 -->
<g id="node2" class="node">
<title>N9</title>
<ellipse fill="none" stroke="#000000" cx="211.1357" cy="-162.3122" rx="27" ry="18"/>
<text text-anchor="middle" x="211.1357" y="-158.1122" font-family="Times,serif" font-size="14.00" fill="#000000">N9</text>
</g>
<!-- N10 -->
<g id="node3" class="node">
<title>N10</title>
<ellipse fill="none" stroke="#000000" cx="164.3558" cy="-144.5742" rx="27.8306" ry="18"/>
<text text-anchor="middle" x="164.3558" y="-140.3742" font-family="Times,serif" font-size="14.00" fill="#000000">N10</text>
</g>
<!-- N43 -->
<g id="node4" class="node">
<title>N43</title>
<ellipse fill="none" stroke="#000000" cx="91.774" cy="-363.3569" rx="27.8306" ry="18"/>
<text text-anchor="middle" x="91.774" y="-359.1569" font-family="Times,serif" font-size="14.00" fill="#000000">N43</text>
</g>
<!-- N4 -->
<g id="node5" class="node">
<title>N4</title>
<ellipse fill="none" stroke="#000000" cx="193.9251" cy="-128.4551" rx="27" ry="18"/>
<text text-anchor="middle" x="193.9251" y="-124.2551" font-family="Times,serif" font-size="14.00" fill="#000000">N4</text>
</g>
<!-- N16 -->
<g id="node6" class="node">
<title>N16</title>
<ellipse fill="none" stroke="#000000" cx="287.1408" cy="-243.6126" rx="27.8306" ry="18"/>
<text text-anchor="middle" x="287.1408" y="-239.4126" font-family="Times,serif" font-size="14.00" fill="#000000">N16</text>
</g>
<!-- N28 -->
<g id="node7" class="node">
<title>N28</title>
<ellipse fill="none" stroke="#000000" cx="263.0415" cy="-40.23" rx="27.8306" ry="18"/>
<text text-anchor="middle" x="263.0415" y="-36.03" font-family="Times,serif" font-size="14.00" fill="#000000">N28</text>
</g>
<!-- N35 -->
<g id="node8" class="node">
<title>N35</title>
<ellipse fill="none" stroke="#000000" cx="377.0687" cy="-36.1455" rx="27.8306" ry="18"/>
<text text-anchor="middle" x="377.0687" y="-31.9455" font-family="Times,serif" font-size="14.00" fill="#000000">N35</text>
</g>
<!-- N39 -->
<g id="node9" class="node">
<title>N39</title>
<ellipse fill="none" stroke="#000000" cx="563.3259" cy="-164.5644" rx="27.8306" ry="18"/>
<text text-anchor="middle" x="563.3259" y="-160.3644" font-family="Times,serif" font-size="14.00" fill="#000000">N39</text>
</g>
<!-- N20 -->
<g id="node10" class="node">
<title>N20</title>
<ellipse fill="none" stroke="#000000" cx="445.0257" cy="-268.6577" rx="27.8306" ry="18"/>
<text text-anchor="middle" x="445.0257" y="-264.4577" font-family="Times,serif" font-size="14.00" fill="#000000">N20</text>
</g>
<!-- N41 -->
<g id="node11" class="node">
<title>N41</title>
<ellipse fill="none" stroke="#000000" cx="580.6868" cy="-205.1175" rx="27.8306" ry="18"/>
<text text-anchor="middle" x="580.6868" y="-200.9175" font-family="Times,serif" font-size="14.00" fill="#000000">N41</text>
</g>
<!-- N22 -->
<g id="node12" class="node">
<title>N22</title>
<ellipse fill="none" stroke="#000000" cx="431.3455" cy="-168.4174" rx="27.8306" ry="18"/>
<text text-anchor="middle" x="431.3455" y="-164.2174" font-family="Times,serif" font-size="14.00" fill="#000000">N22</text>
</g>
<!-- N38 -->
<g id="node13" class="node">
<title>N38</title>
<ellipse fill="none" stroke="#000000" cx="582.9189" cy="-255.011" rx="27.8306" ry="18"/>
<text text-anchor="middle" x="582.9189" y="-250.811" font-family="Times,serif" font-size="14.00" fill="#000000">N38</text>
</g>
<!-- N14 -->
<g id="node14" class="node">
<title>N14</title>
<ellipse fill="none" stroke="#000000" cx="331.6594" cy="-222.8568" rx="27.8306" ry="18"/>
<text text-anchor="middle" x="331.6594" y="-218.6568" font-family="Times,serif" font-size="14.00" fill="#000000">N14</text>
</g>
<!-- N37 -->
<g id="node15" class="node">
<title>N37</title>
<ellipse fill="none" stroke="#000000" cx="536.0906" cy="-333.1561" rx="27.8306" ry="18"/>
<text text-anchor="middle" x="536.0906" y="-328.9561" font-family="Times,serif" font-size="14.00" fill="#000000">N37</text>
</g>
<!-- N34 -->
<g id="node16" class="node">
<title>N34</title>
<ellipse fill="none" stroke="#000000" cx="320.1356" cy="-30.6057" rx="27.8306" ry="18"/>
<text text-anchor="middle" x="320.1356" y="-26.4057" font-family="Times,serif" font-size="14.00" fill="#000000">N34</text>
</g>
<!-- N32 -->
<g id="node17" class="node">
<title>N32</title>
<ellipse fill="none" stroke="#000000" cx="349.4466" cy="-18" rx="27.8306" ry="18"/>
<text text-anchor="middle" x="349.4466" y="-13.8" font-family="Times,serif" font-size="14.00" fill="#000000">N32</text>
</g>
<!-- N36 -->
<g id="node18" class="node">
<title>N36</title>
<ellipse fill="none" stroke="#000000" cx="370.7416" cy="-110.8755" rx="27.8306" ry="18"/>
<text text-anchor="middle" x="370.7416" y="-106.6755" font-family="Times,serif" font-size="14.00" fill="#000000">N36</text>
</g>
<!-- N26 -->
<g id="node19" class="node">
<title>N26</title>
<ellipse fill="none" stroke="#000000" cx="27.6648" cy="-138.0768" rx="27.8306" ry="18"/>
<text text-anchor="middle" x="27.6648" y="-133.8768" font-family="Times,serif" font-size="14.00" fill="#000000">N26</text>
</g>
<!-- N44 -->
<g id="node20" class="node">
<title>N44</title>
<ellipse fill="none" stroke="#000000" cx="53.2035" cy="-329.8858" rx="27.8306" ry="18"/>
<text text-anchor="middle" x="53.2035" y="-325.6858" font-family="Times,serif" font-size="14.00" fill="#000000">N44</text>
</g>
<!-- N2 -->
<g id="node21" class="node">
<title>N2</title>
<ellipse fill="none" stroke="#000000" cx="131.1755" cy="-225.9289" rx="27" ry="18"/>
<text text-anchor="middle" x="131.1755" y="-221.7289" font-family="Times,serif" font-size="14.00" fill="#000000">N2</text>
</g>
<!-- N25 -->
<g id="node22" class="node">
<title>N25</title>
<ellipse fill="none" stroke="#000000" cx="74.5434" cy="-62.6395" rx="27.8306" ry="18"/>
<text text-anchor="middle" x="74.5434" y="-58.4395" font-family="Times,serif" font-size="14.00" fill="#000000">N25</text>
</g>
<!-- N21 -->
<g id="node23" class="node">
<title>N21</title>
<ellipse fill="none" stroke="#000000" cx="429.7401" cy="-298.4242" rx="27.8306" ry="18"/>
<text text-anchor="middle" x="429.7401" y="-294.2242" font-family="Times,serif" font-size="14.00" fill="#000000">N21</text>
</g>
<!-- N8 -->
<g id="node24" class="node">
<title>N8</title>
<ellipse fill="none" stroke="#000000" cx="189.574" cy="-270.2882" rx="27" ry="18"/>
<text text-anchor="middle" x="189.574" y="-266.0882" font-family="Times,serif" font-size="14.00" fill="#000000">N8</text>
</g>
<!-- N24 -->
<g id="node25" class="node">
<title>N24</title>
<ellipse fill="none" stroke="#000000" cx="28.454" cy="-180.3557" rx="27.8306" ry="18"/>
<text text-anchor="middle" x="28.454" y="-176.1557" font-family="Times,serif" font-size="14.00" fill="#000000">N24</text>
</g>
<!-- N17 -->
<g id="node26" class="node">
<title>N17</title>
<ellipse fill="none" stroke="#000000" cx="460.1704" cy="-152.1848" rx="27.8306" ry="18"/>
<text text-anchor="middle" x="460.1704" y="-147.9848" font-family="Times,serif" font-size="14.00" fill="#000000">N17</text>
</g>
<!-- N31 -->
<g id="node27" class="node">
<title>N31</title>
<ellipse fill="none" stroke="#000000" cx="406.859" cy="-58.6959" rx="27.8306" ry="18"/>
<text text-anchor="middle" x="406.859" y="-54.4959" font-family="Times,serif" font-size="14.00" fill="#000000">N31</text>
</g>
<!-- N42 -->
<g id="node28" class="node">
<title>N42</title>
<ellipse fill="none" stroke="#000000" cx="31.7031" cy="-280.1196" rx="27.8306" ry="18"/>
<text text-anchor="middle" x="31.7031" y="-275.9196" font-family="Times,serif" font-size="14.00" fill="#000000">N42</text>
</g>
<!-- N5 -->
<g id="node29" class="node">
<title>N5</title>
<ellipse fill="none" stroke="#000000" cx="141.5391" cy="-190.0913" rx="27" ry="18"/>
<text text-anchor="middle" x="141.5391" y="-185.8913" font-family="Times,serif" font-size="14.00" fill="#000000">N5</text>
</g>
<!-- N27 -->
<g id="node30" class="node">
<title>N27</title>
<ellipse fill="none" stroke="#000000" cx="110.4613" cy="-45.9744" rx="27.8306" ry="18"/>
<text text-anchor="middle" x="110.4613" y="-41.7744" font-family="Times,serif" font-size="14.00" fill="#000000">N27</text>
</g>
<!-- N40 -->
<g id="node31" class="node">
<title>N40</title>
<ellipse fill="none" stroke="#000000" cx="565.284" cy="-301.3881" rx="27.8306" ry="18"/>
<text text-anchor="middle" x="565.284" y="-297.1881" font-family="Times,serif" font-size="14.00" fill="#000000">N40</text>
</g>
<!-- N30 -->
<g id="node32" class="node">
<title>N30</title>
<ellipse fill="none" stroke="#000000" cx="271.1139" cy="-73.8446" rx="27.8306" ry="18"/>
<text text-anchor="middle" x="271.1139" y="-69.6446" font-family="Times,serif" font-size="14.00" fill="#000000">N30</text>
</g>
<!-- N33 -->
<g id="node33" class="node">
<title>N33</title>
<ellipse fill="none" stroke="#000000" cx="290.766" cy="-18.2543" rx="27.8306" ry="18"/>
<text text-anchor="middle" x="290.766" y="-14.0543" font-family="Times,serif" font-size="14.00" fill="#000000">N33</text>
</g>
<!-- N7 -->
<g id="node34" class="node">
<title>N7</title>
<ellipse fill="none" stroke="#000000" cx="160.8392" cy="-258.1819" rx="27" ry="18"/>
<text text-anchor="middle" x="160.8392" y="-253.9819" font-family="Times,serif" font-size="14.00" fill="#000000">N7</text>
</g>
<!-- N29 -->
<g id="node35" class="node">
<title>N29</title>
<ellipse fill="none" stroke="#000000" cx="392.582" cy="-85.9768" rx="27.8306" ry="18"/>
<text text-anchor="middle" x="392.582" y="-81.7768" font-family="Times,serif" font-size="14.00" fill="#000000">N29</text>
</g>
<!-- N19 -->
<g id="node36" class="node">
<title>N19</title>
<ellipse fill="none" stroke="#000000" cx="460.7992" cy="-204.6043" rx="27.8306" ry="18"/>
<text text-anchor="middle" x="460.7992" y="-200.4043" font-family="Times,serif" font-size="14.00" fill="#000000">N19</text>
</g>
<!-- N45 -->
<g id="node37" class="node">
<title>N45</title>
<ellipse fill="none" stroke="#000000" cx="339.2058" cy="-372.8636" rx="27.8306" ry="18"/>
<text text-anchor="middle" x="339.2058" y="-368.6636" font-family="Times,serif" font-size="14.00" fill="#000000">N45</text>
</g>
<!-- N46 -->
<g id="node38" class="node">
<title>N46</title>
<ellipse fill="none" stroke="#000000" cx="345.813" cy="-410.9735" rx="27.8306" ry="18"/>
<text text-anchor="middle" x="345.813" y="-406.7735" font-family="Times,serif" font-size="14.00" fill="#000000">N46</text>
</g>
<!-- N47 -->
<g id="node39" class="node">
<title>N47</title>
<ellipse fill="none" stroke="#000000" cx="230.453" cy="-382.3422" rx="27.8306" ry="18"/>
<text text-anchor="middle" x="230.453" y="-378.1422" font-family="Times,serif" font-size="14.00" fill="#000000">N47</text>
</g>
<!-- N48 -->
<g id="node40" class="node">
<title>N48</title>
<ellipse fill="none" stroke="#000000" cx="240.2579" cy="-346.1382" rx="27.8306" ry="18"/>
<text text-anchor="middle" x="240.2579" y="-341.9382" font-family="Times,serif" font-size="14.00" fill="#000000">N48</text>
</g>
<!-- N49 -->
<g id="node41" class="node">
<title>N49</title>
<ellipse fill="none" stroke="#000000" cx="304.7587" cy="-418.7565" rx="27.8306" ry="18"/>
<text text-anchor="middle" x="304.7587" y="-414.5565" font-family="Times,serif" font-size="14.00" fill="#000000">N49</text>
</g>
<!-- N50 -->
<g id="node42" class="node">
<title>N50</title>
<ellipse fill="none" stroke="#000000" cx="259.9342" cy="-412.3433" rx="27.8306" ry="18"/>
<text text-anchor="middle" x="259.9342" y="-408.1433" font-family="Times,serif" font-size="14.00" fill="#000000">N50</text>
</g>
<!-- N51 -->
<g id="node43" class="node">
<title>N51</title>
<ellipse fill="none" stroke="#000000" cx="280.43" cy="-379.9655" rx="27.8306" ry="18"/>
<text text-anchor="middle" x="280.43" y="-375.7655" font-family="Times,serif" font-size="14.00" fill="#000000">N51</text>
</g>
<!-- N52 -->
<g id="node44" class="node">
<title>N52</title>
<ellipse fill="none" stroke="#000000" cx="379.8053" cy="-378.5083" rx="27.8306" ry="18"/>
<text text-anchor="middle" x="379.8053" y="-374.3083" font-family="Times,serif" font-size="14.00" fill="#000000">N52</text>
</g>
<!-- N53 -->
<g id="node45" class="node">
<title>N53</title>
<ellipse fill="none" stroke="#000000" cx="368.9252" cy="-337.1857" rx="27.8306" ry="18"/>
<text text-anchor="middle" x="368.9252" y="-332.9857" font-family="Times,serif" font-size="14.00" fill="#000000">N53</text>
</g>
<!-- Root -->
<g id="node46" class="node">
<title>Root</title>
<ellipse fill="none" stroke="#000000" cx="196.9558" cy="-206.882" rx="29.6358" ry="18"/>
<text text-anchor="middle" x="196.9558" y="-202.682" font-family="Times,serif" font-size="14.00" fill="#000000">Root</text>
</g>
<!-- Root&#45;&#45;N9 -->
<g id="edge8" class="edge">
<title>Root&#45;&#45;N9</title>
<path fill="none" stroke="#000000" d="M202.6416,-189.0105C203.5662,-186.1044 204.524,-183.0939 205.4486,-180.1876"/>
</g>
<!-- Root&#45;&#45;N10 -->
<g id="edge9" class="edge">
<title>Root&#45;&#45;N10</title>
<path fill="none" stroke="#000000" d="M187.8749,-189.5258C183.3533,-180.8837 177.9029,-170.4666 173.388,-161.8373"/>
</g>
<!-- Root&#45;&#45;N4 -->
<g id="edge3" class="edge">
<title>Root&#45;&#45;N4</title>
<path fill="none" stroke="#000000" d="M196.2529,-188.6922C195.7633,-176.0221 195.113,-159.1947 194.6242,-146.5463"/>
</g>
<!-- Root&#45;&#45;N2 -->
<g id="edge1" class="edge">
<title>Root&#45;&#45;N2</title>
<path fill="none" stroke="#000000" d="M169.8207,-214.7391C165.2907,-216.0507 160.6104,-217.4059 156.138,-218.7009"/>
</g>
<!-- Root&#45;&#45;N8 -->
<g id="edge7" class="edge">
<title>Root&#45;&#45;N8</title>
<path fill="none" stroke="#000000" d="M194.8603,-224.8821C193.8714,-233.3762 192.6933,-243.4954 191.7005,-252.023"/>
</g>
<!-- Root&#45;&#45;N5 -->
<g id="edge4" class="edge">
<title>Root&#45;&#45;N5</title>
<path fill="none" stroke="#000000" d="M170.2214,-198.7817C168.8929,-198.3792 167.5614,-197.9758 166.2391,-197.5751"/>
</g>
<!-- Root&#45;&#45;N7 -->
<g id="edge6" class="edge">
<title>Root&#45;&#45;N7</title>
<path fill="none" stroke="#000000" d="M185.1299,-223.6795C181.0154,-229.5237 176.4089,-236.0668 172.3226,-241.871"/>
</g>
<!-- N3 -->
<g id="node47" class="node">
<title>N3</title>
<ellipse fill="none" stroke="#000000" cx="118.4455" cy="-280.0333" rx="27" ry="18"/>
<text text-anchor="middle" x="118.4455" y="-275.8333" font-family="Times,serif" font-size="14.00" fill="#000000">N3</text>
</g>
<!-- Root&#45;&#45;N3 -->
<g id="edge2" class="edge">
<title>Root&#45;&#45;N3</title>
<path fill="none" stroke="#000000" d="M180.6884,-222.039C167.1243,-234.6773 147.9063,-252.5835 134.4234,-265.146"/>
</g>
<!-- N6 -->
<g id="node48" class="node">
<title>N6</title>
<ellipse fill="none" stroke="#000000" cx="299.1733" cy="-209.2621" rx="27" ry="18"/>
<text text-anchor="middle" x="299.1733" y="-205.0621" font-family="Times,serif" font-size="14.00" fill="#000000">N6</text>
</g>
<!-- Root&#45;&#45;N6 -->
<g id="edge5" class="edge">
<title>Root&#45;&#45;N6</title>
<path fill="none" stroke="#000000" d="M226.7962,-207.5768C241.0566,-207.9089 258.0058,-208.3035 271.9162,-208.6274"/>
</g>
<!-- N11 -->
<g id="node49" class="node">
<title>N11</title>
<ellipse fill="none" stroke="#000000" cx="109.7618" cy="-139.1815" rx="27.8306" ry="18"/>
<text text-anchor="middle" x="109.7618" y="-134.9815" font-family="Times,serif" font-size="14.00" fill="#000000">N11</text>
</g>
<!-- Root&#45;&#45;N11 -->
<g id="edge10" class="edge">
<title>Root&#45;&#45;N11</title>
<path fill="none" stroke="#000000" d="M178.4642,-192.5245C163.4672,-180.8802 142.4577,-164.5677 127.6304,-153.0553"/>
</g>
<!-- N3&#45;&#45;N43 -->
<g id="edge42" class="edge">
<title>N3&#45;&#45;N43</title>
<path fill="none" stroke="#000000" d="M112.7891,-297.7041C108.2629,-311.8444 101.9462,-331.578 97.4222,-345.7116"/>
</g>
<!-- N3&#45;&#45;N44 -->
<g id="edge43" class="edge">
<title>N3&#45;&#45;N44</title>
<path fill="none" stroke="#000000" d="M100.6178,-293.6557C91.563,-300.5747 80.5789,-308.9678 71.4638,-315.9328"/>
</g>
<!-- N3&#45;&#45;N42 -->
<g id="edge41" class="edge">
<title>N3&#45;&#45;N42</title>
<path fill="none" stroke="#000000" d="M90.9996,-280.0606C80.9735,-280.0706 69.6288,-280.0819 59.5666,-280.0919"/>
</g>
<!-- N6&#45;&#45;N16 -->
<g id="edge15" class="edge">
<title>N6&#45;&#45;N16</title>
<path fill="none" stroke="#000000" d="M293.016,-226.8399C292.9698,-226.9719 292.9235,-227.104 292.8773,-227.2359"/>
</g>
<!-- N6&#45;&#45;N14 -->
<g id="edge13" class="edge">
<title>N6&#45;&#45;N14</title>
<path fill="none" stroke="#000000" d="M322.0882,-218.8515C322.2562,-218.9218 322.423,-218.9916 322.5886,-219.0609"/>
</g>
<!-- N12 -->
<g id="node50" class="node">
<title>N12</title>
<ellipse fill="none" stroke="#000000" cx="400.0035" cy="-223.4986" rx="27.8306" ry="18"/>
<text text-anchor="middle" x="400.0035" y="-219.2986" font-family="Times,serif" font-size="14.00" fill="#000000">N12</text>
</g>
<!-- N6&#45;&#45;N12 -->
<g id="edge11" class="edge">
<title>N6&#45;&#45;N12</title>
<path fill="none" stroke="#000000" d="M325.6653,-213.0026C340.1356,-215.0457 358.029,-217.5721 372.6343,-219.6343"/>
</g>
<!-- N13 -->
<g id="node51" class="node">
<title>N13</title>
<ellipse fill="none" stroke="#000000" cx="302.6956" cy="-320.962" rx="27.8306" ry="18"/>
<text text-anchor="middle" x="302.6956" y="-316.762" font-family="Times,serif" font-size="14.00" fill="#000000">N13</text>
</g>
<!-- N6&#45;&#45;N13 -->
<g id="edge12" class="edge">
<title>N6&#45;&#45;N13</title>
<path fill="none" stroke="#000000" d="M299.7549,-227.7071C300.4115,-248.5272 301.4727,-282.1825 302.1248,-302.8603"/>
</g>
<!-- N15 -->
<g id="node52" class="node">
<title>N15</title>
<ellipse fill="none" stroke="#000000" cx="320.4454" cy="-109.6078" rx="27.8306" ry="18"/>
<text text-anchor="middle" x="320.4454" y="-105.4078" font-family="Times,serif" font-size="14.00" fill="#000000">N15</text>
</g>
<!-- N6&#45;&#45;N15 -->
<g id="edge14" class="edge">
<title>N6&#45;&#45;N15</title>
<path fill="none" stroke="#000000" d="M303.0749,-190.984C306.9131,-173.0031 312.7389,-145.7108 316.5685,-127.77"/>
</g>
<!-- N11&#45;&#45;N23 -->
<g id="edge22" class="edge">
<title>N11&#45;&#45;N23</title>
<path fill="none" stroke="#000000" d="M90.4314,-126.2249C81.9643,-120.5497 72.0477,-113.9029 63.5705,-108.2209"/>
</g>
<!-- N11&#45;&#45;N26 -->
<g id="edge25" class="edge">
<title>N11&#45;&#45;N26</title>
<path fill="none" stroke="#000000" d="M81.9675,-138.8075C73.4083,-138.6923 63.9878,-138.5656 55.4305,-138.4504"/>
</g>
<!-- N11&#45;&#45;N25 -->
<g id="edge24" class="edge">
<title>N11&#45;&#45;N25</title>
<path fill="none" stroke="#000000" d="M101.7702,-121.813C96.0065,-109.2864 88.2598,-92.4501 82.5034,-79.9393"/>
</g>
<!-- N11&#45;&#45;N24 -->
<g id="edge23" class="edge">
<title>N11&#45;&#45;N24</title>
<path fill="none" stroke="#000000" d="M87.5441,-150.4326C75.9774,-156.2899 61.8846,-163.4265 50.3633,-169.2609"/>
</g>
<!-- N11&#45;&#45;N27 -->
<g id="edge26" class="edge">
<title>N11&#45;&#45;N27</title>
<path fill="none" stroke="#000000" d="M109.9,-120.7668C110.0234,-104.3202 110.2032,-80.3711 110.3258,-64.0337"/>
</g>
<!-- N12&#45;&#45;N20 -->
<g id="edge19" class="edge">
<title>N12&#45;&#45;N20</title>
<path fill="none" stroke="#000000" d="M415.2459,-238.7874C419.9398,-243.4956 425.106,-248.6775 429.7989,-253.3846"/>
</g>
<!-- N12&#45;&#45;N22 -->
<g id="edge21" class="edge">
<title>N12&#45;&#45;N22</title>
<path fill="none" stroke="#000000" d="M409.7485,-206.3725C413.5581,-199.6774 417.9156,-192.0194 421.7142,-185.3437"/>
</g>
<!-- N12&#45;&#45;N21 -->
<g id="edge20" class="edge">
<title>N12&#45;&#45;N21</title>
<path fill="none" stroke="#000000" d="M407.0506,-241.2549C411.7909,-253.1987 418.0139,-268.8783 422.7435,-280.7953"/>
</g>
<!-- N12&#45;&#45;N17 -->
<g id="edge16" class="edge">
<title>N12&#45;&#45;N17</title>
<path fill="none" stroke="#000000" d="M413.3565,-207.6717C423.3271,-195.8538 436.893,-179.7747 446.8547,-167.9674"/>
</g>
<!-- N12&#45;&#45;N19 -->
<g id="edge18" class="edge">
<title>N12&#45;&#45;N19</title>
<path fill="none" stroke="#000000" d="M425.0824,-215.7045C428.615,-214.6066 432.2464,-213.4781 435.7779,-212.3805"/>
</g>
<!-- N18 -->
<g id="node53" class="node">
<title>N18</title>
<ellipse fill="none" stroke="#000000" cx="506.0415" cy="-243.0638" rx="27.8306" ry="18"/>
<text text-anchor="middle" x="506.0415" y="-238.8638" font-family="Times,serif" font-size="14.00" fill="#000000">N18</text>
</g>
<!-- N12&#45;&#45;N18 -->
<g id="edge17" class="edge">
<title>N12&#45;&#45;N18</title>
<path fill="none" stroke="#000000" d="M426.7613,-228.4357C442.8359,-231.4016 463.2191,-235.1626 479.2922,-238.1282"/>
</g>
<!-- N13&#45;&#45;N45 -->
<g id="edge44" class="edge">
<title>N13&#45;&#45;N45</title>
<path fill="none" stroke="#000000" d="M314.2476,-337.384C318.5095,-343.4425 323.3373,-350.3056 327.6036,-356.3703"/>
</g>
<!-- N13&#45;&#45;N46 -->
<g id="edge45" class="edge">
<title>N13&#45;&#45;N46</title>
<path fill="none" stroke="#000000" d="M311.009,-338.3172C318.6442,-354.2562 329.898,-377.7496 337.525,-393.6717"/>
</g>
<!-- N13&#45;&#45;N47 -->
<g id="edge46" class="edge">
<title>N13&#45;&#45;N47</title>
<path fill="none" stroke="#000000" d="M285.5751,-335.5083C274.059,-345.2928 258.9409,-358.1378 247.4506,-367.9004"/>
</g>
<!-- N13&#45;&#45;N48 -->
<g id="edge47" class="edge">
<title>N13&#45;&#45;N48</title>
<path fill="none" stroke="#000000" d="M279.0906,-330.4801C274.1177,-332.4852 268.8704,-334.6011 263.8963,-336.6067"/>
</g>
<!-- N13&#45;&#45;N49 -->
<g id="edge48" class="edge">
<title>N13&#45;&#45;N49</title>
<path fill="none" stroke="#000000" d="M303.0836,-339.3564C303.4525,-356.8405 304.0041,-382.9878 304.3724,-400.4446"/>
</g>
<!-- N13&#45;&#45;N50 -->
<g id="edge49" class="edge">
<title>N13&#45;&#45;N50</title>
<path fill="none" stroke="#000000" d="M294.4507,-338.5813C286.8301,-354.8665 275.5745,-378.9198 268.0087,-395.0881"/>
</g>
<!-- N13&#45;&#45;N51 -->
<g id="edge50" class="edge">
<title>N13&#45;&#45;N51</title>
<path fill="none" stroke="#000000" d="M296.0152,-338.665C293.1971,-346.1329 289.9233,-354.8085 287.1057,-362.275"/>
</g>
<!-- N13&#45;&#45;N52 -->
<g id="edge51" class="edge">
<title>N13&#45;&#45;N52</title>
<path fill="none" stroke="#000000" d="M320.9695,-334.5997C333.1724,-343.7066 349.1645,-355.6413 361.3953,-364.7691"/>
</g>
<!-- N13&#45;&#45;N53 -->
<g id="edge52" class="edge">
<title>N13&#45;&#45;N53</title>
<path fill="none" stroke="#000000" d="M328.8713,-327.3741C333.4994,-328.5078 338.3168,-329.6878 342.9396,-330.8203"/>
</g>
<!-- N15&#45;&#45;N28 -->
<g id="edge27" class="edge">
<title>N15&#45;&#45;N28</title>
<path fill="none" stroke="#000000" d="M307.1315,-93.5167C297.8577,-82.3086 285.5411,-67.4228 276.2832,-56.2338"/>
</g>
<!-- N15&#45;&#45;N35 -->
<g id="edge34" class="edge">
<title>N15&#45;&#45;N35</title>
<path fill="none" stroke="#000000" d="M333.0119,-93.3041C342.3954,-81.1301 355.1623,-64.5665 364.5373,-52.4036"/>
</g>
<!-- N15&#45;&#45;N34 -->
<g id="edge33" class="edge">
<title>N15&#45;&#45;N34</title>
<path fill="none" stroke="#000000" d="M320.3735,-91.2845C320.3235,-78.5216 320.257,-61.5708 320.207,-48.8296"/>
</g>
<!-- N15&#45;&#45;N32 -->
<g id="edge31" class="edge">
<title>N15&#45;&#45;N32</title>
<path fill="none" stroke="#000000" d="M326.0371,-91.9449C331.1396,-75.8272 338.6451,-52.1194 343.7731,-35.9212"/>
</g>
<!-- N15&#45;&#45;N36 -->
<g id="edge35" class="edge">
<title>N15&#45;&#45;N36</title>
<path fill="none" stroke="#000000" d="M348.2414,-110.3084C348.3323,-110.3107 348.4231,-110.313 348.5139,-110.3153"/>
</g>
<!-- N15&#45;&#45;N31 -->
<g id="edge30" class="edge">
<title>N15&#45;&#45;N31</title>
<path fill="none" stroke="#000000" d="M341.3637,-97.2834C354.9501,-89.2788 372.5855,-78.8887 386.1333,-70.9068"/>
</g>
<!-- N15&#45;&#45;N30 -->
<g id="edge29" class="edge">
<title>N15&#45;&#45;N30</title>
<path fill="none" stroke="#000000" d="M301.7953,-96.0873C297.8663,-93.2389 293.7204,-90.2333 289.7904,-87.3843"/>
</g>
<!-- N15&#45;&#45;N33 -->
<g id="edge32" class="edge">
<title>N15&#45;&#45;N33</title>
<path fill="none" stroke="#000000" d="M314.7229,-91.9939C309.501,-75.921 301.8201,-52.279 296.5722,-36.1258"/>
</g>
<!-- N15&#45;&#45;N29 -->
<g id="edge28" class="edge">
<title>N15&#45;&#45;N29</title>
<path fill="none" stroke="#000000" d="M345.2707,-101.4753C352.4436,-99.1256 360.2756,-96.5599 367.466,-94.2045"/>
</g>
<!-- N18&#45;&#45;N39 -->
<g id="edge38" class="edge">
<title>N18&#45;&#45;N39</title>
<path fill="none" stroke="#000000" d="M517.9108,-226.7986C527.6767,-213.416 541.4593,-194.5291 551.2746,-181.0788"/>
</g>
<!-- N18&#45;&#45;N41 -->
<g id="edge40" class="edge">
<title>N18&#45;&#45;N41</title>
<path fill="none" stroke="#000000" d="M528.0338,-231.8839C537.7529,-226.9431 549.1508,-221.149 558.8517,-216.2175"/>
</g>
<!-- N18&#45;&#45;N38 -->
<g id="edge37" class="edge">
<title>N18&#45;&#45;N38</title>
<path fill="none" stroke="#000000" d="M533.362,-247.3096C540.6988,-248.4498 548.6269,-249.6818 555.9448,-250.8191"/>
</g>
<!-- N18&#45;&#45;N37 -->
<g id="edge36" class="edge">
<title>N18&#45;&#45;N37</title>
<path fill="none" stroke="#000000" d="M511.9782,-260.8631C517.2463,-276.6575 524.9019,-299.6105 530.1662,-315.3937"/>
</g>
<!-- N18&#45;&#45;N40 -->
<g id="edge39" class="edge">
<title>N18&#45;&#45;N40</title>
<path fill="none" stroke="#000000" d="M521.2979,-258.0837C530.0745,-266.7243 541.071,-277.5504 549.8734,-286.2163"/>
</g>
</g>
</svg>
