<?xml version="1.0" encoding="UTF-8" standalone="no"?>
<!DOCTYPE svg PUBLIC "-//W3C//DTD SVG 1.1//EN"
 "http://www.w3.org/Graphics/SVG/1.1/DTD/svg11.dtd">
<!-- Generated by graphviz version 2.40.1 (20161225.0304)
 -->
<!-- Title: test_graph Pages: 1 -->
<svg width="763pt" height="505pt"
 viewBox="0.00 0.00 762.82 504.75" xmlns="http://www.w3.org/2000/svg" xmlns:xlink="http://www.w3.org/1999/xlink">
<g id="graph0" class="graph" transform="scale(1 1) rotate(0) translate(4 500.7474)">
<title>test_graph</title>
<polygon fill="#ffffff" stroke="transparent" points="-4,4 -4,-500.7474 758.824,-500.7474 758.824,4 -4,4"/>
<!-- N24 -->
<g id="node1" class="node">
<title>N24</title>
<ellipse fill="none" stroke="#000000" cx="365.7635" cy="-239.7415" rx="27.8306" ry="18"/>
<text text-anchor="middle" x="365.7635" y="-235.5415" font-family="Times,serif" font-size="14.00" fill="#000000">N24</text>
</g>
<!-- N25 -->
<g id="node5" class="node">
<title>N25</title>
<ellipse fill="none" stroke="#000000" cx="306.832" cy="-226.9752" rx="27.8306" ry="18"/>
<text text-anchor="middle" x="306.832" y="-222.7752" font-family="Times,serif" font-size="14.00" fill="#000000">N25</text>
</g>
<!-- N24&#45;&#45;N25 -->
<g id="edge26" class="edge">
<title>N24&#45;&#45;N25</title>
<path fill="none" stroke="#000000" d="M339.4004,-234.0305C337.3165,-233.579 335.2116,-233.123 333.1281,-232.6717"/>
</g>
<!-- N23 -->
<g id="node17" class="node">
<title>N23</title>
<ellipse fill="none" stroke="#000000" cx="421.3211" cy="-262.1814" rx="27.8306" ry="18"/>
<text text-anchor="middle" x="421.3211" y="-257.9814" font-family="Times,serif" font-size="14.00" fill="#000000">N23</text>
</g>
<!-- N24&#45;&#45;N23 -->
<g id="edge28" class="edge">
<title>N24&#45;&#45;N23</title>
<path fill="none" stroke="#000000" d="M389.325,-249.2581C392.0458,-250.357 394.822,-251.4783 397.5457,-252.5784"/>
</g>
<!-- N0 -->
<g id="node2" class="node">
<title>N0</title>
<ellipse fill="none" stroke="#000000" cx="393.5999" cy="-432.1385" rx="27" ry="18"/>
<text text-anchor="middle" x="393.5999" y="-427.9385" font-family="Times,serif" font-size="14.00" fill="#000000">N0</text>
</g>
<!-- N21 -->
<g id="node27" class="node">
<title>N21</title>
<ellipse fill="none" stroke="#000000" cx="348.7672" cy="-461.6943" rx="27.8306" ry="18"/>
<text text-anchor="middle" x="348.7672" y="-457.4943" font-family="Times,serif" font-size="14.00" fill="#000000">N21</text>
</g>
<!-- N0&#45;&#45;N21 -->
<g id="edge34" class="edge">
<title>N0&#45;&#45;N21</title>
<path fill="none" stroke="#000000" d="M374.3267,-444.8443C372.3331,-446.1586 370.3057,-447.4951 368.3093,-448.8113"/>
</g>
<!-- N10 -->
<g id="node34" class="node">
<title>N10</title>
<ellipse fill="none" stroke="#000000" cx="430.2366" cy="-392.8001" rx="27.8306" ry="18"/>
<text text-anchor="middle" x="430.2366" y="-388.6001" font-family="Times,serif" font-size="14.00" fill="#000000">N10</text>
</g>
<!-- N0&#45;&#45;N10 -->
<g id="edge27" class="edge">
<title>N0&#45;&#45;N10</title>
<path fill="none" stroke="#000000" d="M408.0797,-416.5909C410.6399,-413.842 413.3048,-410.9806 415.862,-408.2348"/>
</g>
<!-- N1 -->
<g id="node3" class="node">
<title>N1</title>
<ellipse fill="none" stroke="#000000" cx="297.9566" cy="-476.5264" rx="27" ry="18"/>
<text text-anchor="middle" x="297.9566" y="-472.3264" font-family="Times,serif" font-size="14.00" fill="#000000">N1</text>
</g>
<!-- N1&#45;&#45;N21 -->
<g id="edge13" class="edge">
<title>N1&#45;&#45;N21</title>
<path fill="none" stroke="#000000" d="M322.7665,-469.2841C322.9681,-469.2253 323.1696,-469.1665 323.3712,-469.1076"/>
</g>
<!-- N9 -->
<g id="node30" class="node">
<title>N9</title>
<ellipse fill="none" stroke="#000000" cx="244.2669" cy="-478.7474" rx="27" ry="18"/>
<text text-anchor="middle" x="244.2669" y="-474.5474" font-family="Times,serif" font-size="14.00" fill="#000000">N9</text>
</g>
<!-- N1&#45;&#45;N9 -->
<g id="edge39" class="edge">
<title>N1&#45;&#45;N9</title>
<path fill="none" stroke="#000000" d="M270.7972,-477.6499C270.6931,-477.6542 270.5891,-477.6585 270.4851,-477.6628"/>
</g>
<!-- N16 -->
<g id="node4" class="node">
<title>N16</title>
<ellipse fill="none" stroke="#000000" cx="71.61" cy="-286.9509" rx="27.8306" ry="18"/>
<text text-anchor="middle" x="71.61" y="-282.7509" font-family="Times,serif" font-size="14.00" fill="#000000">N16</text>
</g>
<!-- N2 -->
<g id="node11" class="node">
<title>N2</title>
<ellipse fill="none" stroke="#000000" cx="72.7597" cy="-226.7695" rx="27" ry="18"/>
<text text-anchor="middle" x="72.7597" y="-222.5695" font-family="Times,serif" font-size="14.00" fill="#000000">N2</text>
</g>
<!-- N16&#45;&#45;N2 -->
<g id="edge21" class="edge">
<title>N16&#45;&#45;N2</title>
<path fill="none" stroke="#000000" d="M71.9549,-268.8945C72.1005,-261.2775 72.2695,-252.4288 72.415,-244.8132"/>
</g>
<!-- N34 -->
<g id="node16" class="node">
<title>N34</title>
<ellipse fill="none" stroke="#000000" cx="75.1355" cy="-344.3162" rx="27.8306" ry="18"/>
<text text-anchor="middle" x="75.1355" y="-340.1162" font-family="Times,serif" font-size="14.00" fill="#000000">N34</text>
</g>
<!-- N16&#45;&#45;N34 -->
<g id="edge20" class="edge">
<title>N16&#45;&#45;N34</title>
<path fill="none" stroke="#000000" d="M72.7255,-305.1016C73.137,-311.7979 73.6032,-319.3835 74.0151,-326.0866"/>
</g>
<!-- N26 -->
<g id="node12" class="node">
<title>N26</title>
<ellipse fill="none" stroke="#000000" cx="245.7598" cy="-222.1613" rx="27.8306" ry="18"/>
<text text-anchor="middle" x="245.7598" y="-217.9613" font-family="Times,serif" font-size="14.00" fill="#000000">N26</text>
</g>
<!-- N25&#45;&#45;N26 -->
<g id="edge35" class="edge">
<title>N25&#45;&#45;N26</title>
<path fill="none" stroke="#000000" d="M279.155,-224.7936C277.2613,-224.6443 275.3529,-224.4939 273.4592,-224.3446"/>
</g>
<!-- N22 -->
<g id="node6" class="node">
<title>N22</title>
<ellipse fill="none" stroke="#000000" cx="472.9015" cy="-290.5076" rx="27.8306" ry="18"/>
<text text-anchor="middle" x="472.9015" y="-286.3076" font-family="Times,serif" font-size="14.00" fill="#000000">N22</text>
</g>
<!-- N28 -->
<g id="node8" class="node">
<title>N28</title>
<ellipse fill="none" stroke="#000000" cx="456.6787" cy="-344.3785" rx="27.8306" ry="18"/>
<text text-anchor="middle" x="456.6787" y="-340.1785" font-family="Times,serif" font-size="14.00" fill="#000000">N28</text>
</g>
<!-- N22&#45;&#45;N28 -->
<g id="edge8" class="edge">
<title>N22&#45;&#45;N28</title>
<path fill="none" stroke="#000000" d="M467.4996,-308.4459C465.7298,-314.3225 463.7657,-320.8447 462.0019,-326.7019"/>
</g>
<!-- N22&#45;&#45;N23 -->
<g id="edge7" class="edge">
<title>N22&#45;&#45;N23</title>
<path fill="none" stroke="#000000" d="M451.624,-278.8227C448.6269,-277.1768 445.5459,-275.4849 442.5498,-273.8395"/>
</g>
<!-- N29 -->
<g id="node29" class="node">
<title>N29</title>
<ellipse fill="none" stroke="#000000" cx="530.4019" cy="-271.6553" rx="27.8306" ry="18"/>
<text text-anchor="middle" x="530.4019" y="-267.4553" font-family="Times,serif" font-size="14.00" fill="#000000">N29</text>
</g>
<!-- N22&#45;&#45;N29 -->
<g id="edge3" class="edge">
<title>N22&#45;&#45;N29</title>
<path fill="none" stroke="#000000" d="M497.6206,-282.4031C500.1774,-281.5648 502.7776,-280.7123 505.3382,-279.8728"/>
</g>
<!-- N4 -->
<g id="node7" class="node">
<title>N4</title>
<ellipse fill="none" stroke="#000000" cx="667.7875" cy="-206.0377" rx="27" ry="18"/>
<text text-anchor="middle" x="667.7875" y="-201.8377" font-family="Times,serif" font-size="14.00" fill="#000000">N4</text>
</g>
<!-- N14 -->
<g id="node19" class="node">
<title>N14</title>
<ellipse fill="none" stroke="#000000" cx="698.2573" cy="-178.8752" rx="27.8306" ry="18"/>
<text text-anchor="middle" x="698.2573" y="-174.6752" font-family="Times,serif" font-size="14.00" fill="#000000">N14</text>
</g>
<!-- N4&#45;&#45;N14 -->
<g id="edge19" class="edge">
<title>N4&#45;&#45;N14</title>
<path fill="none" stroke="#000000" d="M684.0928,-191.5022C684.206,-191.4013 684.3191,-191.3005 684.4321,-191.1997"/>
</g>
<!-- N30 -->
<g id="node25" class="node">
<title>N30</title>
<ellipse fill="none" stroke="#000000" cx="628.9613" cy="-230.4572" rx="27.8306" ry="18"/>
<text text-anchor="middle" x="628.9613" y="-226.2572" font-family="Times,serif" font-size="14.00" fill="#000000">N30</text>
</g>
<!-- N4&#45;&#45;N30 -->
<g id="edge37" class="edge">
<title>N4&#45;&#45;N30</title>
<path fill="none" stroke="#000000" d="M647.9194,-218.5336C647.7702,-218.6275 647.6209,-218.7213 647.4718,-218.8151"/>
</g>
<!-- N28&#45;&#45;N10 -->
<g id="edge23" class="edge">
<title>N28&#45;&#45;N10</title>
<path fill="none" stroke="#000000" d="M447.2817,-361.5865C444.7879,-366.1533 442.0955,-371.0837 439.6033,-375.6475"/>
</g>
<!-- N17 -->
<g id="node9" class="node">
<title>N17</title>
<ellipse fill="none" stroke="#000000" cx="47.5125" cy="-173.0431" rx="27.8306" ry="18"/>
<text text-anchor="middle" x="47.5125" y="-168.8431" font-family="Times,serif" font-size="14.00" fill="#000000">N17</text>
</g>
<!-- N17&#45;&#45;N2 -->
<g id="edge1" class="edge">
<title>N17&#45;&#45;N2</title>
<path fill="none" stroke="#000000" d="M55.6398,-190.3382C58.5229,-196.4733 61.7658,-203.3744 64.6476,-209.5068"/>
</g>
<!-- N32 -->
<g id="node15" class="node">
<title>N32</title>
<ellipse fill="none" stroke="#000000" cx="31.7587" cy="-122.6697" rx="27.8306" ry="18"/>
<text text-anchor="middle" x="31.7587" y="-118.4697" font-family="Times,serif" font-size="14.00" fill="#000000">N32</text>
</g>
<!-- N17&#45;&#45;N32 -->
<g id="edge5" class="edge">
<title>N17&#45;&#45;N32</title>
<path fill="none" stroke="#000000" d="M41.9139,-155.1415C40.4282,-150.3907 38.8241,-145.2615 37.3392,-140.5137"/>
</g>
<!-- N19 -->
<g id="node10" class="node">
<title>N19</title>
<ellipse fill="none" stroke="#000000" cx="45.5628" cy="-290.7878" rx="27.8306" ry="18"/>
<text text-anchor="middle" x="45.5628" y="-286.5878" font-family="Times,serif" font-size="14.00" fill="#000000">N19</text>
</g>
<!-- N11 -->
<g id="node31" class="node">
<title>N11</title>
<ellipse fill="none" stroke="#000000" cx="79.9146" cy="-259.0934" rx="27.8306" ry="18"/>
<text text-anchor="middle" x="79.9146" y="-254.8934" font-family="Times,serif" font-size="14.00" fill="#000000">N11</text>
</g>
<!-- N19&#45;&#45;N11 -->
<g id="edge12" class="edge">
<title>N19&#45;&#45;N11</title>
<path fill="none" stroke="#000000" d="M61.5319,-276.054C62.2327,-275.4074 62.9362,-274.7583 63.6378,-274.111"/>
</g>
<!-- N15 -->
<g id="node35" class="node">
<title>N15</title>
<ellipse fill="none" stroke="#000000" cx="42.5507" cy="-327.7104" rx="27.8306" ry="18"/>
<text text-anchor="middle" x="42.5507" y="-323.5104" font-family="Times,serif" font-size="14.00" fill="#000000">N15</text>
</g>
<!-- N19&#45;&#45;N15 -->
<g id="edge17" class="edge">
<title>N19&#45;&#45;N15</title>
<path fill="none" stroke="#000000" d="M44.092,-308.8164C44.0681,-309.1093 44.0442,-309.4024 44.0203,-309.6953"/>
</g>
<!-- N5 -->
<g id="node26" class="node">
<title>N5</title>
<ellipse fill="none" stroke="#000000" cx="120.2318" cy="-232.9157" rx="27" ry="18"/>
<text text-anchor="middle" x="120.2318" y="-228.7157" font-family="Times,serif" font-size="14.00" fill="#000000">N5</text>
</g>
<!-- N2&#45;&#45;N5 -->
<g id="edge40" class="edge">
<title>N2&#45;&#45;N5</title>
<path fill="none" stroke="#000000" d="M99.2717,-230.202C99.3566,-230.213 99.4415,-230.224 99.5264,-230.235"/>
</g>
<!-- N3 -->
<g id="node24" class="node">
<title>N3</title>
<ellipse fill="none" stroke="#000000" cx="183.3455" cy="-224.4339" rx="27" ry="18"/>
<text text-anchor="middle" x="183.3455" y="-220.2339" font-family="Times,serif" font-size="14.00" fill="#000000">N3</text>
</g>
<!-- N26&#45;&#45;N3 -->
<g id="edge6" class="edge">
<title>N26&#45;&#45;N3</title>
<path fill="none" stroke="#000000" d="M217.8386,-223.178C215.3719,-223.2678 212.8774,-223.3586 210.4179,-223.4482"/>
</g>
<!-- N31 -->
<g id="node13" class="node">
<title>N31</title>
<ellipse fill="none" stroke="#000000" cx="192.1261" cy="-464.7353" rx="27.8306" ry="18"/>
<text text-anchor="middle" x="192.1261" y="-460.5353" font-family="Times,serif" font-size="14.00" fill="#000000">N31</text>
</g>
<!-- N31&#45;&#45;N9 -->
<g id="edge18" class="edge">
<title>N31&#45;&#45;N9</title>
<path fill="none" stroke="#000000" d="M217.891,-471.6592C218.3015,-471.7696 218.7121,-471.8799 219.1225,-471.9902"/>
</g>
<!-- N6 -->
<g id="node32" class="node">
<title>N6</title>
<ellipse fill="none" stroke="#000000" cx="144.3855" cy="-436.9858" rx="27" ry="18"/>
<text text-anchor="middle" x="144.3855" y="-432.7858" font-family="Times,serif" font-size="14.00" fill="#000000">N6</text>
</g>
<!-- N31&#45;&#45;N6 -->
<g id="edge38" class="edge">
<title>N31&#45;&#45;N6</title>
<path fill="none" stroke="#000000" d="M171.3253,-452.6447C169.2146,-451.4178 167.0713,-450.1721 164.963,-448.9466"/>
</g>
<!-- N7 -->
<g id="node14" class="node">
<title>N7</title>
<ellipse fill="none" stroke="#000000" cx="66.7917" cy="-18" rx="27" ry="18"/>
<text text-anchor="middle" x="66.7917" y="-13.8" font-family="Times,serif" font-size="14.00" fill="#000000">N7</text>
</g>
<!-- N7&#45;&#45;N7 -->
<g id="edge24" class="edge">
<title>N7&#45;&#45;N7</title>
<path fill="none" stroke="#000000" d="M92.2352,-24.6907C102.8196,-25.1521 111.7917,-22.9219 111.7917,-18 111.7917,-13.0781 102.8196,-10.8479 92.2352,-11.3093"/>
</g>
<!-- N20 -->
<g id="node33" class="node">
<title>N20</title>
<ellipse fill="none" stroke="#000000" cx="41.3282" cy="-38.9124" rx="27.8306" ry="18"/>
<text text-anchor="middle" x="41.3282" y="-34.7124" font-family="Times,serif" font-size="14.00" fill="#000000">N20</text>
</g>
<!-- N7&#45;&#45;N20 -->
<g id="edge9" class="edge">
<title>N7&#45;&#45;N20</title>
<path fill="none" stroke="#000000" d="M49.6659,-32.0649C49.522,-32.1831 49.3789,-32.3007 49.2367,-32.4174"/>
</g>
<!-- N18 -->
<g id="node20" class="node">
<title>N18</title>
<ellipse fill="none" stroke="#000000" cx="27.6648" cy="-76.427" rx="27.8306" ry="18"/>
<text text-anchor="middle" x="27.6648" y="-72.227" font-family="Times,serif" font-size="14.00" fill="#000000">N18</text>
</g>
<!-- N32&#45;&#45;N18 -->
<g id="edge14" class="edge">
<title>N32&#45;&#45;N18</title>
<path fill="none" stroke="#000000" d="M30.1642,-104.6587C29.8678,-101.3112 29.5582,-97.8133 29.2617,-94.465"/>
</g>
<!-- N13 -->
<g id="node22" class="node">
<title>N13</title>
<ellipse fill="none" stroke="#000000" cx="104.9094" cy="-396.0092" rx="27.8306" ry="18"/>
<text text-anchor="middle" x="104.9094" y="-391.8092" font-family="Times,serif" font-size="14.00" fill="#000000">N13</text>
</g>
<!-- N34&#45;&#45;N13 -->
<g id="edge32" class="edge">
<title>N34&#45;&#45;N13</title>
<path fill="none" stroke="#000000" d="M84.8846,-361.2424C88.1408,-366.8959 91.7709,-373.1983 95.0365,-378.868"/>
</g>
<!-- N34&#45;&#45;N15 -->
<g id="edge22" class="edge">
<title>N34&#45;&#45;N15</title>
<path fill="none" stroke="#000000" d="M53.2202,-333.1477C53.1281,-333.1008 53.0363,-333.054 52.9447,-333.0074"/>
</g>
<!-- N27 -->
<g id="node18" class="node">
<title>N27</title>
<ellipse fill="none" stroke="#000000" cx="582.5641" cy="-251.8498" rx="27.8306" ry="18"/>
<text text-anchor="middle" x="582.5641" y="-247.6498" font-family="Times,serif" font-size="14.00" fill="#000000">N27</text>
</g>
<!-- N27&#45;&#45;N30 -->
<g id="edge31" class="edge">
<title>N27&#45;&#45;N30</title>
<path fill="none" stroke="#000000" d="M605.219,-241.4042C605.5871,-241.2345 605.9553,-241.0647 606.3233,-240.895"/>
</g>
<!-- N27&#45;&#45;N29 -->
<g id="edge15" class="edge">
<title>N27&#45;&#45;N29</title>
<path fill="none" stroke="#000000" d="M558.6203,-260.941C557.2276,-261.4698 555.8268,-262.0017 554.4337,-262.5306"/>
</g>
<!-- N14&#45;&#45;N14 -->
<g id="edge2" class="edge">
<title>N14&#45;&#45;N14</title>
<path fill="none" stroke="#000000" d="M724.0767,-185.5658C734.8174,-186.0273 743.9221,-183.797 743.9221,-178.8752 743.9221,-173.9533 734.8174,-171.7231 724.0767,-172.1845"/>
</g>
<!-- N12 -->
<g id="node21" class="node">
<title>N12</title>
<ellipse fill="none" stroke="#000000" cx="712.2935" cy="-147.4933" rx="27.8306" ry="18"/>
<text text-anchor="middle" x="712.2935" y="-143.2933" font-family="Times,serif" font-size="14.00" fill="#000000">N12</text>
</g>
<!-- N14&#45;&#45;N12 -->
<g id="edge36" class="edge">
<title>N14&#45;&#45;N12</title>
<path fill="none" stroke="#000000" d="M706.0962,-161.3492C706.1464,-161.2369 706.1966,-161.1247 706.2467,-161.0126"/>
</g>
<!-- N18&#45;&#45;N20 -->
<g id="edge30" class="edge">
<title>N18&#45;&#45;N20</title>
<path fill="none" stroke="#000000" d="M34.1764,-58.5487C34.3963,-57.9448 34.6167,-57.3397 34.8366,-56.7358"/>
</g>
<!-- N8 -->
<g id="node28" class="node">
<title>N8</title>
<ellipse fill="none" stroke="#000000" cx="709.824" cy="-119.1087" rx="27" ry="18"/>
<text text-anchor="middle" x="709.824" y="-114.9087" font-family="Times,serif" font-size="14.00" fill="#000000">N8</text>
</g>
<!-- N12&#45;&#45;N8 -->
<g id="edge4" class="edge">
<title>N12&#45;&#45;N8</title>
<path fill="none" stroke="#000000" d="M710.7156,-129.3562C710.708,-129.2693 710.7005,-129.1826 710.6929,-129.0961"/>
</g>
<!-- N13&#45;&#45;N6 -->
<g id="edge29" class="edge">
<title>N13&#45;&#45;N6</title>
<path fill="none" stroke="#000000" d="M119.6088,-411.2674C122.8532,-414.635 126.2921,-418.2047 129.5421,-421.5782"/>
</g>
<!-- N33 -->
<g id="node23" class="node">
<title>N33</title>
<ellipse fill="none" stroke="#000000" cx="459.6648" cy="-162" rx="27.8306" ry="18"/>
<text text-anchor="middle" x="459.6648" y="-157.8" font-family="Times,serif" font-size="14.00" fill="#000000">N33</text>
</g>
<!-- N33&#45;&#45;N33 -->
<g id="edge25" class="edge">
<title>N33&#45;&#45;N33</title>
<path fill="none" stroke="#000000" d="M485.4842,-168.6907C496.2249,-169.1521 505.3296,-166.9219 505.3296,-162 505.3296,-157.0781 496.2249,-154.8479 485.4842,-155.3093"/>
</g>
<!-- N3&#45;&#45;N5 -->
<g id="edge10" class="edge">
<title>N3&#45;&#45;N5</title>
<path fill="none" stroke="#000000" d="M156.5796,-228.0309C153.3543,-228.4644 150.0606,-228.907 146.8376,-229.3401"/>
</g>
<!-- N5&#45;&#45;N11 -->
<g id="edge33" class="edge">
<title>N5&#45;&#45;N11</title>
<path fill="none" stroke="#000000" d="M100.5456,-245.6978C100.2258,-245.9054 99.9058,-246.1132 99.586,-246.3208"/>
</g>
<!-- N8&#45;&#45;N8 -->
<g id="edge16" class="edge">
<title>N8&#45;&#45;N8</title>
<path fill="none" stroke="#000000" d="M735.2675,-125.7994C745.8519,-126.2608 754.824,-124.0306 754.824,-119.1087 754.824,-114.1869 745.8519,-111.9566 735.2675,-112.4181"/>
</g>
<!-- N20&#45;&#45;N20 -->
<g id="edge11" class="edge">
<title>N20&#45;&#45;N20</title>
<path fill="none" stroke="#000000" d="M67.1475,-45.6031C77.8883,-46.0645 86.993,-43.8343 86.993,-38.9124 86.993,-33.9906 77.8883,-31.7603 67.1475,-32.2218"/>
</g>
</g>
</svg>
