<?xml version="1.0" encoding="UTF-8" standalone="no"?>
<!DOCTYPE svg PUBLIC "-//W3C//DTD SVG 1.1//EN"
 "http://www.w3.org/Graphics/SVG/1.1/DTD/svg11.dtd">
<!-- Generated by graphviz version 2.40.1 (20161225.0304)
 -->
<!-- Title: test_graph Pages: 1 -->
<svg width="762pt" height="612pt"
 viewBox="0.00 0.00 762.26 611.71" xmlns="http://www.w3.org/2000/svg" xmlns:xlink="http://www.w3.org/1999/xlink">
<g id="graph0" class="graph" transform="scale(1 1) rotate(0) translate(4 607.7101)">
<title>test_graph</title>
<polygon fill="#ffffff" stroke="transparent" points="-4,4 -4,-607.7101 758.2635,-607.7101 758.2635,4 -4,4"/>
<!-- N23 -->
<g id="node1" class="node">
<title>N23</title>
<ellipse fill="none" stroke="#000000" cx="89.8333" cy="-156.4894" rx="27.8306" ry="18"/>
<text text-anchor="middle" x="89.8333" y="-152.2894" font-family="Times,serif" font-size="14.00" fill="#000000">N23</text>
</g>
<!-- N9 -->
<g id="node2" class="node">
<title>N9</title>
<ellipse fill="none" stroke="#000000" cx="302.7121" cy="-311.7915" rx="27" ry="18"/>
<text text-anchor="middle" x="302.7121" y="-307.5915" font-family="Times,serif" font-size="14.00" fill="#000000">N9</text>
</g>
<!-- N10 -->
<g id="node3" class="node">
<title>N10</title>
<ellipse fill="none" stroke="#000000" cx="238.4059" cy="-430.2037" rx="27.8306" ry="18"/>
<text text-anchor="middle" x="238.4059" y="-426.0037" font-family="Times,serif" font-size="14.00" fill="#000000">N10</text>
</g>
<!-- N43 -->
<g id="node4" class="node">
<title>N43</title>
<ellipse fill="none" stroke="#000000" cx="85.6586" cy="-388.6311" rx="27.8306" ry="18"/>
<text text-anchor="middle" x="85.6586" y="-384.4311" font-family="Times,serif" font-size="14.00" fill="#000000">N43</text>
</g>
<!-- N4 -->
<g id="node5" class="node">
<title>N4</title>
<ellipse fill="none" stroke="#000000" cx="269.1316" cy="-395.654" rx="27" ry="18"/>
<text text-anchor="middle" x="269.1316" y="-391.454" font-family="Times,serif" font-size="14.00" fill="#000000">N4</text>
</g>
<!-- N16 -->
<g id="node6" class="node">
<title>N16</title>
<ellipse fill="none" stroke="#000000" cx="414.6371" cy="-302.242" rx="27.8306" ry="18"/>
<text text-anchor="middle" x="414.6371" y="-298.042" font-family="Times,serif" font-size="14.00" fill="#000000">N16</text>
</g>
<!-- N28 -->
<g id="node7" class="node">
<title>N28</title>
<ellipse fill="none" stroke="#000000" cx="685.09" cy="-502.8954" rx="27.8306" ry="18"/>
<text text-anchor="middle" x="685.09" y="-498.6954" font-family="Times,serif" font-size="14.00" fill="#000000">N28</text>
</g>
<!-- N35 -->
<g id="node8" class="node">
<title>N35</title>
<ellipse fill="none" stroke="#000000" cx="713.6099" cy="-460.561" rx="27.8306" ry="18"/>
<text text-anchor="middle" x="713.6099" y="-456.361" font-family="Times,serif" font-size="14.00" fill="#000000">N35</text>
</g>
<!-- N39 -->
<g id="node9" class="node">
<title>N39</title>
<ellipse fill="none" stroke="#000000" cx="660.5524" cy="-18" rx="27.8306" ry="18"/>
<text text-anchor="middle" x="660.5524" y="-13.8" font-family="Times,serif" font-size="14.00" fill="#000000">N39</text>
</g>
<!-- N20 -->
<g id="node10" class="node">
<title>N20</title>
<ellipse fill="none" stroke="#000000" cx="517.3611" cy="-135.8097" rx="27.8306" ry="18"/>
<text text-anchor="middle" x="517.3611" y="-131.6097" font-family="Times,serif" font-size="14.00" fill="#000000">N20</text>
</g>
<!-- N41 -->
<g id="node11" class="node">
<title>N41</title>
<ellipse fill="none" stroke="#000000" cx="726.5987" cy="-98.2369" rx="27.8306" ry="18"/>
<text text-anchor="middle" x="726.5987" y="-94.0369" font-family="Times,serif" font-size="14.00" fill="#000000">N41</text>
</g>
<!-- N22 -->
<g id="node12" class="node">
<title>N22</title>
<ellipse fill="none" stroke="#000000" cx="478.5804" cy="-108.1893" rx="27.8306" ry="18"/>
<text text-anchor="middle" x="478.5804" y="-103.9893" font-family="Times,serif" font-size="14.00" fill="#000000">N22</text>
</g>
<!-- N38 -->
<g id="node13" class="node">
<title>N38</title>
<ellipse fill="none" stroke="#000000" cx="713.4052" cy="-47.0819" rx="27.8306" ry="18"/>
<text text-anchor="middle" x="713.4052" y="-42.8819" font-family="Times,serif" font-size="14.00" fill="#000000">N38</text>
</g>
<!-- N14 -->
<g id="node14" class="node">
<title>N14</title>
<ellipse fill="none" stroke="#000000" cx="478.524" cy="-289.9784" rx="27.8306" ry="18"/>
<text text-anchor="middle" x="478.524" y="-285.7784" font-family="Times,serif" font-size="14.00" fill="#000000">N14</text>
</g>
<!-- N37 -->
<g id="node15" class="node">
<title>N37</title>
<ellipse fill="none" stroke="#000000" cx="607.4736" cy="-42.1504" rx="27.8306" ry="18"/>
<text text-anchor="middle" x="607.4736" y="-37.9504" font-family="Times,serif" font-size="14.00" fill="#000000">N37</text>
</g>
<!-- N34 -->
<g id="node16" class="node">
<title>N34</title>
<ellipse fill="none" stroke="#000000" cx="669.8266" cy="-443.2472" rx="27.8306" ry="18"/>
<text text-anchor="middle" x="669.8266" y="-439.0472" font-family="Times,serif" font-size="14.00" fill="#000000">N34</text>
</g>
<!-- N32 -->
<g id="node17" class="node">
<title>N32</title>
<ellipse fill="none" stroke="#000000" cx="693.2491" cy="-547.3457" rx="27.8306" ry="18"/>
<text text-anchor="middle" x="693.2491" y="-543.1457" font-family="Times,serif" font-size="14.00" fill="#000000">N32</text>
</g>
<!-- N36 -->
<g id="node18" class="node">
<title>N36</title>
<ellipse fill="none" stroke="#000000" cx="621.2346" cy="-531.4354" rx="27.8306" ry="18"/>
<text text-anchor="middle" x="621.2346" y="-527.2354" font-family="Times,serif" font-size="14.00" fill="#000000">N36</text>
</g>
<!-- N26 -->
<g id="node19" class="node">
<title>N26</title>
<ellipse fill="none" stroke="#000000" cx="49.9977" cy="-189.6011" rx="27.8306" ry="18"/>
<text text-anchor="middle" x="49.9977" y="-185.4011" font-family="Times,serif" font-size="14.00" fill="#000000">N26</text>
</g>
<!-- N44 -->
<g id="node20" class="node">
<title>N44</title>
<ellipse fill="none" stroke="#000000" cx="68.1207" cy="-462.034" rx="27.8306" ry="18"/>
<text text-anchor="middle" x="68.1207" y="-457.834" font-family="Times,serif" font-size="14.00" fill="#000000">N44</text>
</g>
<!-- N2 -->
<g id="node21" class="node">
<title>N2</title>
<ellipse fill="none" stroke="#000000" cx="197.7125" cy="-390.7472" rx="27" ry="18"/>
<text text-anchor="middle" x="197.7125" y="-386.5472" font-family="Times,serif" font-size="14.00" fill="#000000">N2</text>
</g>
<!-- N25 -->
<g id="node22" class="node">
<title>N25</title>
<ellipse fill="none" stroke="#000000" cx="27.6648" cy="-234.7317" rx="27.8306" ry="18"/>
<text text-anchor="middle" x="27.6648" y="-230.5317" font-family="Times,serif" font-size="14.00" fill="#000000">N25</text>
</g>
<!-- N21 -->
<g id="node23" class="node">
<title>N21</title>
<ellipse fill="none" stroke="#000000" cx="554.417" cy="-108.7248" rx="27.8306" ry="18"/>
<text text-anchor="middle" x="554.417" y="-104.5248" font-family="Times,serif" font-size="14.00" fill="#000000">N21</text>
</g>
<!-- N8 -->
<g id="node24" class="node">
<title>N8</title>
<ellipse fill="none" stroke="#000000" cx="262.1899" cy="-258.761" rx="27" ry="18"/>
<text text-anchor="middle" x="262.1899" y="-254.561" font-family="Times,serif" font-size="14.00" fill="#000000">N8</text>
</g>
<!-- N24 -->
<g id="node25" class="node">
<title>N24</title>
<ellipse fill="none" stroke="#000000" cx="143.4393" cy="-166.3588" rx="27.8306" ry="18"/>
<text text-anchor="middle" x="143.4393" y="-162.1588" font-family="Times,serif" font-size="14.00" fill="#000000">N24</text>
</g>
<!-- N17 -->
<g id="node26" class="node">
<title>N17</title>
<ellipse fill="none" stroke="#000000" cx="589.5236" cy="-207.3853" rx="27.8306" ry="18"/>
<text text-anchor="middle" x="589.5236" y="-203.1853" font-family="Times,serif" font-size="14.00" fill="#000000">N17</text>
</g>
<!-- N31 -->
<g id="node27" class="node">
<title>N31</title>
<ellipse fill="none" stroke="#000000" cx="564.741" cy="-549.0302" rx="27.8306" ry="18"/>
<text text-anchor="middle" x="564.741" y="-544.8302" font-family="Times,serif" font-size="14.00" fill="#000000">N31</text>
</g>
<!-- N42 -->
<g id="node28" class="node">
<title>N42</title>
<ellipse fill="none" stroke="#000000" cx="116.903" cy="-499.8046" rx="27.8306" ry="18"/>
<text text-anchor="middle" x="116.903" y="-495.6046" font-family="Times,serif" font-size="14.00" fill="#000000">N42</text>
</g>
<!-- N5 -->
<g id="node29" class="node">
<title>N5</title>
<ellipse fill="none" stroke="#000000" cx="178.519" cy="-326.2211" rx="27" ry="18"/>
<text text-anchor="middle" x="178.519" y="-322.0211" font-family="Times,serif" font-size="14.00" fill="#000000">N5</text>
</g>
<!-- N27 -->
<g id="node30" class="node">
<title>N27</title>
<ellipse fill="none" stroke="#000000" cx="58.1316" cy="-278.4589" rx="27.8306" ry="18"/>
<text text-anchor="middle" x="58.1316" y="-274.2589" font-family="Times,serif" font-size="14.00" fill="#000000">N27</text>
</g>
<!-- N40 -->
<g id="node31" class="node">
<title>N40</title>
<ellipse fill="none" stroke="#000000" cx="695.4769" cy="-146.2303" rx="27.8306" ry="18"/>
<text text-anchor="middle" x="695.4769" y="-142.0303" font-family="Times,serif" font-size="14.00" fill="#000000">N40</text>
</g>
<!-- N30 -->
<g id="node32" class="node">
<title>N30</title>
<ellipse fill="none" stroke="#000000" cx="605.2094" cy="-585.7101" rx="27.8306" ry="18"/>
<text text-anchor="middle" x="605.2094" y="-581.5101" font-family="Times,serif" font-size="14.00" fill="#000000">N30</text>
</g>
<!-- N33 -->
<g id="node33" class="node">
<title>N33</title>
<ellipse fill="none" stroke="#000000" cx="655.4387" cy="-574.2297" rx="27.8306" ry="18"/>
<text text-anchor="middle" x="655.4387" y="-570.0297" font-family="Times,serif" font-size="14.00" fill="#000000">N33</text>
</g>
<!-- N7 -->
<g id="node34" class="node">
<title>N7</title>
<ellipse fill="none" stroke="#000000" cx="207.4472" cy="-274.2235" rx="27" ry="18"/>
<text text-anchor="middle" x="207.4472" y="-270.0235" font-family="Times,serif" font-size="14.00" fill="#000000">N7</text>
</g>
<!-- N29 -->
<g id="node35" class="node">
<title>N29</title>
<ellipse fill="none" stroke="#000000" cx="634.6134" cy="-410.2299" rx="27.8306" ry="18"/>
<text text-anchor="middle" x="634.6134" y="-406.0299" font-family="Times,serif" font-size="14.00" fill="#000000">N29</text>
</g>
<!-- N19 -->
<g id="node36" class="node">
<title>N19</title>
<ellipse fill="none" stroke="#000000" cx="463.8753" cy="-174.4923" rx="27.8306" ry="18"/>
<text text-anchor="middle" x="463.8753" y="-170.2923" font-family="Times,serif" font-size="14.00" fill="#000000">N19</text>
</g>
<!-- N45 -->
<g id="node37" class="node">
<title>N45</title>
<ellipse fill="none" stroke="#000000" cx="511.1102" cy="-442.8764" rx="27.8306" ry="18"/>
<text text-anchor="middle" x="511.1102" y="-438.6764" font-family="Times,serif" font-size="14.00" fill="#000000">N45</text>
</g>
<!-- N46 -->
<g id="node38" class="node">
<title>N46</title>
<ellipse fill="none" stroke="#000000" cx="492.0146" cy="-395.2588" rx="27.8306" ry="18"/>
<text text-anchor="middle" x="492.0146" y="-391.0588" font-family="Times,serif" font-size="14.00" fill="#000000">N46</text>
</g>
<!-- N47 -->
<g id="node39" class="node">
<title>N47</title>
<ellipse fill="none" stroke="#000000" cx="496.2301" cy="-500.9693" rx="27.8306" ry="18"/>
<text text-anchor="middle" x="496.2301" y="-496.7693" font-family="Times,serif" font-size="14.00" fill="#000000">N47</text>
</g>
<!-- N48 -->
<g id="node40" class="node">
<title>N48</title>
<ellipse fill="none" stroke="#000000" cx="441.5824" cy="-414.4951" rx="27.8306" ry="18"/>
<text text-anchor="middle" x="441.5824" y="-410.2951" font-family="Times,serif" font-size="14.00" fill="#000000">N48</text>
</g>
<!-- N49 -->
<g id="node41" class="node">
<title>N49</title>
<ellipse fill="none" stroke="#000000" cx="372.955" cy="-534.0444" rx="27.8306" ry="18"/>
<text text-anchor="middle" x="372.955" y="-529.8444" font-family="Times,serif" font-size="14.00" fill="#000000">N49</text>
</g>
<!-- N50 -->
<g id="node42" class="node">
<title>N50</title>
<ellipse fill="none" stroke="#000000" cx="456.3018" cy="-531.4972" rx="27.8306" ry="18"/>
<text text-anchor="middle" x="456.3018" y="-527.2972" font-family="Times,serif" font-size="14.00" fill="#000000">N50</text>
</g>
<!-- N51 -->
<g id="node43" class="node">
<title>N51</title>
<ellipse fill="none" stroke="#000000" cx="386.3728" cy="-420.4216" rx="27.8306" ry="18"/>
<text text-anchor="middle" x="386.3728" y="-416.2216" font-family="Times,serif" font-size="14.00" fill="#000000">N51</text>
</g>
<!-- N52 -->
<g id="node44" class="node">
<title>N52</title>
<ellipse fill="none" stroke="#000000" cx="362.9474" cy="-479.2254" rx="27.8306" ry="18"/>
<text text-anchor="middle" x="362.9474" y="-475.0254" font-family="Times,serif" font-size="14.00" fill="#000000">N52</text>
</g>
<!-- N53 -->
<g id="node45" class="node">
<title>N53</title>
<ellipse fill="none" stroke="#000000" cx="418.9582" cy="-566.004" rx="27.8306" ry="18"/>
<text text-anchor="middle" x="418.9582" y="-561.804" font-family="Times,serif" font-size="14.00" fill="#000000">N53</text>
</g>
<!-- Root -->
<g id="node46" class="node">
<title>Root</title>
<ellipse fill="none" stroke="#000000" cx="248.2571" cy="-337.6331" rx="29.6358" ry="18"/>
<text text-anchor="middle" x="248.2571" y="-333.4331" font-family="Times,serif" font-size="14.00" fill="#000000">Root</text>
</g>
<!-- Root&#45;&#45;N9 -->
<g id="edge8" class="edge">
<title>Root&#45;&#45;N9</title>
<path fill="none" stroke="#000000" d="M271.9835,-326.3738C274.8496,-325.0137 277.7683,-323.6286 280.6098,-322.2801"/>
</g>
<!-- Root&#45;&#45;N10 -->
<g id="edge9" class="edge">
<title>Root&#45;&#45;N10</title>
<path fill="none" stroke="#000000" d="M246.3108,-355.9221C244.5838,-372.151 242.074,-395.7353 240.3481,-411.9527"/>
</g>
<!-- Root&#45;&#45;N4 -->
<g id="edge3" class="edge">
<title>Root&#45;&#45;N4</title>
<path fill="none" stroke="#000000" d="M254.6336,-355.3566C257.2234,-362.555 260.2084,-370.8518 262.7942,-378.0391"/>
</g>
<!-- Root&#45;&#45;N2 -->
<g id="edge1" class="edge">
<title>Root&#45;&#45;N2</title>
<path fill="none" stroke="#000000" d="M233.3655,-353.2818C226.7261,-360.2587 218.9298,-368.4513 212.3236,-375.3933"/>
</g>
<!-- Root&#45;&#45;N8 -->
<g id="edge7" class="edge">
<title>Root&#45;&#45;N8</title>
<path fill="none" stroke="#000000" d="M251.4886,-319.34C253.7555,-306.507 256.7716,-289.4331 259.024,-276.683"/>
</g>
<!-- Root&#45;&#45;N5 -->
<g id="edge4" class="edge">
<title>Root&#45;&#45;N5</title>
<path fill="none" stroke="#000000" d="M219.0859,-332.8595C214.4577,-332.1022 209.6919,-331.3223 205.1265,-330.5752"/>
</g>
<!-- Root&#45;&#45;N7 -->
<g id="edge6" class="edge">
<title>Root&#45;&#45;N7</title>
<path fill="none" stroke="#000000" d="M237.3208,-320.6405C231.3711,-311.3959 224.0412,-300.007 218.1312,-290.8241"/>
</g>
<!-- N3 -->
<g id="node47" class="node">
<title>N3</title>
<ellipse fill="none" stroke="#000000" cx="140.5634" cy="-421.0458" rx="27" ry="18"/>
<text text-anchor="middle" x="140.5634" y="-416.8458" font-family="Times,serif" font-size="14.00" fill="#000000">N3</text>
</g>
<!-- Root&#45;&#45;N3 -->
<g id="edge2" class="edge">
<title>Root&#45;&#45;N3</title>
<path fill="none" stroke="#000000" d="M229.4983,-352.1625C209.4908,-367.659 178.036,-392.0219 158.3922,-407.2368"/>
</g>
<!-- N6 -->
<g id="node48" class="node">
<title>N6</title>
<ellipse fill="none" stroke="#000000" cx="454.1041" cy="-349.1929" rx="27" ry="18"/>
<text text-anchor="middle" x="454.1041" y="-344.9929" font-family="Times,serif" font-size="14.00" fill="#000000">N6</text>
</g>
<!-- Root&#45;&#45;N6 -->
<g id="edge5" class="edge">
<title>Root&#45;&#45;N6</title>
<path fill="none" stroke="#000000" d="M278.189,-339.314C318.2198,-341.562 388.6009,-345.5144 427.0899,-347.6758"/>
</g>
<!-- N11 -->
<g id="node49" class="node">
<title>N11</title>
<ellipse fill="none" stroke="#000000" cx="120.4184" cy="-239.6075" rx="27.8306" ry="18"/>
<text text-anchor="middle" x="120.4184" y="-235.4075" font-family="Times,serif" font-size="14.00" fill="#000000">N11</text>
</g>
<!-- Root&#45;&#45;N11 -->
<g id="edge10" class="edge">
<title>Root&#45;&#45;N11</title>
<path fill="none" stroke="#000000" d="M229.6683,-323.3793C205.2924,-304.6882 162.7957,-272.1021 138.6157,-253.5611"/>
</g>
<!-- N3&#45;&#45;N43 -->
<g id="edge42" class="edge">
<title>N3&#45;&#45;N43</title>
<path fill="none" stroke="#000000" d="M120.1189,-408.9757C115.6066,-406.3118 110.8235,-403.4879 106.3033,-400.8193"/>
</g>
<!-- N3&#45;&#45;N44 -->
<g id="edge43" class="edge">
<title>N3&#45;&#45;N44</title>
<path fill="none" stroke="#000000" d="M119.61,-432.9013C109.9989,-438.3392 98.6324,-444.7704 89.0271,-450.2051"/>
</g>
<!-- N3&#45;&#45;N42 -->
<g id="edge41" class="edge">
<title>N3&#45;&#45;N42</title>
<path fill="none" stroke="#000000" d="M135.1945,-438.9174C131.3224,-451.8067 126.118,-469.1306 122.2507,-482.0037"/>
</g>
<!-- N6&#45;&#45;N16 -->
<g id="edge15" class="edge">
<title>N6&#45;&#45;N16</title>
<path fill="none" stroke="#000000" d="M440.7424,-333.2974C436.6276,-328.4025 432.0989,-323.0149 427.985,-318.1211"/>
</g>
<!-- N6&#45;&#45;N14 -->
<g id="edge13" class="edge">
<title>N6&#45;&#45;N14</title>
<path fill="none" stroke="#000000" d="M461.2988,-331.7469C464.4502,-324.1051 468.1412,-315.1552 471.2963,-307.5044"/>
</g>
<!-- N12 -->
<g id="node50" class="node">
<title>N12</title>
<ellipse fill="none" stroke="#000000" cx="529.7693" cy="-188.7536" rx="27.8306" ry="18"/>
<text text-anchor="middle" x="529.7693" y="-184.5536" font-family="Times,serif" font-size="14.00" fill="#000000">N12</text>
</g>
<!-- N6&#45;&#45;N12 -->
<g id="edge11" class="edge">
<title>N6&#45;&#45;N12</title>
<path fill="none" stroke="#000000" d="M462.3457,-331.7176C476.9005,-300.8557 506.9903,-237.0538 521.5379,-206.2073"/>
</g>
<!-- N13 -->
<g id="node51" class="node">
<title>N13</title>
<ellipse fill="none" stroke="#000000" cx="436.8374" cy="-465.9232" rx="27.8306" ry="18"/>
<text text-anchor="middle" x="436.8374" y="-461.7232" font-family="Times,serif" font-size="14.00" fill="#000000">N13</text>
</g>
<!-- N6&#45;&#45;N13 -->
<g id="edge12" class="edge">
<title>N6&#45;&#45;N13</title>
<path fill="none" stroke="#000000" d="M451.444,-367.1762C448.2088,-389.048 442.7784,-425.7596 439.5289,-447.7272"/>
</g>
<!-- N15 -->
<g id="node52" class="node">
<title>N15</title>
<ellipse fill="none" stroke="#000000" cx="610.2662" cy="-480.3956" rx="27.8306" ry="18"/>
<text text-anchor="middle" x="610.2662" y="-476.1956" font-family="Times,serif" font-size="14.00" fill="#000000">N15</text>
</g>
<!-- N6&#45;&#45;N15 -->
<g id="edge14" class="edge">
<title>N6&#45;&#45;N15</title>
<path fill="none" stroke="#000000" d="M471.1135,-363.4836C501.1526,-388.7216 563.2536,-440.897 593.2778,-466.1225"/>
</g>
<!-- N11&#45;&#45;N23 -->
<g id="edge22" class="edge">
<title>N11&#45;&#45;N23</title>
<path fill="none" stroke="#000000" d="M113.9321,-221.9803C108.7417,-207.8749 101.4982,-188.1899 96.3102,-174.0912"/>
</g>
<!-- N11&#45;&#45;N26 -->
<g id="edge25" class="edge">
<title>N11&#45;&#45;N26</title>
<path fill="none" stroke="#000000" d="M101.5469,-226.2067C91.4431,-219.0319 79.0329,-210.2193 68.9212,-203.0389"/>
</g>
<!-- N11&#45;&#45;N25 -->
<g id="edge24" class="edge">
<title>N11&#45;&#45;N25</title>
<path fill="none" stroke="#000000" d="M92.8404,-238.1578C80.9854,-237.5346 67.1577,-236.8077 55.2967,-236.1842"/>
</g>
<!-- N11&#45;&#45;N24 -->
<g id="edge23" class="edge">
<title>N11&#45;&#45;N24</title>
<path fill="none" stroke="#000000" d="M125.9911,-221.8761C129.584,-210.4442 134.2397,-195.6305 137.8381,-184.1809"/>
</g>
<!-- N11&#45;&#45;N27 -->
<g id="edge26" class="edge">
<title>N11&#45;&#45;N27</title>
<path fill="none" stroke="#000000" d="M100.3676,-252.1142C93.2549,-256.5507 85.2543,-261.5411 78.1448,-265.9757"/>
</g>
<!-- N12&#45;&#45;N20 -->
<g id="edge19" class="edge">
<title>N12&#45;&#45;N20</title>
<path fill="none" stroke="#000000" d="M525.5684,-170.8292C524.2748,-165.3094 522.8509,-159.2342 521.5576,-153.7156"/>
</g>
<!-- N12&#45;&#45;N22 -->
<g id="edge21" class="edge">
<title>N12&#45;&#45;N22</title>
<path fill="none" stroke="#000000" d="M519.1629,-172.0606C510.3776,-158.2338 497.9547,-138.6818 489.1731,-124.8609"/>
</g>
<!-- N12&#45;&#45;N21 -->
<g id="edge20" class="edge">
<title>N12&#45;&#45;N21</title>
<path fill="none" stroke="#000000" d="M535.2394,-170.9926C539.324,-157.7305 544.8813,-139.6863 548.9622,-126.4362"/>
</g>
<!-- N12&#45;&#45;N17 -->
<g id="edge16" class="edge">
<title>N12&#45;&#45;N17</title>
<path fill="none" stroke="#000000" d="M554.7643,-196.5471C557.9624,-197.5443 561.2372,-198.5654 564.4367,-199.5631"/>
</g>
<!-- N12&#45;&#45;N19 -->
<g id="edge18" class="edge">
<title>N12&#45;&#45;N19</title>
<path fill="none" stroke="#000000" d="M503.3473,-183.0351C499.0507,-182.1052 494.5999,-181.1419 490.3031,-180.212"/>
</g>
<!-- N18 -->
<g id="node53" class="node">
<title>N18</title>
<ellipse fill="none" stroke="#000000" cx="643.2333" cy="-99.436" rx="27.8306" ry="18"/>
<text text-anchor="middle" x="643.2333" y="-95.236" font-family="Times,serif" font-size="14.00" fill="#000000">N18</text>
</g>
<!-- N12&#45;&#45;N18 -->
<g id="edge17" class="edge">
<title>N12&#45;&#45;N18</title>
<path fill="none" stroke="#000000" d="M547.498,-174.7977C568.6894,-158.1161 603.9532,-130.3568 625.2546,-113.5887"/>
</g>
<!-- N13&#45;&#45;N45 -->
<g id="edge44" class="edge">
<title>N13&#45;&#45;N45</title>
<path fill="none" stroke="#000000" d="M461.9828,-458.1206C469.7263,-455.7178 478.2489,-453.0733 485.9907,-450.671"/>
</g>
<!-- N13&#45;&#45;N46 -->
<g id="edge45" class="edge">
<title>N13&#45;&#45;N46</title>
<path fill="none" stroke="#000000" d="M449.6348,-449.5338C458.5488,-438.1178 470.3877,-422.9559 479.2865,-411.5594"/>
</g>
<!-- N13&#45;&#45;N47 -->
<g id="edge46" class="edge">
<title>N13&#45;&#45;N47</title>
<path fill="none" stroke="#000000" d="M457.6101,-478.1807C463.3637,-481.5757 469.6101,-485.2615 475.3688,-488.6596"/>
</g>
<!-- N13&#45;&#45;N48 -->
<g id="edge47" class="edge">
<title>N13&#45;&#45;N48</title>
<path fill="none" stroke="#000000" d="M438.497,-447.9362C438.9566,-442.9541 439.4557,-437.5454 439.9158,-432.5589"/>
</g>
<!-- N13&#45;&#45;N49 -->
<g id="edge48" class="edge">
<title>N13&#45;&#45;N49</title>
<path fill="none" stroke="#000000" d="M422.3415,-481.381C411.8867,-492.5294 397.8351,-507.5134 387.3935,-518.6478"/>
</g>
<!-- N13&#45;&#45;N50 -->
<g id="edge49" class="edge">
<title>N13&#45;&#45;N50</title>
<path fill="none" stroke="#000000" d="M442.1561,-483.8416C444.9026,-493.0942 448.244,-504.351 450.9895,-513.6005"/>
</g>
<!-- N13&#45;&#45;N51 -->
<g id="edge50" class="edge">
<title>N13&#45;&#45;N51</title>
<path fill="none" stroke="#000000" d="M420.5923,-451.2758C414.8296,-446.0798 408.3476,-440.2353 402.5874,-435.0416"/>
</g>
<!-- N13&#45;&#45;N52 -->
<g id="edge51" class="edge">
<title>N13&#45;&#45;N52</title>
<path fill="none" stroke="#000000" d="M410.1614,-470.7256C403.5474,-471.9163 396.4564,-473.1929 389.8324,-474.3854"/>
</g>
<!-- N13&#45;&#45;N53 -->
<g id="edge52" class="edge">
<title>N13&#45;&#45;N53</title>
<path fill="none" stroke="#000000" d="M433.641,-483.8157C430.4067,-501.9199 425.4332,-529.7598 422.1873,-547.9291"/>
</g>
<!-- N15&#45;&#45;N28 -->
<g id="edge27" class="edge">
<title>N15&#45;&#45;N28</title>
<path fill="none" stroke="#000000" d="M635.5981,-488.013C643.3991,-490.3588 651.985,-492.9406 659.7842,-495.2859"/>
</g>
<!-- N15&#45;&#45;N35 -->
<g id="edge34" class="edge">
<title>N15&#45;&#45;N35</title>
<path fill="none" stroke="#000000" d="M636.8797,-475.2877C652.1897,-472.3493 671.3723,-468.6676 686.7273,-465.7205"/>
</g>
<!-- N15&#45;&#45;N34 -->
<g id="edge33" class="edge">
<title>N15&#45;&#45;N34</title>
<path fill="none" stroke="#000000" d="M630.4306,-467.8189C636.6402,-463.9459 643.4747,-459.6831 649.6829,-455.811"/>
</g>
<!-- N15&#45;&#45;N32 -->
<g id="edge31" class="edge">
<title>N15&#45;&#45;N32</title>
<path fill="none" stroke="#000000" d="M627.8647,-494.594C641.9472,-505.9557 661.6001,-521.8115 675.6759,-533.1678"/>
</g>
<!-- N15&#45;&#45;N36 -->
<g id="edge35" class="edge">
<title>N15&#45;&#45;N36</title>
<path fill="none" stroke="#000000" d="M614.1024,-498.2469C615.165,-503.1913 616.3185,-508.5592 617.382,-513.508"/>
</g>
<!-- N15&#45;&#45;N31 -->
<g id="edge30" class="edge">
<title>N15&#45;&#45;N31</title>
<path fill="none" stroke="#000000" d="M599.2458,-497.0101C592.1934,-507.6425 583.0701,-521.3969 575.9761,-532.0919"/>
</g>
<!-- N15&#45;&#45;N30 -->
<g id="edge29" class="edge">
<title>N15&#45;&#45;N30</title>
<path fill="none" stroke="#000000" d="M609.3853,-498.74C608.4572,-518.0698 607.0044,-548.3258 606.0801,-567.5759"/>
</g>
<!-- N15&#45;&#45;N33 -->
<g id="edge32" class="edge">
<title>N15&#45;&#45;N33</title>
<path fill="none" stroke="#000000" d="M618.5515,-497.6062C626.6511,-514.4311 638.919,-539.9144 647.0529,-556.8104"/>
</g>
<!-- N15&#45;&#45;N29 -->
<g id="edge28" class="edge">
<title>N15&#45;&#45;N29</title>
<path fill="none" stroke="#000000" d="M616.41,-462.6898C620.0727,-452.1344 624.7097,-438.7713 628.3869,-428.1741"/>
</g>
<!-- N18&#45;&#45;N39 -->
<g id="edge38" class="edge">
<title>N18&#45;&#45;N39</title>
<path fill="none" stroke="#000000" d="M647.077,-81.3627C649.947,-67.8674 653.852,-49.5059 656.7195,-36.0228"/>
</g>
<!-- N18&#45;&#45;N41 -->
<g id="edge40" class="edge">
<title>N18&#45;&#45;N41</title>
<path fill="none" stroke="#000000" d="M670.9928,-99.0367C679.8975,-98.9087 689.7599,-98.7668 698.6762,-98.6385"/>
</g>
<!-- N18&#45;&#45;N38 -->
<g id="edge37" class="edge">
<title>N18&#45;&#45;N38</title>
<path fill="none" stroke="#000000" d="M661.6701,-85.6806C671.9031,-78.046 684.5957,-68.5762 694.8478,-60.9273"/>
</g>
<!-- N18&#45;&#45;N37 -->
<g id="edge36" class="edge">
<title>N18&#45;&#45;N37</title>
<path fill="none" stroke="#000000" d="M632.6976,-82.5583C628.0828,-75.1655 622.6779,-66.5071 618.0576,-59.1055"/>
</g>
<!-- N18&#45;&#45;N40 -->
<g id="edge39" class="edge">
<title>N18&#45;&#45;N40</title>
<path fill="none" stroke="#000000" d="M659.7635,-114.242C665.8619,-119.7043 672.7702,-125.8921 678.8749,-131.36"/>
</g>
</g>
</svg>
