<?xml version="1.0" encoding="UTF-8" standalone="no"?>
<!DOCTYPE svg PUBLIC "-//W3C//DTD SVG 1.1//EN"
 "http://www.w3.org/Graphics/SVG/1.1/DTD/svg11.dtd">
<!-- Generated by graphviz version 2.40.1 (20161225.0304)
 -->
<!-- Title: test_graph Pages: 1 -->
<svg width="1356pt" height="1482pt"
 viewBox="0.00 0.00 1355.66 1482.00" xmlns="http://www.w3.org/2000/svg" xmlns:xlink="http://www.w3.org/1999/xlink">
<g id="graph0" class="graph" transform="scale(1 1) rotate(0) translate(4 1477.9975)">
<title>test_graph</title>
<polygon fill="#ffffff" stroke="transparent" points="-4,4 -4,-1477.9975 1351.6555,-1477.9975 1351.6555,4 -4,4"/>
<!-- N24 -->
<g id="node1" class="node">
<title>N24</title>
<ellipse fill="none" stroke="#000000" cx="1011.4094" cy="-930.5284" rx="27.8306" ry="18"/>
<text text-anchor="middle" x="1011.4094" y="-926.3284" font-family="Times,serif" font-size="14.00" fill="#000000">N24</text>
</g>
<!-- N25 -->
<g id="node5" class="node">
<title>N25</title>
<ellipse fill="none" stroke="#000000" cx="1069.6586" cy="-972.8489" rx="27.8306" ry="18"/>
<text text-anchor="middle" x="1069.6586" y="-968.6489" font-family="Times,serif" font-size="14.00" fill="#000000">N25</text>
</g>
<!-- N24&#45;&#45;N25 -->
<g id="edge26" class="edge">
<title>N24&#45;&#45;N25</title>
<path fill="none" stroke="#000000" d="M1030.1604,-944.1518C1036.812,-948.9845 1044.294,-954.4205 1050.9427,-959.251"/>
</g>
<!-- N23 -->
<g id="node17" class="node">
<title>N23</title>
<ellipse fill="none" stroke="#000000" cx="953.1601" cy="-888.2079" rx="27.8306" ry="18"/>
<text text-anchor="middle" x="953.1601" y="-884.0079" font-family="Times,serif" font-size="14.00" fill="#000000">N23</text>
</g>
<!-- N24&#45;&#45;N23 -->
<g id="edge28" class="edge">
<title>N24&#45;&#45;N23</title>
<path fill="none" stroke="#000000" d="M992.6583,-916.905C986.0067,-912.0723 978.5247,-906.6363 971.8761,-901.8058"/>
</g>
<!-- N0 -->
<g id="node2" class="node">
<title>N0</title>
<ellipse fill="none" stroke="#000000" cx="648.1632" cy="-771.2368" rx="27" ry="18"/>
<text text-anchor="middle" x="648.1632" y="-767.0368" font-family="Times,serif" font-size="14.00" fill="#000000">N0</text>
</g>
<!-- N21 -->
<g id="node27" class="node">
<title>N21</title>
<ellipse fill="none" stroke="#000000" cx="625.914" cy="-702.7607" rx="27.8306" ry="18"/>
<text text-anchor="middle" x="625.914" y="-698.5607" font-family="Times,serif" font-size="14.00" fill="#000000">N21</text>
</g>
<!-- N0&#45;&#45;N21 -->
<g id="edge34" class="edge">
<title>N0&#45;&#45;N21</title>
<path fill="none" stroke="#000000" d="M642.4335,-753.6025C639.1374,-743.458 635.0075,-730.7475 631.7017,-720.5732"/>
</g>
<!-- N10 -->
<g id="node34" class="node">
<title>N10</title>
<ellipse fill="none" stroke="#000000" cx="670.4125" cy="-839.7128" rx="27.8306" ry="18"/>
<text text-anchor="middle" x="670.4125" y="-835.5128" font-family="Times,serif" font-size="14.00" fill="#000000">N10</text>
</g>
<!-- N0&#45;&#45;N10 -->
<g id="edge27" class="edge">
<title>N0&#45;&#45;N10</title>
<path fill="none" stroke="#000000" d="M653.893,-788.8711C657.1891,-799.0155 661.319,-811.726 664.6248,-821.9003"/>
</g>
<!-- N1 -->
<g id="node3" class="node">
<title>N1</title>
<ellipse fill="none" stroke="#000000" cx="603.6648" cy="-634.2846" rx="27" ry="18"/>
<text text-anchor="middle" x="603.6648" y="-630.0846" font-family="Times,serif" font-size="14.00" fill="#000000">N1</text>
</g>
<!-- N1&#45;&#45;N21 -->
<g id="edge13" class="edge">
<title>N1&#45;&#45;N21</title>
<path fill="none" stroke="#000000" d="M609.3945,-651.9189C612.6907,-662.0634 616.8205,-674.7738 620.1264,-684.9482"/>
</g>
<!-- N9 -->
<g id="node30" class="node">
<title>N9</title>
<ellipse fill="none" stroke="#000000" cx="581.4156" cy="-565.8086" rx="27" ry="18"/>
<text text-anchor="middle" x="581.4156" y="-561.6086" font-family="Times,serif" font-size="14.00" fill="#000000">N9</text>
</g>
<!-- N1&#45;&#45;N9 -->
<g id="edge39" class="edge">
<title>N1&#45;&#45;N9</title>
<path fill="none" stroke="#000000" d="M597.9351,-616.6503C594.6389,-606.5058 590.5091,-593.7954 587.2032,-583.6211"/>
</g>
<!-- N16 -->
<g id="node4" class="node">
<title>N16</title>
<ellipse fill="none" stroke="#000000" cx="737.1601" cy="-223.4282" rx="27.8306" ry="18"/>
<text text-anchor="middle" x="737.1601" y="-219.2282" font-family="Times,serif" font-size="14.00" fill="#000000">N16</text>
</g>
<!-- N2 -->
<g id="node11" class="node">
<title>N2</title>
<ellipse fill="none" stroke="#000000" cx="759.4094" cy="-154.9521" rx="27" ry="18"/>
<text text-anchor="middle" x="759.4094" y="-150.7521" font-family="Times,serif" font-size="14.00" fill="#000000">N2</text>
</g>
<!-- N16&#45;&#45;N2 -->
<g id="edge21" class="edge">
<title>N16&#45;&#45;N2</title>
<path fill="none" stroke="#000000" d="M742.8899,-205.7939C746.186,-195.6494 750.3159,-182.939 753.6217,-172.7647"/>
</g>
<!-- N34 -->
<g id="node16" class="node">
<title>N34</title>
<ellipse fill="none" stroke="#000000" cx="492.4187" cy="-291.9043" rx="27.8306" ry="18"/>
<text text-anchor="middle" x="492.4187" y="-287.7043" font-family="Times,serif" font-size="14.00" fill="#000000">N34</text>
</g>
<!-- N16&#45;&#45;N34 -->
<g id="edge20" class="edge">
<title>N16&#45;&#45;N34</title>
<path fill="none" stroke="#000000" d="M711.4311,-230.6269C664.4265,-243.7783 565.1915,-271.5432 518.1702,-284.6993"/>
</g>
<!-- N26 -->
<g id="node12" class="node">
<title>N26</title>
<ellipse fill="none" stroke="#000000" cx="1127.9078" cy="-1015.1695" rx="27.8306" ry="18"/>
<text text-anchor="middle" x="1127.9078" y="-1010.9695" font-family="Times,serif" font-size="14.00" fill="#000000">N26</text>
</g>
<!-- N25&#45;&#45;N26 -->
<g id="edge35" class="edge">
<title>N25&#45;&#45;N26</title>
<path fill="none" stroke="#000000" d="M1088.4096,-986.4724C1095.0612,-991.305 1102.5432,-996.741 1109.1919,-1001.5716"/>
</g>
<!-- N22 -->
<g id="node6" class="node">
<title>N22</title>
<ellipse fill="none" stroke="#000000" cx="714.9109" cy="-976.665" rx="27.8306" ry="18"/>
<text text-anchor="middle" x="714.9109" y="-972.465" font-family="Times,serif" font-size="14.00" fill="#000000">N22</text>
</g>
<!-- N28 -->
<g id="node8" class="node">
<title>N28</title>
<ellipse fill="none" stroke="#000000" cx="692.6617" cy="-908.1889" rx="27.8306" ry="18"/>
<text text-anchor="middle" x="692.6617" y="-903.9889" font-family="Times,serif" font-size="14.00" fill="#000000">N28</text>
</g>
<!-- N22&#45;&#45;N28 -->
<g id="edge8" class="edge">
<title>N22&#45;&#45;N28</title>
<path fill="none" stroke="#000000" d="M709.1812,-959.0307C705.885,-948.8862 701.7552,-936.1757 698.4493,-926.0014"/>
</g>
<!-- N22&#45;&#45;N23 -->
<g id="edge7" class="edge">
<title>N22&#45;&#45;N23</title>
<path fill="none" stroke="#000000" d="M739.0667,-967.6964C784.7307,-950.7423 883.2272,-914.1725 928.9405,-897.2001"/>
</g>
<!-- N29 -->
<g id="node29" class="node">
<title>N29</title>
<ellipse fill="none" stroke="#000000" cx="470.1695" cy="-1045.141" rx="27.8306" ry="18"/>
<text text-anchor="middle" x="470.1695" y="-1040.941" font-family="Times,serif" font-size="14.00" fill="#000000">N29</text>
</g>
<!-- N22&#45;&#45;N29 -->
<g id="edge3" class="edge">
<title>N22&#45;&#45;N29</title>
<path fill="none" stroke="#000000" d="M689.1819,-983.8637C642.1773,-997.0151 542.9423,-1024.78 495.921,-1037.936"/>
</g>
<!-- N4 -->
<g id="node7" class="node">
<title>N4</title>
<ellipse fill="none" stroke="#000000" cx="403.4218" cy="-1250.5692" rx="27" ry="18"/>
<text text-anchor="middle" x="403.4218" y="-1246.3692" font-family="Times,serif" font-size="14.00" fill="#000000">N4</text>
</g>
<!-- N14 -->
<g id="node19" class="node">
<title>N14</title>
<ellipse fill="none" stroke="#000000" cx="381.1726" cy="-1319.0453" rx="27.8306" ry="18"/>
<text text-anchor="middle" x="381.1726" y="-1314.8453" font-family="Times,serif" font-size="14.00" fill="#000000">N14</text>
</g>
<!-- N4&#45;&#45;N14 -->
<g id="edge19" class="edge">
<title>N4&#45;&#45;N14</title>
<path fill="none" stroke="#000000" d="M397.6921,-1268.2035C394.3959,-1278.348 390.266,-1291.0585 386.9602,-1301.2328"/>
</g>
<!-- N30 -->
<g id="node25" class="node">
<title>N30</title>
<ellipse fill="none" stroke="#000000" cx="425.671" cy="-1182.0932" rx="27.8306" ry="18"/>
<text text-anchor="middle" x="425.671" y="-1177.8932" font-family="Times,serif" font-size="14.00" fill="#000000">N30</text>
</g>
<!-- N4&#45;&#45;N30 -->
<g id="edge37" class="edge">
<title>N4&#45;&#45;N30</title>
<path fill="none" stroke="#000000" d="M409.1515,-1232.935C412.4477,-1222.7905 416.5775,-1210.08 419.8834,-1199.9057"/>
</g>
<!-- N28&#45;&#45;N10 -->
<g id="edge23" class="edge">
<title>N28&#45;&#45;N10</title>
<path fill="none" stroke="#000000" d="M686.932,-890.5546C683.6358,-880.4101 679.506,-867.6997 676.2001,-857.5254"/>
</g>
<!-- N17 -->
<g id="node9" class="node">
<title>N17</title>
<ellipse fill="none" stroke="#000000" cx="1069.6586" cy="-295.7203" rx="27.8306" ry="18"/>
<text text-anchor="middle" x="1069.6586" y="-291.5203" font-family="Times,serif" font-size="14.00" fill="#000000">N17</text>
</g>
<!-- N17&#45;&#45;N2 -->
<g id="edge1" class="edge">
<title>N17&#45;&#45;N2</title>
<path fill="none" stroke="#000000" d="M1046.8452,-285.3693C989.3307,-259.2735 838.9353,-191.0351 781.8377,-165.1285"/>
</g>
<!-- N32 -->
<g id="node15" class="node">
<title>N32</title>
<ellipse fill="none" stroke="#000000" cx="1127.9078" cy="-253.3998" rx="27.8306" ry="18"/>
<text text-anchor="middle" x="1127.9078" y="-249.1998" font-family="Times,serif" font-size="14.00" fill="#000000">N32</text>
</g>
<!-- N17&#45;&#45;N32 -->
<g id="edge5" class="edge">
<title>N17&#45;&#45;N32</title>
<path fill="none" stroke="#000000" d="M1088.4096,-282.0969C1095.0612,-277.2642 1102.5432,-271.8282 1109.1919,-266.9977"/>
</g>
<!-- N19 -->
<g id="node10" class="node">
<title>N19</title>
<ellipse fill="none" stroke="#000000" cx="99.6648" cy="-634.2846" rx="27.8306" ry="18"/>
<text text-anchor="middle" x="99.6648" y="-630.0846" font-family="Times,serif" font-size="14.00" fill="#000000">N19</text>
</g>
<!-- N11 -->
<g id="node31" class="node">
<title>N11</title>
<ellipse fill="none" stroke="#000000" cx="27.6648" cy="-634.2846" rx="27.8306" ry="18"/>
<text text-anchor="middle" x="27.6648" y="-630.0846" font-family="Times,serif" font-size="14.00" fill="#000000">N11</text>
</g>
<!-- N19&#45;&#45;N11 -->
<g id="edge12" class="edge">
<title>N19&#45;&#45;N11</title>
<path fill="none" stroke="#000000" d="M71.6216,-634.2846C66.4095,-634.2846 60.9632,-634.2846 55.75,-634.2846"/>
</g>
<!-- N15 -->
<g id="node35" class="node">
<title>N15</title>
<ellipse fill="none" stroke="#000000" cx="171.6648" cy="-634.2846" rx="27.8306" ry="18"/>
<text text-anchor="middle" x="171.6648" y="-630.0846" font-family="Times,serif" font-size="14.00" fill="#000000">N15</text>
</g>
<!-- N19&#45;&#45;N15 -->
<g id="edge17" class="edge">
<title>N19&#45;&#45;N15</title>
<path fill="none" stroke="#000000" d="M127.708,-634.2846C132.9201,-634.2846 138.3664,-634.2846 143.5796,-634.2846"/>
</g>
<!-- N5 -->
<g id="node26" class="node">
<title>N5</title>
<ellipse fill="none" stroke="#000000" cx="425.671" cy="-86.4761" rx="27" ry="18"/>
<text text-anchor="middle" x="425.671" y="-82.2761" font-family="Times,serif" font-size="14.00" fill="#000000">N5</text>
</g>
<!-- N2&#45;&#45;N5 -->
<g id="edge40" class="edge">
<title>N2&#45;&#45;N5</title>
<path fill="none" stroke="#000000" d="M733.4992,-149.6359C671.3199,-136.878 514.1909,-104.6385 451.7948,-91.8361"/>
</g>
<!-- N3 -->
<g id="node24" class="node">
<title>N3</title>
<ellipse fill="none" stroke="#000000" cx="403.4218" cy="-18" rx="27" ry="18"/>
<text text-anchor="middle" x="403.4218" y="-13.8" font-family="Times,serif" font-size="14.00" fill="#000000">N3</text>
</g>
<!-- N26&#45;&#45;N3 -->
<g id="edge6" class="edge">
<title>N26&#45;&#45;N3</title>
<path fill="none" stroke="#000000" d="M1115.9375,-998.6937C1029.4676,-879.6781 501.3378,-152.7699 415.2734,-34.3123"/>
</g>
<!-- N31 -->
<g id="node13" class="node">
<title>N31</title>
<ellipse fill="none" stroke="#000000" cx="559.1664" cy="-497.3325" rx="27.8306" ry="18"/>
<text text-anchor="middle" x="559.1664" y="-493.1325" font-family="Times,serif" font-size="14.00" fill="#000000">N31</text>
</g>
<!-- N31&#45;&#45;N9 -->
<g id="edge18" class="edge">
<title>N31&#45;&#45;N9</title>
<path fill="none" stroke="#000000" d="M564.8961,-514.9668C568.1922,-525.1113 572.3221,-537.8217 575.6279,-547.996"/>
</g>
<!-- N6 -->
<g id="node32" class="node">
<title>N6</title>
<ellipse fill="none" stroke="#000000" cx="536.9171" cy="-428.8564" rx="27" ry="18"/>
<text text-anchor="middle" x="536.9171" y="-424.6564" font-family="Times,serif" font-size="14.00" fill="#000000">N6</text>
</g>
<!-- N31&#45;&#45;N6 -->
<g id="edge38" class="edge">
<title>N31&#45;&#45;N6</title>
<path fill="none" stroke="#000000" d="M553.4366,-479.6982C550.1405,-469.5537 546.0106,-456.8433 542.7048,-446.6689"/>
</g>
<!-- N7 -->
<g id="node14" class="node">
<title>N7</title>
<ellipse fill="none" stroke="#000000" cx="1302.6555" cy="-126.4382" rx="27" ry="18"/>
<text text-anchor="middle" x="1302.6555" y="-122.2382" font-family="Times,serif" font-size="14.00" fill="#000000">N7</text>
</g>
<!-- N7&#45;&#45;N7 -->
<g id="edge24" class="edge">
<title>N7&#45;&#45;N7</title>
<path fill="none" stroke="#000000" d="M1328.099,-133.1288C1338.6833,-133.5903 1347.6555,-131.36 1347.6555,-126.4382 1347.6555,-121.5163 1338.6833,-119.2861 1328.099,-119.7475"/>
</g>
<!-- N20 -->
<g id="node33" class="node">
<title>N20</title>
<ellipse fill="none" stroke="#000000" cx="1244.4063" cy="-168.7587" rx="27.8306" ry="18"/>
<text text-anchor="middle" x="1244.4063" y="-164.5587" font-family="Times,serif" font-size="14.00" fill="#000000">N20</text>
</g>
<!-- N7&#45;&#45;N20 -->
<g id="edge9" class="edge">
<title>N7&#45;&#45;N20</title>
<path fill="none" stroke="#000000" d="M1284.2251,-139.8286C1277.4256,-144.7687 1269.7232,-150.3649 1262.9167,-155.3101"/>
</g>
<!-- N18 -->
<g id="node20" class="node">
<title>N18</title>
<ellipse fill="none" stroke="#000000" cx="1186.157" cy="-211.0792" rx="27.8306" ry="18"/>
<text text-anchor="middle" x="1186.157" y="-206.8792" font-family="Times,serif" font-size="14.00" fill="#000000">N18</text>
</g>
<!-- N32&#45;&#45;N18 -->
<g id="edge14" class="edge">
<title>N32&#45;&#45;N18</title>
<path fill="none" stroke="#000000" d="M1146.6589,-239.7763C1153.3105,-234.9437 1160.7924,-229.5077 1167.4411,-224.6772"/>
</g>
<!-- N13 -->
<g id="node22" class="node">
<title>N13</title>
<ellipse fill="none" stroke="#000000" cx="514.6679" cy="-360.3803" rx="27.8306" ry="18"/>
<text text-anchor="middle" x="514.6679" y="-356.1803" font-family="Times,serif" font-size="14.00" fill="#000000">N13</text>
</g>
<!-- N34&#45;&#45;N13 -->
<g id="edge32" class="edge">
<title>N34&#45;&#45;N13</title>
<path fill="none" stroke="#000000" d="M498.1484,-309.5386C501.4446,-319.6831 505.5744,-332.3935 508.8803,-342.5678"/>
</g>
<!-- N34&#45;&#45;N15 -->
<g id="edge22" class="edge">
<title>N34&#45;&#45;N15</title>
<path fill="none" stroke="#000000" d="M477.8031,-307.5053C424.3685,-364.5427 239.9409,-561.4051 186.3663,-618.5919"/>
</g>
<!-- N27 -->
<g id="node18" class="node">
<title>N27</title>
<ellipse fill="none" stroke="#000000" cx="447.9202" cy="-1113.6171" rx="27.8306" ry="18"/>
<text text-anchor="middle" x="447.9202" y="-1109.4171" font-family="Times,serif" font-size="14.00" fill="#000000">N27</text>
</g>
<!-- N27&#45;&#45;N30 -->
<g id="edge31" class="edge">
<title>N27&#45;&#45;N30</title>
<path fill="none" stroke="#000000" d="M442.1905,-1131.2514C438.8944,-1141.3959 434.7645,-1154.1063 431.4587,-1164.2807"/>
</g>
<!-- N27&#45;&#45;N29 -->
<g id="edge15" class="edge">
<title>N27&#45;&#45;N29</title>
<path fill="none" stroke="#000000" d="M453.65,-1095.9828C456.9461,-1085.8383 461.076,-1073.1279 464.3818,-1062.9536"/>
</g>
<!-- N14&#45;&#45;N14 -->
<g id="edge2" class="edge">
<title>N14&#45;&#45;N14</title>
<path fill="none" stroke="#000000" d="M406.9919,-1325.736C417.7326,-1326.1974 426.8374,-1323.9672 426.8374,-1319.0453 426.8374,-1314.1234 417.7326,-1311.8932 406.9919,-1312.3546"/>
</g>
<!-- N12 -->
<g id="node21" class="node">
<title>N12</title>
<ellipse fill="none" stroke="#000000" cx="358.9233" cy="-1387.5214" rx="27.8306" ry="18"/>
<text text-anchor="middle" x="358.9233" y="-1383.3214" font-family="Times,serif" font-size="14.00" fill="#000000">N12</text>
</g>
<!-- N14&#45;&#45;N12 -->
<g id="edge36" class="edge">
<title>N14&#45;&#45;N12</title>
<path fill="none" stroke="#000000" d="M375.4428,-1336.6796C372.1467,-1346.8241 368.0168,-1359.5345 364.711,-1369.7089"/>
</g>
<!-- N18&#45;&#45;N20 -->
<g id="edge30" class="edge">
<title>N18&#45;&#45;N20</title>
<path fill="none" stroke="#000000" d="M1204.9081,-197.4558C1211.5597,-192.6231 1219.0417,-187.1872 1225.6903,-182.3566"/>
</g>
<!-- N8 -->
<g id="node28" class="node">
<title>N8</title>
<ellipse fill="none" stroke="#000000" cx="336.6741" cy="-1455.9975" rx="27" ry="18"/>
<text text-anchor="middle" x="336.6741" y="-1451.7975" font-family="Times,serif" font-size="14.00" fill="#000000">N8</text>
</g>
<!-- N12&#45;&#45;N8 -->
<g id="edge4" class="edge">
<title>N12&#45;&#45;N8</title>
<path fill="none" stroke="#000000" d="M353.1936,-1405.1557C349.8975,-1415.3002 345.7676,-1428.0106 342.4618,-1438.1849"/>
</g>
<!-- N13&#45;&#45;N6 -->
<g id="edge29" class="edge">
<title>N13&#45;&#45;N6</title>
<path fill="none" stroke="#000000" d="M520.3976,-378.0146C523.6938,-388.1591 527.8237,-400.8696 531.1295,-411.0439"/>
</g>
<!-- N33 -->
<g id="node23" class="node">
<title>N33</title>
<ellipse fill="none" stroke="#000000" cx="459.6648" cy="-882.2846" rx="27.8306" ry="18"/>
<text text-anchor="middle" x="459.6648" y="-878.0846" font-family="Times,serif" font-size="14.00" fill="#000000">N33</text>
</g>
<!-- N33&#45;&#45;N33 -->
<g id="edge25" class="edge">
<title>N33&#45;&#45;N33</title>
<path fill="none" stroke="#000000" d="M485.4842,-888.9753C496.2249,-889.4367 505.3296,-887.2065 505.3296,-882.2846 505.3296,-877.3627 496.2249,-875.1325 485.4842,-875.5939"/>
</g>
<!-- N3&#45;&#45;N5 -->
<g id="edge10" class="edge">
<title>N3&#45;&#45;N5</title>
<path fill="none" stroke="#000000" d="M409.1515,-35.6343C412.4477,-45.7788 416.5775,-58.4892 419.8834,-68.6635"/>
</g>
<!-- N5&#45;&#45;N11 -->
<g id="edge33" class="edge">
<title>N5&#45;&#45;N11</title>
<path fill="none" stroke="#000000" d="M413.7595,-102.8709C355.1673,-183.5161 98.017,-537.4532 39.5299,-617.9537"/>
</g>
<!-- N8&#45;&#45;N8 -->
<g id="edge16" class="edge">
<title>N8&#45;&#45;N8</title>
<path fill="none" stroke="#000000" d="M362.1176,-1462.6881C372.7019,-1463.1496 381.6741,-1460.9193 381.6741,-1455.9975 381.6741,-1451.0756 372.7019,-1448.8454 362.1176,-1449.3068"/>
</g>
<!-- N20&#45;&#45;N20 -->
<g id="edge11" class="edge">
<title>N20&#45;&#45;N20</title>
<path fill="none" stroke="#000000" d="M1270.2256,-175.4494C1280.9663,-175.9108 1290.0711,-173.6806 1290.0711,-168.7587 1290.0711,-163.8368 1280.9663,-161.6066 1270.2256,-162.068"/>
</g>
</g>
</svg>
