<?xml version="1.0" encoding="UTF-8" standalone="no"?>
<!DOCTYPE svg PUBLIC "-//W3C//DTD SVG 1.1//EN"
 "http://www.w3.org/Graphics/SVG/1.1/DTD/svg11.dtd">
<!-- Generated by graphviz version 2.40.1 (20161225.0304)
 -->
<!-- Title: test_graph Pages: 1 -->
<svg width="504pt" height="473pt"
 viewBox="0.00 0.00 503.90 472.59" xmlns="http://www.w3.org/2000/svg" xmlns:xlink="http://www.w3.org/1999/xlink">
<g id="graph0" class="graph" transform="scale(1 1) rotate(0) translate(4 468.5869)">
<title>test_graph</title>
<polygon fill="#ffffff" stroke="transparent" points="-4,4 -4,-468.5869 499.9042,-468.5869 499.9042,4 -4,4"/>
<!-- N23 -->
<g id="node1" class="node">
<title>N23</title>
<ellipse fill="none" stroke="#000000" cx="429.3605" cy="-149.2273" rx="27.8306" ry="18"/>
<text text-anchor="middle" x="429.3605" y="-145.0273" font-family="Times,serif" font-size="14.00" fill="#000000">N23</text>
</g>
<!-- N9 -->
<g id="node2" class="node">
<title>N9</title>
<ellipse fill="none" stroke="#000000" cx="384.6866" cy="-238.8909" rx="27" ry="18"/>
<text text-anchor="middle" x="384.6866" y="-234.6909" font-family="Times,serif" font-size="14.00" fill="#000000">N9</text>
</g>
<!-- N10 -->
<g id="node3" class="node">
<title>N10</title>
<ellipse fill="none" stroke="#000000" cx="383.2886" cy="-248.8381" rx="27.8306" ry="18"/>
<text text-anchor="middle" x="383.2886" y="-244.6381" font-family="Times,serif" font-size="14.00" fill="#000000">N10</text>
</g>
<!-- N43 -->
<g id="node4" class="node">
<title>N43</title>
<ellipse fill="none" stroke="#000000" cx="384.862" cy="-358.5761" rx="27.8306" ry="18"/>
<text text-anchor="middle" x="384.862" y="-354.3761" font-family="Times,serif" font-size="14.00" fill="#000000">N43</text>
</g>
<!-- N4 -->
<g id="node5" class="node">
<title>N4</title>
<ellipse fill="none" stroke="#000000" cx="380.5199" cy="-258.4939" rx="27" ry="18"/>
<text text-anchor="middle" x="380.5199" y="-254.2939" font-family="Times,serif" font-size="14.00" fill="#000000">N4</text>
</g>
<!-- N16 -->
<g id="node6" class="node">
<title>N16</title>
<ellipse fill="none" stroke="#000000" cx="327.9141" cy="-377.0796" rx="27.8306" ry="18"/>
<text text-anchor="middle" x="327.9141" y="-372.8796" font-family="Times,serif" font-size="14.00" fill="#000000">N16</text>
</g>
<!-- N28 -->
<g id="node7" class="node">
<title>N28</title>
<ellipse fill="none" stroke="#000000" cx="246.1143" cy="-28.4402" rx="27.8306" ry="18"/>
<text text-anchor="middle" x="246.1143" y="-24.2402" font-family="Times,serif" font-size="14.00" fill="#000000">N28</text>
</g>
<!-- N35 -->
<g id="node8" class="node">
<title>N35</title>
<ellipse fill="none" stroke="#000000" cx="275.354" cy="-21.1499" rx="27.8306" ry="18"/>
<text text-anchor="middle" x="275.354" y="-16.9499" font-family="Times,serif" font-size="14.00" fill="#000000">N35</text>
</g>
<!-- N39 -->
<g id="node9" class="node">
<title>N39</title>
<ellipse fill="none" stroke="#000000" cx="92.2412" cy="-418.9913" rx="27.8306" ry="18"/>
<text text-anchor="middle" x="92.2412" y="-414.7913" font-family="Times,serif" font-size="14.00" fill="#000000">N39</text>
</g>
<!-- N20 -->
<g id="node10" class="node">
<title>N20</title>
<ellipse fill="none" stroke="#000000" cx="275.354" cy="-446.5869" rx="27.8306" ry="18"/>
<text text-anchor="middle" x="275.354" y="-442.3869" font-family="Times,serif" font-size="14.00" fill="#000000">N20</text>
</g>
<!-- N41 -->
<g id="node11" class="node">
<title>N41</title>
<ellipse fill="none" stroke="#000000" cx="68.6242" cy="-386.4852" rx="27.8306" ry="18"/>
<text text-anchor="middle" x="68.6242" y="-382.2852" font-family="Times,serif" font-size="14.00" fill="#000000">N41</text>
</g>
<!-- N22 -->
<g id="node12" class="node">
<title>N22</title>
<ellipse fill="none" stroke="#000000" cx="246.1143" cy="-439.2966" rx="27.8306" ry="18"/>
<text text-anchor="middle" x="246.1143" y="-435.0966" font-family="Times,serif" font-size="14.00" fill="#000000">N22</text>
</g>
<!-- N38 -->
<g id="node13" class="node">
<title>N38</title>
<ellipse fill="none" stroke="#000000" cx="49.7609" cy="-351.0086" rx="27.8306" ry="18"/>
<text text-anchor="middle" x="49.7609" y="-346.8086" font-family="Times,serif" font-size="14.00" fill="#000000">N38</text>
</g>
<!-- N14 -->
<g id="node14" class="node">
<title>N14</title>
<ellipse fill="none" stroke="#000000" cx="307.8365" cy="-377.7807" rx="27.8306" ry="18"/>
<text text-anchor="middle" x="307.8365" y="-373.5807" font-family="Times,serif" font-size="14.00" fill="#000000">N14</text>
</g>
<!-- N37 -->
<g id="node15" class="node">
<title>N37</title>
<ellipse fill="none" stroke="#000000" cx="36.0186" cy="-313.252" rx="27.8306" ry="18"/>
<text text-anchor="middle" x="36.0186" y="-309.052" font-family="Times,serif" font-size="14.00" fill="#000000">N37</text>
</g>
<!-- N34 -->
<g id="node16" class="node">
<title>N34</title>
<ellipse fill="none" stroke="#000000" cx="305.3237" cy="-18" rx="27.8306" ry="18"/>
<text text-anchor="middle" x="305.3237" y="-13.8" font-family="Times,serif" font-size="14.00" fill="#000000">N34</text>
</g>
<!-- N32 -->
<g id="node17" class="node">
<title>N32</title>
<ellipse fill="none" stroke="#000000" cx="335.4402" cy="-19.0517" rx="27.8306" ry="18"/>
<text text-anchor="middle" x="335.4402" y="-14.8517" font-family="Times,serif" font-size="14.00" fill="#000000">N32</text>
</g>
<!-- N36 -->
<g id="node18" class="node">
<title>N36</title>
<ellipse fill="none" stroke="#000000" cx="365.1171" cy="-24.2845" rx="27.8306" ry="18"/>
<text text-anchor="middle" x="365.1171" y="-20.0845" font-family="Times,serif" font-size="14.00" fill="#000000">N36</text>
</g>
<!-- N26 -->
<g id="node19" class="node">
<title>N26</title>
<ellipse fill="none" stroke="#000000" cx="440.0065" cy="-166.2645" rx="27.8306" ry="18"/>
<text text-anchor="middle" x="440.0065" y="-162.0645" font-family="Times,serif" font-size="14.00" fill="#000000">N26</text>
</g>
<!-- N44 -->
<g id="node20" class="node">
<title>N44</title>
<ellipse fill="none" stroke="#000000" cx="366.8054" cy="-367.3829" rx="27.8306" ry="18"/>
<text text-anchor="middle" x="366.8054" y="-363.1829" font-family="Times,serif" font-size="14.00" fill="#000000">N44</text>
</g>
<!-- N2 -->
<g id="node21" class="node">
<title>N2</title>
<ellipse fill="none" stroke="#000000" cx="376.4342" cy="-267.6704" rx="27" ry="18"/>
<text text-anchor="middle" x="376.4342" y="-263.4704" font-family="Times,serif" font-size="14.00" fill="#000000">N2</text>
</g>
<!-- N25 -->
<g id="node22" class="node">
<title>N25</title>
<ellipse fill="none" stroke="#000000" cx="448.1777" cy="-184.6175" rx="27.8306" ry="18"/>
<text text-anchor="middle" x="448.1777" y="-180.4175" font-family="Times,serif" font-size="14.00" fill="#000000">N25</text>
</g>
<!-- N21 -->
<g id="node23" class="node">
<title>N21</title>
<ellipse fill="none" stroke="#000000" cx="218.1738" cy="-428.0079" rx="27.8306" ry="18"/>
<text text-anchor="middle" x="218.1738" y="-423.8079" font-family="Times,serif" font-size="14.00" fill="#000000">N21</text>
</g>
<!-- N8 -->
<g id="node24" class="node">
<title>N8</title>
<ellipse fill="none" stroke="#000000" cx="371.1112" cy="-276.189" rx="27" ry="18"/>
<text text-anchor="middle" x="371.1112" y="-271.989" font-family="Times,serif" font-size="14.00" fill="#000000">N8</text>
</g>
<!-- N24 -->
<g id="node25" class="node">
<title>N24</title>
<ellipse fill="none" stroke="#000000" cx="453.7153" cy="-203.9291" rx="27.8306" ry="18"/>
<text text-anchor="middle" x="453.7153" y="-199.7291" font-family="Times,serif" font-size="14.00" fill="#000000">N24</text>
</g>
<!-- N17 -->
<g id="node26" class="node">
<title>N17</title>
<ellipse fill="none" stroke="#000000" cx="192.0763" cy="-412.9405" rx="27.8306" ry="18"/>
<text text-anchor="middle" x="192.0763" y="-408.7405" font-family="Times,serif" font-size="14.00" fill="#000000">N17</text>
</g>
<!-- N31 -->
<g id="node27" class="node">
<title>N31</title>
<ellipse fill="none" stroke="#000000" cx="393.777" cy="-33.5967" rx="27.8306" ry="18"/>
<text text-anchor="middle" x="393.777" y="-29.3967" font-family="Times,serif" font-size="14.00" fill="#000000">N31</text>
</g>
<!-- N42 -->
<g id="node28" class="node">
<title>N42</title>
<ellipse fill="none" stroke="#000000" cx="347.6988" cy="-373.591" rx="27.8306" ry="18"/>
<text text-anchor="middle" x="347.6988" y="-369.391" font-family="Times,serif" font-size="14.00" fill="#000000">N42</text>
</g>
<!-- N5 -->
<g id="node29" class="node">
<title>N5</title>
<ellipse fill="none" stroke="#000000" cx="364.6545" cy="-283.8838" rx="27" ry="18"/>
<text text-anchor="middle" x="364.6545" y="-279.6838" font-family="Times,serif" font-size="14.00" fill="#000000">N5</text>
</g>
<!-- N27 -->
<g id="node30" class="node">
<title>N27</title>
<ellipse fill="none" stroke="#000000" cx="456.5112" cy="-223.8235" rx="27.8306" ry="18"/>
<text text-anchor="middle" x="456.5112" y="-219.6235" font-family="Times,serif" font-size="14.00" fill="#000000">N27</text>
</g>
<!-- N40 -->
<g id="node31" class="node">
<title>N40</title>
<ellipse fill="none" stroke="#000000" cx="27.6648" cy="-273.9503" rx="27.8306" ry="18"/>
<text text-anchor="middle" x="27.6648" y="-269.7503" font-family="Times,serif" font-size="14.00" fill="#000000">N40</text>
</g>
<!-- N30 -->
<g id="node32" class="node">
<title>N30</title>
<ellipse fill="none" stroke="#000000" cx="420.862" cy="-46.8069" rx="27.8306" ry="18"/>
<text text-anchor="middle" x="420.862" y="-42.6069" font-family="Times,serif" font-size="14.00" fill="#000000">N30</text>
</g>
<!-- N33 -->
<g id="node33" class="node">
<title>N33</title>
<ellipse fill="none" stroke="#000000" cx="445.8449" cy="-63.6581" rx="27.8306" ry="18"/>
<text text-anchor="middle" x="445.8449" y="-59.4581" font-family="Times,serif" font-size="14.00" fill="#000000">N33</text>
</g>
<!-- N7 -->
<g id="node34" class="node">
<title>N7</title>
<ellipse fill="none" stroke="#000000" cx="357.1896" cy="-290.6052" rx="27" ry="18"/>
<text text-anchor="middle" x="357.1896" y="-286.4052" font-family="Times,serif" font-size="14.00" fill="#000000">N7</text>
</g>
<!-- N29 -->
<g id="node35" class="node">
<title>N29</title>
<ellipse fill="none" stroke="#000000" cx="468.2394" cy="-83.8222" rx="27.8306" ry="18"/>
<text text-anchor="middle" x="468.2394" y="-79.6222" font-family="Times,serif" font-size="14.00" fill="#000000">N29</text>
</g>
<!-- N19 -->
<g id="node36" class="node">
<title>N19</title>
<ellipse fill="none" stroke="#000000" cx="168.3298" cy="-394.3877" rx="27.8306" ry="18"/>
<text text-anchor="middle" x="168.3298" y="-390.1877" font-family="Times,serif" font-size="14.00" fill="#000000">N19</text>
</g>
<!-- N45 -->
<g id="node37" class="node">
<title>N45</title>
<ellipse fill="none" stroke="#000000" cx="96.862" cy="-233.8684" rx="27.8306" ry="18"/>
<text text-anchor="middle" x="96.862" y="-229.6684" font-family="Times,serif" font-size="14.00" fill="#000000">N45</text>
</g>
<!-- N46 -->
<g id="node38" class="node">
<title>N46</title>
<ellipse fill="none" stroke="#000000" cx="98.9641" cy="-203.807" rx="27.8306" ry="18"/>
<text text-anchor="middle" x="98.9641" y="-199.607" font-family="Times,serif" font-size="14.00" fill="#000000">N46</text>
</g>
<!-- N47 -->
<g id="node39" class="node">
<title>N47</title>
<ellipse fill="none" stroke="#000000" cx="105.2295" cy="-174.3307" rx="27.8306" ry="18"/>
<text text-anchor="middle" x="105.2295" y="-170.1307" font-family="Times,serif" font-size="14.00" fill="#000000">N47</text>
</g>
<!-- N48 -->
<g id="node40" class="node">
<title>N48</title>
<ellipse fill="none" stroke="#000000" cx="115.5362" cy="-146.0133" rx="27.8306" ry="18"/>
<text text-anchor="middle" x="115.5362" y="-141.8133" font-family="Times,serif" font-size="14.00" fill="#000000">N48</text>
</g>
<!-- N49 -->
<g id="node41" class="node">
<title>N49</title>
<ellipse fill="none" stroke="#000000" cx="129.6836" cy="-119.4059" rx="27.8306" ry="18"/>
<text text-anchor="middle" x="129.6836" y="-115.2059" font-family="Times,serif" font-size="14.00" fill="#000000">N49</text>
</g>
<!-- N50 -->
<g id="node42" class="node">
<title>N50</title>
<ellipse fill="none" stroke="#000000" cx="147.3964" cy="-95.0263" rx="27.8306" ry="18"/>
<text text-anchor="middle" x="147.3964" y="-90.8263" font-family="Times,serif" font-size="14.00" fill="#000000">N50</text>
</g>
<!-- N51 -->
<g id="node43" class="node">
<title>N51</title>
<ellipse fill="none" stroke="#000000" cx="168.3298" cy="-73.3491" rx="27.8306" ry="18"/>
<text text-anchor="middle" x="168.3298" y="-69.1491" font-family="Times,serif" font-size="14.00" fill="#000000">N51</text>
</g>
<!-- N52 -->
<g id="node44" class="node">
<title>N52</title>
<ellipse fill="none" stroke="#000000" cx="192.0763" cy="-54.7963" rx="27.8306" ry="18"/>
<text text-anchor="middle" x="192.0763" y="-50.5963" font-family="Times,serif" font-size="14.00" fill="#000000">N52</text>
</g>
<!-- N53 -->
<g id="node45" class="node">
<title>N53</title>
<ellipse fill="none" stroke="#000000" cx="218.1738" cy="-39.7289" rx="27.8306" ry="18"/>
<text text-anchor="middle" x="218.1738" y="-35.5289" font-family="Times,serif" font-size="14.00" fill="#000000">N53</text>
</g>
<!-- Root -->
<g id="node46" class="node">
<title>Root</title>
<ellipse fill="none" stroke="#000000" cx="312.862" cy="-233.8684" rx="29.6358" ry="18"/>
<text text-anchor="middle" x="312.862" y="-229.6684" font-family="Times,serif" font-size="14.00" fill="#000000">Root</text>
</g>
<!-- Root&#45;&#45;N9 -->
<g id="edge8" class="edge">
<title>Root&#45;&#45;N9</title>
<path fill="none" stroke="#000000" d="M342.4905,-235.9402C347.4367,-236.2861 352.5471,-236.6435 357.4304,-236.9849"/>
</g>
<!-- Root&#45;&#45;N10 -->
<g id="edge9" class="edge">
<title>Root&#45;&#45;N10</title>
<path fill="none" stroke="#000000" d="M341.1014,-239.8709C346.3059,-240.9771 351.722,-242.1284 356.8703,-243.2227"/>
</g>
<!-- Root&#45;&#45;N4 -->
<g id="edge3" class="edge">
<title>Root&#45;&#45;N4</title>
<path fill="none" stroke="#000000" d="M338.4405,-243.1782C344.4279,-245.3575 350.7825,-247.6703 356.69,-249.8205"/>
</g>
<!-- Root&#45;&#45;N2 -->
<g id="edge1" class="edge">
<title>Root&#45;&#45;N2</title>
<path fill="none" stroke="#000000" d="M335.4542,-245.8809C341.8781,-249.2966 348.8502,-253.0037 355.191,-256.3752"/>
</g>
<!-- Root&#45;&#45;N8 -->
<g id="edge7" class="edge">
<title>Root&#45;&#45;N8</title>
<path fill="none" stroke="#000000" d="M331.935,-247.7257C338.5709,-252.547 346.0003,-257.9448 352.5908,-262.7331"/>
</g>
<!-- Root&#45;&#45;N5 -->
<g id="edge4" class="edge">
<title>Root&#45;&#45;N5</title>
<path fill="none" stroke="#000000" d="M328.6829,-249.1465C335.2275,-255.4666 342.7894,-262.7689 349.2859,-269.0425"/>
</g>
<!-- Root&#45;&#45;N7 -->
<g id="edge6" class="edge">
<title>Root&#45;&#45;N7</title>
<path fill="none" stroke="#000000" d="M325.6834,-250.279C331.6155,-257.8718 338.6406,-266.8635 344.5501,-274.4274"/>
</g>
<!-- N3 -->
<g id="node47" class="node">
<title>N3</title>
<ellipse fill="none" stroke="#000000" cx="339.8337" cy="-300.6257" rx="27" ry="18"/>
<text text-anchor="middle" x="339.8337" y="-296.4257" font-family="Times,serif" font-size="14.00" fill="#000000">N3</text>
</g>
<!-- Root&#45;&#45;N3 -->
<g id="edge2" class="edge">
<title>Root&#45;&#45;N3</title>
<path fill="none" stroke="#000000" d="M319.9485,-251.4081C323.8817,-261.1431 328.7603,-273.2181 332.7009,-282.9713"/>
</g>
<!-- N6 -->
<g id="node48" class="node">
<title>N6</title>
<ellipse fill="none" stroke="#000000" cx="245.2041" cy="-209.243" rx="27" ry="18"/>
<text text-anchor="middle" x="245.2041" y="-205.043" font-family="Times,serif" font-size="14.00" fill="#000000">N6</text>
</g>
<!-- Root&#45;&#45;N6 -->
<g id="edge5" class="edge">
<title>Root&#45;&#45;N6</title>
<path fill="none" stroke="#000000" d="M287.2835,-224.5586C281.2961,-222.3794 274.9415,-220.0665 269.034,-217.9163"/>
</g>
<!-- N11 -->
<g id="node49" class="node">
<title>N11</title>
<ellipse fill="none" stroke="#000000" cx="380.5199" cy="-209.243" rx="27.8306" ry="18"/>
<text text-anchor="middle" x="380.5199" y="-205.043" font-family="Times,serif" font-size="14.00" fill="#000000">N11</text>
</g>
<!-- Root&#45;&#45;N11 -->
<g id="edge10" class="edge">
<title>Root&#45;&#45;N11</title>
<path fill="none" stroke="#000000" d="M338.4405,-224.5586C344.2782,-222.4339 350.465,-220.1821 356.2461,-218.0779"/>
</g>
<!-- N3&#45;&#45;N43 -->
<g id="edge42" class="edge">
<title>N3&#45;&#45;N43</title>
<path fill="none" stroke="#000000" d="M352.3766,-316.7681C358.5179,-324.6718 365.8996,-334.1719 372.0735,-342.1176"/>
</g>
<!-- N3&#45;&#45;N44 -->
<g id="edge43" class="edge">
<title>N3&#45;&#45;N44</title>
<path fill="none" stroke="#000000" d="M346.9202,-318.1653C350.8534,-327.9003 355.732,-339.9753 359.6725,-349.7286"/>
</g>
<!-- N3&#45;&#45;N42 -->
<g id="edge41" class="edge">
<title>N3&#45;&#45;N42</title>
<path fill="none" stroke="#000000" d="M341.7779,-318.662C342.9879,-329.8876 344.5387,-344.2751 345.7497,-355.5092"/>
</g>
<!-- N6&#45;&#45;N16 -->
<g id="edge15" class="edge">
<title>N6&#45;&#45;N16</title>
<path fill="none" stroke="#000000" d="M253.744,-226.5723C269.5932,-258.7338 303.3893,-327.3134 319.2968,-359.5931"/>
</g>
<!-- N6&#45;&#45;N14 -->
<g id="edge13" class="edge">
<title>N6&#45;&#45;N14</title>
<path fill="none" stroke="#000000" d="M251.7885,-226.9609C263.8176,-259.33 289.213,-327.6667 301.2463,-360.0473"/>
</g>
<!-- N12 -->
<g id="node50" class="node">
<title>N12</title>
<ellipse fill="none" stroke="#000000" cx="209.2771" cy="-333.8992" rx="27.8306" ry="18"/>
<text text-anchor="middle" x="209.2771" y="-329.6992" font-family="Times,serif" font-size="14.00" fill="#000000">N12</text>
</g>
<!-- N6&#45;&#45;N12 -->
<g id="edge11" class="edge">
<title>N6&#45;&#45;N12</title>
<path fill="none" stroke="#000000" d="M240.0567,-227.1032C233.2269,-250.8003 221.2399,-292.3917 214.415,-316.0722"/>
</g>
<!-- N13 -->
<g id="node51" class="node">
<title>N13</title>
<ellipse fill="none" stroke="#000000" cx="190.7431" cy="-157.56" rx="27.8306" ry="18"/>
<text text-anchor="middle" x="190.7431" y="-153.36" font-family="Times,serif" font-size="14.00" fill="#000000">N13</text>
</g>
<!-- N6&#45;&#45;N13 -->
<g id="edge12" class="edge">
<title>N6&#45;&#45;N13</title>
<path fill="none" stroke="#000000" d="M229.4517,-194.2941C222.2891,-187.4969 213.8297,-179.469 206.6487,-172.6543"/>
</g>
<!-- N15 -->
<g id="node52" class="node">
<title>N15</title>
<ellipse fill="none" stroke="#000000" cx="347.6988" cy="-94.1458" rx="27.8306" ry="18"/>
<text text-anchor="middle" x="347.6988" y="-89.9458" font-family="Times,serif" font-size="14.00" fill="#000000">N15</text>
</g>
<!-- N6&#45;&#45;N15 -->
<g id="edge14" class="edge">
<title>N6&#45;&#45;N15</title>
<path fill="none" stroke="#000000" d="M259.027,-193.7205C278.5888,-171.7534 314.1469,-131.8232 333.7675,-109.79"/>
</g>
<!-- N11&#45;&#45;N23 -->
<g id="edge22" class="edge">
<title>N11&#45;&#45;N23</title>
<path fill="none" stroke="#000000" d="M393.6083,-193.1599C400.6158,-184.549 409.2229,-173.9725 416.2359,-165.3548"/>
</g>
<!-- N11&#45;&#45;N26 -->
<g id="edge25" class="edge">
<title>N11&#45;&#45;N26</title>
<path fill="none" stroke="#000000" d="M399.3418,-195.6443C406.2857,-190.6275 414.1517,-184.9443 421.1028,-179.9222"/>
</g>
<!-- N11&#45;&#45;N25 -->
<g id="edge24" class="edge">
<title>N11&#45;&#45;N25</title>
<path fill="none" stroke="#000000" d="M404.9459,-200.3526C411.1535,-198.0932 417.8199,-195.6669 424.0144,-193.4123"/>
</g>
<!-- N11&#45;&#45;N24 -->
<g id="edge23" class="edge">
<title>N11&#45;&#45;N24</title>
<path fill="none" stroke="#000000" d="M408.1919,-207.234C414.0216,-206.8108 420.173,-206.3642 426.0041,-205.9409"/>
</g>
<!-- N11&#45;&#45;N27 -->
<g id="edge26" class="edge">
<title>N11&#45;&#45;N27</title>
<path fill="none" stroke="#000000" d="M407.098,-214.3425C414.4596,-215.755 422.4516,-217.2884 429.8197,-218.7022"/>
</g>
<!-- N12&#45;&#45;N20 -->
<g id="edge19" class="edge">
<title>N12&#45;&#45;N20</title>
<path fill="none" stroke="#000000" d="M219.3127,-351.0141C231.8044,-372.3174 253.0058,-408.4742 265.4404,-429.6802"/>
</g>
<!-- N12&#45;&#45;N22 -->
<g id="edge21" class="edge">
<title>N12&#45;&#45;N22</title>
<path fill="none" stroke="#000000" d="M215.526,-351.7785C222.341,-371.2772 233.1793,-402.2874 239.9577,-421.6814"/>
</g>
<!-- N12&#45;&#45;N21 -->
<g id="edge20" class="edge">
<title>N12&#45;&#45;N21</title>
<path fill="none" stroke="#000000" d="M210.9925,-352.0443C212.5679,-368.7088 214.89,-393.2716 216.4637,-409.9185"/>
</g>
<!-- N12&#45;&#45;N17 -->
<g id="edge16" class="edge">
<title>N12&#45;&#45;N17</title>
<path fill="none" stroke="#000000" d="M205.374,-351.8349C202.559,-364.7705 198.7755,-382.1565 195.964,-395.0758"/>
</g>
<!-- N12&#45;&#45;N19 -->
<g id="edge18" class="edge">
<title>N12&#45;&#45;N19</title>
<path fill="none" stroke="#000000" d="M198.088,-350.428C192.3103,-358.963 185.2811,-369.3468 179.5053,-377.8789"/>
</g>
<!-- N18 -->
<g id="node53" class="node">
<title>N18</title>
<ellipse fill="none" stroke="#000000" cx="115.5362" cy="-321.7235" rx="27.8306" ry="18"/>
<text text-anchor="middle" x="115.5362" y="-317.5235" font-family="Times,serif" font-size="14.00" fill="#000000">N18</text>
</g>
<!-- N12&#45;&#45;N18 -->
<g id="edge17" class="edge">
<title>N12&#45;&#45;N18</title>
<path fill="none" stroke="#000000" d="M181.9113,-330.3448C169.59,-328.7444 155.08,-326.8597 142.7739,-325.2613"/>
</g>
<!-- N13&#45;&#45;N45 -->
<g id="edge44" class="edge">
<title>N13&#45;&#45;N45</title>
<path fill="none" stroke="#000000" d="M173.0848,-171.9131C156.3003,-185.5558 131.1994,-205.9583 114.4411,-219.5798"/>
</g>
<!-- N13&#45;&#45;N46 -->
<g id="edge45" class="edge">
<title>N13&#45;&#45;N46</title>
<path fill="none" stroke="#000000" d="M168.5259,-168.7551C154.096,-176.0263 135.3657,-185.4645 120.9766,-192.715"/>
</g>
<!-- N13&#45;&#45;N47 -->
<g id="edge46" class="edge">
<title>N13&#45;&#45;N47</title>
<path fill="none" stroke="#000000" d="M164.1548,-162.7745C153.8588,-164.7937 142.0958,-167.1006 131.8013,-169.1195"/>
</g>
<!-- N13&#45;&#45;N48 -->
<g id="edge47" class="edge">
<title>N13&#45;&#45;N48</title>
<path fill="none" stroke="#000000" d="M163.5917,-153.3914C156.7756,-152.3449 149.4619,-151.222 142.6477,-150.1758"/>
</g>
<!-- N13&#45;&#45;N49 -->
<g id="edge48" class="edge">
<title>N13&#45;&#45;N49</title>
<path fill="none" stroke="#000000" d="M170.7499,-145.0669C164.0721,-140.8942 156.6277,-136.2424 149.9307,-132.0577"/>
</g>
<!-- N13&#45;&#45;N50 -->
<g id="edge49" class="edge">
<title>N13&#45;&#45;N50</title>
<path fill="none" stroke="#000000" d="M179.3543,-141.13C173.0331,-132.0109 165.1926,-120.6999 158.8597,-111.5637"/>
</g>
<!-- N13&#45;&#45;N51 -->
<g id="edge50" class="edge">
<title>N13&#45;&#45;N51</title>
<path fill="none" stroke="#000000" d="M185.9898,-139.7011C182.1862,-125.4102 176.878,-105.4664 173.0762,-91.1824"/>
</g>
<!-- N13&#45;&#45;N52 -->
<g id="edge51" class="edge">
<title>N13&#45;&#45;N52</title>
<path fill="none" stroke="#000000" d="M190.9814,-139.1879C191.2241,-120.483 191.5981,-91.6567 191.84,-73.0093"/>
</g>
<!-- N13&#45;&#45;N53 -->
<g id="edge52" class="edge">
<title>N13&#45;&#45;N53</title>
<path fill="none" stroke="#000000" d="M194.9092,-139.664C200.065,-117.5171 208.7947,-80.0178 213.9685,-57.7933"/>
</g>
<!-- N15&#45;&#45;N28 -->
<g id="edge27" class="edge">
<title>N15&#45;&#45;N28</title>
<path fill="none" stroke="#000000" d="M327.6289,-81.1645C309.7042,-69.5706 283.6025,-52.6879 265.7968,-41.171"/>
</g>
<!-- N15&#45;&#45;N35 -->
<g id="edge34" class="edge">
<title>N15&#45;&#45;N35</title>
<path fill="none" stroke="#000000" d="M332.3563,-78.6653C320.0791,-66.2776 302.9457,-48.9899 290.6743,-36.6082"/>
</g>
<!-- N15&#45;&#45;N34 -->
<g id="edge33" class="edge">
<title>N15&#45;&#45;N34</title>
<path fill="none" stroke="#000000" d="M338.0832,-76.8672C331.0994,-64.3177 321.696,-47.4202 314.7552,-34.948"/>
</g>
<!-- N15&#45;&#45;N32 -->
<g id="edge31" class="edge">
<title>N15&#45;&#45;N32</title>
<path fill="none" stroke="#000000" d="M344.7313,-75.9676C342.8039,-64.161 340.3022,-48.8357 338.3803,-37.0625"/>
</g>
<!-- N15&#45;&#45;N36 -->
<g id="edge35" class="edge">
<title>N15&#45;&#45;N36</title>
<path fill="none" stroke="#000000" d="M352.1844,-76.1548C354.7649,-65.8051 357.9981,-52.8375 360.5861,-42.4574"/>
</g>
<!-- N15&#45;&#45;N31 -->
<g id="edge30" class="edge">
<title>N15&#45;&#45;N31</title>
<path fill="none" stroke="#000000" d="M360.0469,-77.9198C366.6581,-69.2323 374.7784,-58.5618 381.3948,-49.8676"/>
</g>
<!-- N15&#45;&#45;N30 -->
<g id="edge29" class="edge">
<title>N15&#45;&#45;N30</title>
<path fill="none" stroke="#000000" d="M367.6909,-81.2103C378.099,-74.4759 390.7801,-66.2709 401.1473,-59.563"/>
</g>
<!-- N15&#45;&#45;N33 -->
<g id="edge32" class="edge">
<title>N15&#45;&#45;N33</title>
<path fill="none" stroke="#000000" d="M372.7191,-86.3736C387.4854,-81.7867 406.1119,-76.0006 420.8702,-71.4161"/>
</g>
<!-- N15&#45;&#45;N29 -->
<g id="edge28" class="edge">
<title>N15&#45;&#45;N29</title>
<path fill="none" stroke="#000000" d="M375.3532,-91.7774C394.9543,-90.0987 421.1415,-87.8559 440.7136,-86.1796"/>
</g>
<!-- N18&#45;&#45;N39 -->
<g id="edge38" class="edge">
<title>N18&#45;&#45;N39</title>
<path fill="none" stroke="#000000" d="M111.2635,-339.5639C107.0866,-357.0045 100.7602,-383.4203 96.5657,-400.9346"/>
</g>
<!-- N18&#45;&#45;N41 -->
<g id="edge40" class="edge">
<title>N18&#45;&#45;N41</title>
<path fill="none" stroke="#000000" d="M103.6983,-338.0656C96.6411,-347.8081 87.7067,-360.142 80.6214,-369.923"/>
</g>
<!-- N18&#45;&#45;N38 -->
<g id="edge37" class="edge">
<title>N18&#45;&#45;N38</title>
<path fill="none" stroke="#000000" d="M92.5312,-331.966C86.1592,-334.803 79.2416,-337.8829 72.8641,-340.7224"/>
</g>
<!-- N18&#45;&#45;N37 -->
<g id="edge36" class="edge">
<title>N18&#45;&#45;N37</title>
<path fill="none" stroke="#000000" d="M88.1708,-318.8081C80.1741,-317.9562 71.4343,-317.0251 63.4345,-316.1728"/>
</g>
<!-- N18&#45;&#45;N40 -->
<g id="edge39" class="edge">
<title>N18&#45;&#45;N40</title>
<path fill="none" stroke="#000000" d="M94.265,-310.159C80.551,-302.703 62.78,-293.0415 49.0447,-285.5739"/>
</g>
</g>
</svg>
